%TF.GenerationSoftware,KiCad,Pcbnew,10.0.0*%
%TF.CreationDate,2026-06-04T21:51:39+05:30*%
%TF.ProjectId,card,63617264-2e6b-4696-9361-645f70636258,rev?*%
%TF.SameCoordinates,Original*%
%TF.FileFunction,Copper,L2,Bot*%
%TF.FilePolarity,Positive*%
%FSLAX46Y46*%
G04 Gerber Fmt 4.6, Leading zero omitted, Abs format (unit mm)*
G04 Created by KiCad (PCBNEW 10.0.0) date 2026-06-04 21:51:39*
%MOMM*%
%LPD*%
G01*
G04 APERTURE LIST*
%TA.AperFunction,ComponentPad*%
%ADD10R,1.700000X1.700000*%
%TD*%
%TA.AperFunction,ComponentPad*%
%ADD11C,1.700000*%
%TD*%
%TA.AperFunction,ComponentPad*%
%ADD12O,1.000000X2.100000*%
%TD*%
%TA.AperFunction,ComponentPad*%
%ADD13O,1.000000X1.600000*%
%TD*%
%TA.AperFunction,ViaPad*%
%ADD14C,0.600000*%
%TD*%
%TA.AperFunction,Conductor*%
%ADD15C,0.200000*%
%TD*%
G04 APERTURE END LIST*
D10*
%TO.P,J3,1,Pin_1_1*%
%TO.N,VBUS*%
X174270000Y-51140000D03*
D11*
%TO.P,J3,2,Pin_2_2*%
%TO.N,GPIO29_ADC3*%
X174270000Y-53680000D03*
%TO.P,J3,3,Pin_3_3*%
%TO.N,GND*%
X174270000Y-56220000D03*
%TO.P,J3,4,Pin_4_4*%
%TO.N,GPIO28_ADC2*%
X174270000Y-58760000D03*
%TO.P,J3,5,Pin_5_5*%
%TO.N,+3V3*%
X174270000Y-61300000D03*
%TO.P,J3,6,Pin_6_6*%
%TO.N,GPIO27_ADC1*%
X174270000Y-63840000D03*
%TO.P,J3,7,Pin_7_7*%
%TO.N,GPIO26_ADC0*%
X174270000Y-66380000D03*
%TO.P,J3,8,Pin_8_8*%
%TO.N,GND*%
X174270000Y-68920000D03*
%TO.P,J3,9,Pin_9_9*%
%TO.N,GPIO25*%
X174270000Y-71460000D03*
%TO.P,J3,10,Pin_10_10*%
%TO.N,GPIO24*%
X174270000Y-74000000D03*
%TO.P,J3,11,Pin_11_11*%
%TO.N,GPIO23*%
X174270000Y-76540000D03*
%TO.P,J3,12,Pin_12_12*%
%TO.N,GPIO22*%
X174270000Y-79080000D03*
%TO.P,J3,13,Pin_13_13*%
%TO.N,GND*%
X174270000Y-81620000D03*
%TO.P,J3,14,Pin_14_14*%
%TO.N,GPIO21*%
X174270000Y-84160000D03*
%TO.P,J3,15,Pin_15_15*%
%TO.N,GPIO20*%
X174270000Y-86700000D03*
%TO.P,J3,16,Pin_16_16*%
%TO.N,GPIO19*%
X174270000Y-89240000D03*
%TO.P,J3,17,Pin_17_17*%
%TO.N,GPIO18*%
X174270000Y-91780000D03*
%TO.P,J3,18,Pin_18_18*%
%TO.N,GND*%
X174270000Y-94320000D03*
%TO.P,J3,19,Pin_19_19*%
%TO.N,GPIO17*%
X174270000Y-96860000D03*
%TO.P,J3,20,Pin_20_20*%
%TO.N,GPIO16*%
X174270000Y-99400000D03*
%TD*%
D12*
%TO.P,J1,SH,SHIELD_SH*%
%TO.N,GND*%
X169700000Y-55400000D03*
D13*
X169700000Y-51220000D03*
D12*
X161060000Y-55400000D03*
D13*
X161060000Y-51220000D03*
%TD*%
D10*
%TO.P,J2,1,Pin_1_1*%
%TO.N,GPIO0*%
X156490000Y-51140000D03*
D11*
%TO.P,J2,2,Pin_2_2*%
%TO.N,GPIO1*%
X156490000Y-53680000D03*
%TO.P,J2,3,Pin_3_3*%
%TO.N,GND*%
X156490000Y-56220000D03*
%TO.P,J2,4,Pin_4_4*%
%TO.N,GPIO2*%
X156490000Y-58760000D03*
%TO.P,J2,5,Pin_5_5*%
%TO.N,GPIO3*%
X156490000Y-61300000D03*
%TO.P,J2,6,Pin_6_6*%
%TO.N,GPIO4*%
X156490000Y-63840000D03*
%TO.P,J2,7,Pin_7_7*%
%TO.N,GPIO5*%
X156490000Y-66380000D03*
%TO.P,J2,8,Pin_8_8*%
%TO.N,GND*%
X156490000Y-68920000D03*
%TO.P,J2,9,Pin_9_9*%
%TO.N,GPIO6*%
X156490000Y-71460000D03*
%TO.P,J2,10,Pin_10_10*%
%TO.N,GPIO7*%
X156490000Y-74000000D03*
%TO.P,J2,11,Pin_11_11*%
%TO.N,GPIO8*%
X156490000Y-76540000D03*
%TO.P,J2,12,Pin_12_12*%
%TO.N,GPIO9*%
X156490000Y-79080000D03*
%TO.P,J2,13,Pin_13_13*%
%TO.N,GND*%
X156490000Y-81620000D03*
%TO.P,J2,14,Pin_14_14*%
%TO.N,GPIO10*%
X156490000Y-84160000D03*
%TO.P,J2,15,Pin_15_15*%
%TO.N,GPIO11*%
X156490000Y-86700000D03*
%TO.P,J2,16,Pin_16_16*%
%TO.N,GPIO12*%
X156490000Y-89240000D03*
%TO.P,J2,17,Pin_17_17*%
%TO.N,GPIO13*%
X156490000Y-91780000D03*
%TO.P,J2,18,Pin_18_18*%
%TO.N,GND*%
X156490000Y-94320000D03*
%TO.P,J2,19,Pin_19_19*%
%TO.N,GPIO14*%
X156490000Y-96860000D03*
%TO.P,J2,20,Pin_20_20*%
%TO.N,GPIO15*%
X156490000Y-99400000D03*
%TD*%
D10*
%TO.P,J4,1,Pin_1_1*%
%TO.N,SWCLK*%
X162840000Y-99160000D03*
D11*
%TO.P,J4,2,Pin_2_2*%
%TO.N,GND*%
X165380000Y-99160000D03*
%TO.P,J4,3,Pin_3_3*%
%TO.N,SWDI0*%
X167920000Y-99160000D03*
%TD*%
D14*
%TO.N,+3V3*%
X169260000Y-85990000D03*
X170780000Y-77140000D03*
X162180000Y-75030000D03*
X171086038Y-81363962D03*
X164630000Y-69180000D03*
X164960000Y-61910000D03*
X161470000Y-74310000D03*
X165060000Y-81370002D03*
%TO.N,GND*%
X166862822Y-81256893D03*
X159479999Y-64488706D03*
X161220000Y-69040000D03*
X161750000Y-86050000D03*
X167190000Y-89640000D03*
X160882468Y-72218324D03*
X166979184Y-93030000D03*
X158430000Y-82440000D03*
X169230000Y-70800000D03*
X172001037Y-82278963D03*
X167940000Y-72580000D03*
X162996775Y-81627248D03*
%TO.N,GPIO29_ADC3*%
X171620000Y-57570000D03*
X166750000Y-77000000D03*
X170180000Y-63710000D03*
%TO.N,GPIO28_ADC2*%
X167531595Y-77352429D03*
X172000000Y-62750000D03*
%TO.N,GPIO27_ADC1*%
X167490831Y-78214279D03*
%TO.N,GPIO26_ADC0*%
X167881386Y-79777865D03*
%TO.N,GPIO19*%
X167489583Y-80475357D03*
%TO.N,GPIO17*%
X168430000Y-82470000D03*
X170790000Y-92060000D03*
%TO.N,GPIO16*%
X172200000Y-93750000D03*
%TO.N,GPIO0*%
X164499623Y-76765797D03*
%TO.N,GPIO1*%
X165190000Y-77169998D03*
X166705000Y-62210000D03*
X166830000Y-60700000D03*
X159070000Y-57420000D03*
X161090000Y-58020000D03*
%TO.N,GPIO2*%
X163280001Y-78256720D03*
%TO.N,GPIO3*%
X162875320Y-78946819D03*
%TO.N,GPIO4*%
X160711333Y-76644177D03*
%TO.N,GPIO5*%
X159914265Y-76575735D03*
%TO.N,GPIO6*%
X156032176Y-75269998D03*
X158470000Y-77250000D03*
%TO.N,GPIO7*%
X163140000Y-79780000D03*
%TO.N,GPIO8*%
X162853130Y-80840247D03*
%TO.N,GPIO9*%
X159370000Y-81400000D03*
%TO.N,GPIO14*%
X159050000Y-96150000D03*
%TO.N,GPIO15*%
X158180000Y-91750000D03*
X163780000Y-81790229D03*
%TO.N,SWCLK*%
X166380024Y-81894788D03*
%TD*%
%TO.N,+3V3*%
D15*
X165060000Y-78174703D02*
X165060000Y-81370002D01*
X169200000Y-85930000D02*
X169260000Y-85990000D01*
X165570000Y-61300000D02*
X174270000Y-61300000D01*
X170780000Y-63121471D02*
X172601471Y-61300000D01*
X162180000Y-75030000D02*
X162180000Y-75294703D01*
X172601471Y-61300000D02*
X174270000Y-61300000D01*
X162180000Y-75294703D02*
X165060000Y-78174703D01*
X170426038Y-81363962D02*
X169200000Y-82590000D01*
X161470000Y-72340000D02*
X164630000Y-69180000D01*
X164960000Y-61910000D02*
X165570000Y-61300000D01*
X161470000Y-74310000D02*
X161470000Y-72340000D01*
X169200000Y-82590000D02*
X169200000Y-85930000D01*
X171086038Y-81363962D02*
X170426038Y-81363962D01*
X170780000Y-77140000D02*
X170780000Y-63121471D01*
%TO.N,GND*%
X162184023Y-82440000D02*
X162996775Y-81627248D01*
X169230000Y-71290000D02*
X167940000Y-72580000D01*
X161060000Y-51220000D02*
X161060000Y-55400000D01*
X166390000Y-81294148D02*
X166130655Y-81294148D01*
X166979184Y-93030000D02*
X166979184Y-97560816D01*
X166130655Y-81294148D02*
X161750000Y-85674803D01*
X159479999Y-67299999D02*
X159479999Y-64488706D01*
X161220000Y-69040000D02*
X159479999Y-67299999D01*
X162440000Y-88370000D02*
X162440000Y-86740000D01*
X161220000Y-71880792D02*
X161220000Y-69040000D01*
X172980000Y-93030000D02*
X166979184Y-93030000D01*
X174270000Y-94320000D02*
X172980000Y-93030000D01*
X162440000Y-88370000D02*
X156490000Y-94320000D01*
X169700000Y-51220000D02*
X169700000Y-55400000D01*
X169700000Y-51220000D02*
X161060000Y-51220000D01*
X160882468Y-72218324D02*
X161220000Y-71880792D01*
X158430000Y-82440000D02*
X162184023Y-82440000D01*
X166627713Y-81294148D02*
X166390000Y-81294148D01*
X172001037Y-92051037D02*
X174270000Y-94320000D01*
X172001037Y-82278963D02*
X172001037Y-92051037D01*
X167190000Y-81584071D02*
X167190000Y-89640000D01*
X162440000Y-86740000D02*
X161750000Y-86050000D01*
X161750000Y-85674803D02*
X161750000Y-86050000D01*
X166862822Y-81256893D02*
X167190000Y-81584071D01*
X166979184Y-97560816D02*
X165380000Y-99160000D01*
X169230000Y-70800000D02*
X169230000Y-71290000D01*
%TO.N,GPIO29_ADC3*%
X166750000Y-77000000D02*
X170180000Y-73570000D01*
X171620000Y-57570000D02*
X171620000Y-56330000D01*
X171620000Y-56330000D02*
X174270000Y-53680000D01*
X170180000Y-73570000D02*
X170180000Y-63710000D01*
%TO.N,GPIO28_ADC2*%
X171560000Y-77814279D02*
X171820000Y-77554279D01*
X171820000Y-62930000D02*
X172000000Y-62750000D01*
X167993445Y-77814279D02*
X171560000Y-77814279D01*
X171820000Y-77554279D02*
X171820000Y-62930000D01*
X167531595Y-77352429D02*
X167993445Y-77814279D01*
%TO.N,GPIO27_ADC1*%
X167490831Y-78214279D02*
X172135721Y-78214279D01*
X172220000Y-78130000D02*
X172220000Y-65890000D01*
X172135721Y-78214279D02*
X172220000Y-78130000D01*
X172220000Y-65890000D02*
X174270000Y-63840000D01*
%TO.N,GPIO26_ADC0*%
X167881386Y-79777865D02*
X171942135Y-79777865D01*
X172620000Y-68030000D02*
X174270000Y-66380000D01*
X171942135Y-79777865D02*
X172620000Y-79100000D01*
X172620000Y-79100000D02*
X172620000Y-68030000D01*
%TO.N,GPIO19*%
X168021994Y-80475357D02*
X168140337Y-80357014D01*
X168140337Y-80357014D02*
X170927618Y-80357014D01*
X167489583Y-80475357D02*
X168021994Y-80475357D01*
X173120000Y-88090000D02*
X174270000Y-89240000D01*
X173120000Y-82549396D02*
X173120000Y-88090000D01*
X170927618Y-80357014D02*
X173120000Y-82549396D01*
%TO.N,GPIO17*%
X168430000Y-82470000D02*
X168600000Y-82640000D01*
X168600000Y-82640000D02*
X168600000Y-89870000D01*
X168600000Y-89870000D02*
X170790000Y-92060000D01*
%TO.N,GPIO16*%
X172200000Y-93750000D02*
X172200000Y-97330000D01*
X172200000Y-97330000D02*
X174270000Y-99400000D01*
%TO.N,GPIO0*%
X164661543Y-76768457D02*
X165230000Y-76200000D01*
X159670000Y-57773654D02*
X159670000Y-52170000D01*
X165230000Y-63333654D02*
X159670000Y-57773654D01*
X164499623Y-76765797D02*
X164502283Y-76768457D01*
X158640000Y-51140000D02*
X156490000Y-51140000D01*
X165230000Y-76200000D02*
X165230000Y-63333654D01*
X164502283Y-76768457D02*
X164661543Y-76768457D01*
X159670000Y-52170000D02*
X158640000Y-51140000D01*
%TO.N,GPIO1*%
X159070000Y-56260000D02*
X156490000Y-53680000D01*
X159070000Y-57420000D02*
X159070000Y-56260000D01*
X166830000Y-60700000D02*
X163770000Y-60700000D01*
X165190000Y-77160000D02*
X166705000Y-75645000D01*
X165190000Y-77169998D02*
X165190000Y-77160000D01*
X163770000Y-60700000D02*
X161090000Y-58020000D01*
X166705000Y-75645000D02*
X166705000Y-62210000D01*
%TO.N,GPIO2*%
X158880000Y-61150000D02*
X156490000Y-58760000D01*
X163280001Y-78256720D02*
X163298711Y-78238010D01*
X163298711Y-77271904D02*
X158880000Y-72853193D01*
X163298711Y-78238010D02*
X163298711Y-77271904D01*
X158880000Y-72853193D02*
X158880000Y-61150000D01*
%TO.N,GPIO3*%
X158480000Y-63290000D02*
X156490000Y-61300000D01*
X161311333Y-76395647D02*
X158480000Y-73564314D01*
X162875320Y-78946819D02*
X161311333Y-77382832D01*
X158480000Y-73564314D02*
X158480000Y-63290000D01*
X161311333Y-77382832D02*
X161311333Y-76395647D01*
%TO.N,GPIO4*%
X160711333Y-76644177D02*
X160711333Y-76361332D01*
X158080000Y-65430000D02*
X156490000Y-63840000D01*
X160711333Y-76361332D02*
X158080000Y-73729999D01*
X158080000Y-73729999D02*
X158080000Y-65430000D01*
%TO.N,GPIO5*%
X157680000Y-74341470D02*
X157680000Y-67570000D01*
X157680000Y-67570000D02*
X156490000Y-66380000D01*
X159914265Y-76575735D02*
X157680000Y-74341470D01*
%TO.N,GPIO6*%
X158470000Y-77250000D02*
X158470000Y-76893654D01*
X158470000Y-76893654D02*
X156846344Y-75269998D01*
X156846344Y-75269998D02*
X156032176Y-75269998D01*
%TO.N,GPIO7*%
X163140000Y-79780000D02*
X162270000Y-79780000D01*
X162270000Y-79780000D02*
X156490000Y-74000000D01*
%TO.N,GPIO8*%
X162843377Y-80850000D02*
X162853130Y-80840247D01*
X160602352Y-80652352D02*
X156490000Y-76540000D01*
X162180000Y-80850000D02*
X162843377Y-80850000D01*
X161982352Y-80652352D02*
X162180000Y-80850000D01*
X160602352Y-80652352D02*
X161982352Y-80652352D01*
%TO.N,GPIO9*%
X158810000Y-81400000D02*
X156490000Y-79080000D01*
X159370000Y-81400000D02*
X158810000Y-81400000D01*
%TO.N,GPIO14*%
X159050000Y-96150000D02*
X158340000Y-96860000D01*
X158340000Y-96860000D02*
X156490000Y-96860000D01*
%TO.N,GPIO15*%
X158180000Y-91750000D02*
X158180000Y-87390229D01*
X158180000Y-87390229D02*
X163780000Y-81790229D01*
%TO.N,SWCLK*%
X162840000Y-85433332D02*
X162840000Y-99160000D01*
X166380024Y-81894788D02*
X166380022Y-81894786D01*
X166380022Y-81894786D02*
X166378546Y-81894786D01*
X166378546Y-81894786D02*
X162840000Y-85433332D01*
%TD*%
%TA.AperFunction,Conductor*%
%TO.N,GND*%
G36*
X164674787Y-82077773D02*
G01*
X164675454Y-82076527D01*
X164680825Y-82079398D01*
X164823087Y-82138324D01*
X164826503Y-82139739D01*
X164883012Y-82150979D01*
X164980863Y-82170444D01*
X165042774Y-82202829D01*
X165077349Y-82263545D01*
X165073609Y-82333314D01*
X165044353Y-82379742D01*
X162471286Y-84952810D01*
X162359481Y-85064614D01*
X162359480Y-85064616D01*
X162316771Y-85138592D01*
X162309361Y-85151426D01*
X162309359Y-85151428D01*
X162280425Y-85201541D01*
X162280424Y-85201542D01*
X162280423Y-85201547D01*
X162239499Y-85354275D01*
X162239499Y-85354277D01*
X162239499Y-85522378D01*
X162239500Y-85522391D01*
X162239500Y-97685500D01*
X162219815Y-97752539D01*
X162167011Y-97798294D01*
X162115501Y-97809500D01*
X161942130Y-97809500D01*
X161942123Y-97809501D01*
X161882516Y-97815908D01*
X161747671Y-97866202D01*
X161747664Y-97866206D01*
X161632455Y-97952452D01*
X161632452Y-97952455D01*
X161546206Y-98067664D01*
X161546202Y-98067671D01*
X161495908Y-98202517D01*
X161489501Y-98262116D01*
X161489500Y-98262135D01*
X161489500Y-100057870D01*
X161489501Y-100057876D01*
X161496738Y-100125196D01*
X161495342Y-100125345D01*
X161492050Y-100186756D01*
X161451182Y-100243427D01*
X161386163Y-100269007D01*
X161375114Y-100269500D01*
X157765019Y-100269500D01*
X157697980Y-100249815D01*
X157652225Y-100197011D01*
X157642281Y-100127853D01*
X157654534Y-100089205D01*
X157679714Y-100039786D01*
X157741557Y-99918412D01*
X157807246Y-99716243D01*
X157840500Y-99506287D01*
X157840500Y-99293713D01*
X157807246Y-99083757D01*
X157741557Y-98881588D01*
X157645051Y-98692184D01*
X157645049Y-98692181D01*
X157645048Y-98692179D01*
X157520109Y-98520213D01*
X157369786Y-98369890D01*
X157197820Y-98244951D01*
X157197115Y-98244591D01*
X157189054Y-98240485D01*
X157138259Y-98192512D01*
X157121463Y-98124692D01*
X157143999Y-98058556D01*
X157189054Y-98019515D01*
X157197816Y-98015051D01*
X157283977Y-97952452D01*
X157369786Y-97890109D01*
X157369788Y-97890106D01*
X157369792Y-97890104D01*
X157520104Y-97739792D01*
X157520106Y-97739788D01*
X157520109Y-97739786D01*
X157613022Y-97611900D01*
X157645051Y-97567816D01*
X157648124Y-97561785D01*
X157665235Y-97528205D01*
X157713209Y-97477409D01*
X157775719Y-97460500D01*
X158253331Y-97460500D01*
X158253347Y-97460501D01*
X158260943Y-97460501D01*
X158419054Y-97460501D01*
X158419057Y-97460501D01*
X158571785Y-97419577D01*
X158621904Y-97390639D01*
X158708716Y-97340520D01*
X158820520Y-97228716D01*
X158820520Y-97228714D01*
X158830728Y-97218507D01*
X158830729Y-97218504D01*
X159064661Y-96984572D01*
X159125983Y-96951089D01*
X159128150Y-96950638D01*
X159186085Y-96939113D01*
X159283497Y-96919737D01*
X159429179Y-96859394D01*
X159560289Y-96771789D01*
X159671789Y-96660289D01*
X159759394Y-96529179D01*
X159819737Y-96383497D01*
X159850500Y-96228842D01*
X159850500Y-96071158D01*
X159850500Y-96071155D01*
X159850499Y-96071153D01*
X159819738Y-95916510D01*
X159819738Y-95916508D01*
X159819737Y-95916503D01*
X159819735Y-95916498D01*
X159759397Y-95770827D01*
X159759390Y-95770814D01*
X159671789Y-95639711D01*
X159671786Y-95639707D01*
X159560292Y-95528213D01*
X159560288Y-95528210D01*
X159429185Y-95440609D01*
X159429172Y-95440602D01*
X159283501Y-95380264D01*
X159283489Y-95380261D01*
X159128845Y-95349500D01*
X159128842Y-95349500D01*
X158971158Y-95349500D01*
X158971155Y-95349500D01*
X158816510Y-95380261D01*
X158816498Y-95380264D01*
X158670827Y-95440602D01*
X158670814Y-95440609D01*
X158539711Y-95528210D01*
X158539707Y-95528213D01*
X158428213Y-95639707D01*
X158428210Y-95639711D01*
X158340609Y-95770814D01*
X158340602Y-95770827D01*
X158280264Y-95916498D01*
X158280261Y-95916508D01*
X158249362Y-96071847D01*
X158216977Y-96133758D01*
X158215427Y-96135335D01*
X158127584Y-96223180D01*
X158066261Y-96256666D01*
X158039902Y-96259500D01*
X157775719Y-96259500D01*
X157708680Y-96239815D01*
X157665235Y-96191795D01*
X157645052Y-96152185D01*
X157645051Y-96152184D01*
X157520109Y-95980213D01*
X157369786Y-95829890D01*
X157197817Y-95704949D01*
X157188504Y-95700204D01*
X157137707Y-95652230D01*
X157120912Y-95584409D01*
X157143449Y-95518274D01*
X157188507Y-95479232D01*
X157197555Y-95474622D01*
X157251716Y-95435270D01*
X157251717Y-95435270D01*
X156619408Y-94802962D01*
X156682993Y-94785925D01*
X156797007Y-94720099D01*
X156890099Y-94627007D01*
X156955925Y-94512993D01*
X156972962Y-94449408D01*
X157605270Y-95081717D01*
X157605270Y-95081716D01*
X157644622Y-95027554D01*
X157741095Y-94838217D01*
X157806757Y-94636130D01*
X157806757Y-94636127D01*
X157840000Y-94426246D01*
X157840000Y-94213753D01*
X157806757Y-94003872D01*
X157806757Y-94003869D01*
X157741095Y-93801782D01*
X157644624Y-93612449D01*
X157605270Y-93558282D01*
X157605269Y-93558282D01*
X156972962Y-94190590D01*
X156955925Y-94127007D01*
X156890099Y-94012993D01*
X156797007Y-93919901D01*
X156682993Y-93854075D01*
X156619409Y-93837037D01*
X157251716Y-93204728D01*
X157197547Y-93165373D01*
X157197547Y-93165372D01*
X157188500Y-93160763D01*
X157137706Y-93112788D01*
X157120912Y-93044966D01*
X157143451Y-92978832D01*
X157188508Y-92939793D01*
X157197816Y-92935051D01*
X157286096Y-92870912D01*
X157369786Y-92810109D01*
X157369788Y-92810106D01*
X157369792Y-92810104D01*
X157520104Y-92659792D01*
X157639998Y-92494769D01*
X157695326Y-92452105D01*
X157764939Y-92446125D01*
X157798760Y-92458293D01*
X157800822Y-92459395D01*
X157946498Y-92519735D01*
X157946503Y-92519737D01*
X158101153Y-92550499D01*
X158101156Y-92550500D01*
X158101158Y-92550500D01*
X158258844Y-92550500D01*
X158258845Y-92550499D01*
X158413497Y-92519737D01*
X158559179Y-92459394D01*
X158690289Y-92371789D01*
X158801789Y-92260289D01*
X158889394Y-92129179D01*
X158949737Y-91983497D01*
X158980500Y-91828842D01*
X158980500Y-91671158D01*
X158980500Y-91671155D01*
X158980499Y-91671153D01*
X158949737Y-91516503D01*
X158949735Y-91516498D01*
X158889397Y-91370827D01*
X158889390Y-91370814D01*
X158801398Y-91239125D01*
X158780520Y-91172447D01*
X158780500Y-91170234D01*
X158780500Y-87690326D01*
X158800185Y-87623287D01*
X158816819Y-87602645D01*
X161282444Y-85137020D01*
X163794662Y-82624801D01*
X163855983Y-82591318D01*
X163858150Y-82590867D01*
X163916085Y-82579342D01*
X164013497Y-82559966D01*
X164159179Y-82499623D01*
X164290289Y-82412018D01*
X164401789Y-82300518D01*
X164489394Y-82169408D01*
X164502269Y-82138323D01*
X164546108Y-82083919D01*
X164612402Y-82061852D01*
X164674787Y-82077773D01*
G37*
%TD.AperFunction*%
%TA.AperFunction,Conductor*%
G36*
X166495270Y-99921717D02*
G01*
X166495270Y-99921716D01*
X166534622Y-99867555D01*
X166539232Y-99858507D01*
X166587205Y-99807709D01*
X166655025Y-99790912D01*
X166721161Y-99813447D01*
X166760204Y-99858504D01*
X166764949Y-99867817D01*
X166889890Y-100039786D01*
X166907923Y-100057819D01*
X166941408Y-100119142D01*
X166936424Y-100188834D01*
X166894552Y-100244767D01*
X166829088Y-100269184D01*
X166820242Y-100269500D01*
X166187308Y-100269500D01*
X166120269Y-100249815D01*
X166099627Y-100233181D01*
X165509408Y-99642962D01*
X165572993Y-99625925D01*
X165687007Y-99560099D01*
X165780099Y-99467007D01*
X165845925Y-99352993D01*
X165862962Y-99289408D01*
X166495270Y-99921717D01*
G37*
%TD.AperFunction*%
%TA.AperFunction,Conductor*%
G36*
X169750927Y-80977199D02*
G01*
X169796682Y-81030003D01*
X169806626Y-81099161D01*
X169777601Y-81162717D01*
X169771569Y-81169195D01*
X169103389Y-81837374D01*
X169042066Y-81870859D01*
X168972374Y-81865875D01*
X168945963Y-81850683D01*
X168945354Y-81851595D01*
X168809185Y-81760609D01*
X168809172Y-81760602D01*
X168663501Y-81700264D01*
X168663489Y-81700261D01*
X168508845Y-81669500D01*
X168508842Y-81669500D01*
X168351158Y-81669500D01*
X168351155Y-81669500D01*
X168196510Y-81700261D01*
X168196498Y-81700264D01*
X168050827Y-81760602D01*
X168050814Y-81760609D01*
X167919711Y-81848210D01*
X167919707Y-81848213D01*
X167808213Y-81959707D01*
X167808210Y-81959711D01*
X167720609Y-82090814D01*
X167720602Y-82090827D01*
X167660264Y-82236498D01*
X167660261Y-82236510D01*
X167629500Y-82391153D01*
X167629500Y-82548846D01*
X167660261Y-82703489D01*
X167660264Y-82703501D01*
X167720602Y-82849172D01*
X167720609Y-82849185D01*
X167808210Y-82980288D01*
X167808213Y-82980292D01*
X167919709Y-83091788D01*
X167929076Y-83098046D01*
X167944389Y-83108278D01*
X167989195Y-83161888D01*
X167999500Y-83211381D01*
X167999500Y-89783330D01*
X167999499Y-89783348D01*
X167999499Y-89949054D01*
X167999498Y-89949054D01*
X167999499Y-89949057D01*
X168040423Y-90101785D01*
X168054769Y-90126632D01*
X168097909Y-90201354D01*
X168119479Y-90238715D01*
X168238349Y-90357585D01*
X168238355Y-90357590D01*
X169955425Y-92074660D01*
X169988910Y-92135983D01*
X169989361Y-92138149D01*
X170020261Y-92293491D01*
X170020264Y-92293501D01*
X170080602Y-92439172D01*
X170080609Y-92439185D01*
X170168210Y-92570288D01*
X170168213Y-92570292D01*
X170279707Y-92681786D01*
X170279711Y-92681789D01*
X170410814Y-92769390D01*
X170410827Y-92769397D01*
X170556498Y-92829735D01*
X170556503Y-92829737D01*
X170711153Y-92860499D01*
X170711156Y-92860500D01*
X170711158Y-92860500D01*
X170868844Y-92860500D01*
X170868845Y-92860499D01*
X171023497Y-92829737D01*
X171169179Y-92769394D01*
X171300289Y-92681789D01*
X171411789Y-92570289D01*
X171499394Y-92439179D01*
X171559737Y-92293497D01*
X171590500Y-92138842D01*
X171590500Y-91981158D01*
X171590500Y-91981155D01*
X171590499Y-91981153D01*
X171571629Y-91886287D01*
X171559737Y-91826503D01*
X171559735Y-91826498D01*
X171499397Y-91680827D01*
X171499390Y-91680814D01*
X171411789Y-91549711D01*
X171411786Y-91549707D01*
X171300292Y-91438213D01*
X171300288Y-91438210D01*
X171169185Y-91350609D01*
X171169172Y-91350602D01*
X171023501Y-91290264D01*
X171023491Y-91290261D01*
X170868151Y-91259362D01*
X170806241Y-91226977D01*
X170804662Y-91225426D01*
X169236819Y-89657583D01*
X169203334Y-89596260D01*
X169200500Y-89569902D01*
X169200500Y-86914500D01*
X169220185Y-86847461D01*
X169272989Y-86801706D01*
X169324500Y-86790500D01*
X169338844Y-86790500D01*
X169338845Y-86790499D01*
X169493497Y-86759737D01*
X169639179Y-86699394D01*
X169770289Y-86611789D01*
X169881789Y-86500289D01*
X169969394Y-86369179D01*
X170029737Y-86223497D01*
X170060500Y-86068842D01*
X170060500Y-85911158D01*
X170060500Y-85911155D01*
X170060499Y-85911153D01*
X170029738Y-85756510D01*
X170029737Y-85756503D01*
X170020180Y-85733429D01*
X169969397Y-85610827D01*
X169969390Y-85610814D01*
X169881789Y-85479711D01*
X169881786Y-85479707D01*
X169836819Y-85434740D01*
X169803334Y-85373417D01*
X169800500Y-85347059D01*
X169800500Y-82890097D01*
X169820185Y-82823058D01*
X169836819Y-82802416D01*
X170168896Y-82470339D01*
X170550391Y-82088843D01*
X170611712Y-82055360D01*
X170681403Y-82060344D01*
X170701434Y-82070595D01*
X170701492Y-82070487D01*
X170706863Y-82073358D01*
X170793853Y-82109390D01*
X170852541Y-82133699D01*
X171007191Y-82164461D01*
X171007194Y-82164462D01*
X171007196Y-82164462D01*
X171164882Y-82164462D01*
X171164883Y-82164461D01*
X171319535Y-82133699D01*
X171434873Y-82085925D01*
X171465210Y-82073359D01*
X171465210Y-82073358D01*
X171465217Y-82073356D01*
X171465222Y-82073352D01*
X171465225Y-82073351D01*
X171542392Y-82021789D01*
X171578129Y-81997910D01*
X171644804Y-81977032D01*
X171712185Y-81995516D01*
X171734700Y-82013331D01*
X172483181Y-82761812D01*
X172516666Y-82823135D01*
X172519500Y-82849493D01*
X172519500Y-88003330D01*
X172519499Y-88003348D01*
X172519499Y-88169054D01*
X172519498Y-88169054D01*
X172535272Y-88227923D01*
X172560423Y-88321785D01*
X172578658Y-88353368D01*
X172619206Y-88423600D01*
X172639479Y-88458715D01*
X172758349Y-88577585D01*
X172758355Y-88577590D01*
X172936241Y-88755476D01*
X172969726Y-88816799D01*
X172966492Y-88881473D01*
X172952753Y-88923757D01*
X172919500Y-89133713D01*
X172919500Y-89346287D01*
X172952754Y-89556243D01*
X172965756Y-89596260D01*
X173018444Y-89758414D01*
X173114951Y-89947820D01*
X173239890Y-90119786D01*
X173390213Y-90270109D01*
X173562182Y-90395050D01*
X173570946Y-90399516D01*
X173621742Y-90447491D01*
X173638536Y-90515312D01*
X173615998Y-90581447D01*
X173570946Y-90620484D01*
X173562182Y-90624949D01*
X173390213Y-90749890D01*
X173239890Y-90900213D01*
X173114951Y-91072179D01*
X173018444Y-91261585D01*
X172952753Y-91463760D01*
X172919500Y-91673713D01*
X172919500Y-91886286D01*
X172949335Y-92074660D01*
X172952754Y-92096243D01*
X173016847Y-92293501D01*
X173018444Y-92298414D01*
X173114951Y-92487820D01*
X173239890Y-92659786D01*
X173390213Y-92810109D01*
X173562179Y-92935048D01*
X173562181Y-92935049D01*
X173562184Y-92935051D01*
X173571493Y-92939794D01*
X173622290Y-92987766D01*
X173639087Y-93055587D01*
X173616552Y-93121722D01*
X173571505Y-93160760D01*
X173562446Y-93165376D01*
X173562440Y-93165380D01*
X173508282Y-93204727D01*
X173508282Y-93204728D01*
X174140591Y-93837037D01*
X174077007Y-93854075D01*
X173962993Y-93919901D01*
X173869901Y-94012993D01*
X173804075Y-94127007D01*
X173787037Y-94190591D01*
X173154728Y-93558282D01*
X173134314Y-93559889D01*
X173122743Y-93568812D01*
X173053129Y-93574790D01*
X172991335Y-93542182D01*
X172963196Y-93500712D01*
X172909397Y-93370826D01*
X172909390Y-93370814D01*
X172821789Y-93239711D01*
X172821786Y-93239707D01*
X172710292Y-93128213D01*
X172710288Y-93128210D01*
X172579185Y-93040609D01*
X172579172Y-93040602D01*
X172433501Y-92980264D01*
X172433489Y-92980261D01*
X172278845Y-92949500D01*
X172278842Y-92949500D01*
X172121158Y-92949500D01*
X172121155Y-92949500D01*
X171966510Y-92980261D01*
X171966498Y-92980264D01*
X171820827Y-93040602D01*
X171820814Y-93040609D01*
X171689711Y-93128210D01*
X171689707Y-93128213D01*
X171578213Y-93239707D01*
X171578210Y-93239711D01*
X171490609Y-93370814D01*
X171490602Y-93370827D01*
X171430264Y-93516498D01*
X171430261Y-93516510D01*
X171399500Y-93671153D01*
X171399500Y-93828846D01*
X171430261Y-93983489D01*
X171430264Y-93983501D01*
X171490602Y-94129172D01*
X171490609Y-94129185D01*
X171578602Y-94260874D01*
X171599480Y-94327551D01*
X171599500Y-94329765D01*
X171599500Y-97243330D01*
X171599499Y-97243348D01*
X171599499Y-97409054D01*
X171599498Y-97409054D01*
X171640423Y-97561785D01*
X171669358Y-97611900D01*
X171669359Y-97611904D01*
X171669360Y-97611904D01*
X171719479Y-97698714D01*
X171719481Y-97698717D01*
X171838349Y-97817585D01*
X171838355Y-97817590D01*
X172936241Y-98915476D01*
X172969726Y-98976799D01*
X172966492Y-99041473D01*
X172952753Y-99083757D01*
X172940678Y-99159999D01*
X172919500Y-99293713D01*
X172919500Y-99506287D01*
X172952754Y-99716243D01*
X173002003Y-99867816D01*
X173018444Y-99918414D01*
X173105466Y-100089205D01*
X173118362Y-100157875D01*
X173092086Y-100222615D01*
X173034979Y-100262872D01*
X172994981Y-100269500D01*
X169019758Y-100269500D01*
X168952719Y-100249815D01*
X168906964Y-100197011D01*
X168897020Y-100127853D01*
X168926045Y-100064297D01*
X168932077Y-100057819D01*
X168950104Y-100039792D01*
X168950106Y-100039788D01*
X168950109Y-100039786D01*
X169075048Y-99867820D01*
X169075050Y-99867817D01*
X169075051Y-99867816D01*
X169171557Y-99678412D01*
X169237246Y-99476243D01*
X169270500Y-99266287D01*
X169270500Y-99053713D01*
X169237246Y-98843757D01*
X169171557Y-98641588D01*
X169075051Y-98452184D01*
X169075049Y-98452181D01*
X169075048Y-98452179D01*
X168950109Y-98280213D01*
X168799786Y-98129890D01*
X168627820Y-98004951D01*
X168438414Y-97908444D01*
X168438413Y-97908443D01*
X168438412Y-97908443D01*
X168236243Y-97842754D01*
X168236241Y-97842753D01*
X168236240Y-97842753D01*
X168074957Y-97817208D01*
X168026287Y-97809500D01*
X167813713Y-97809500D01*
X167765042Y-97817208D01*
X167603760Y-97842753D01*
X167401585Y-97908444D01*
X167212179Y-98004951D01*
X167040213Y-98129890D01*
X166889890Y-98280213D01*
X166764949Y-98452182D01*
X166760202Y-98461499D01*
X166712227Y-98512293D01*
X166644405Y-98529087D01*
X166578271Y-98506548D01*
X166539234Y-98461495D01*
X166534626Y-98452452D01*
X166495270Y-98398282D01*
X166495269Y-98398282D01*
X165862962Y-99030590D01*
X165845925Y-98967007D01*
X165780099Y-98852993D01*
X165687007Y-98759901D01*
X165572993Y-98694075D01*
X165509409Y-98677037D01*
X166141716Y-98044728D01*
X166087550Y-98005375D01*
X165898217Y-97908904D01*
X165696129Y-97843242D01*
X165486246Y-97810000D01*
X165273754Y-97810000D01*
X165063872Y-97843242D01*
X165063869Y-97843242D01*
X164861782Y-97908904D01*
X164672439Y-98005380D01*
X164618282Y-98044727D01*
X164618282Y-98044728D01*
X165250591Y-98677037D01*
X165187007Y-98694075D01*
X165072993Y-98759901D01*
X164979901Y-98852993D01*
X164914075Y-98967007D01*
X164897037Y-99030591D01*
X164226818Y-98360372D01*
X164193333Y-98299049D01*
X164193330Y-98299036D01*
X164190499Y-98286015D01*
X164190499Y-98262128D01*
X164184091Y-98202517D01*
X164150165Y-98111557D01*
X164133798Y-98067673D01*
X164133793Y-98067664D01*
X164047547Y-97952455D01*
X164047544Y-97952452D01*
X163932335Y-97866206D01*
X163932328Y-97866202D01*
X163797482Y-97815908D01*
X163797483Y-97815908D01*
X163737883Y-97809501D01*
X163737881Y-97809500D01*
X163737873Y-97809500D01*
X163737865Y-97809500D01*
X163564500Y-97809500D01*
X163497461Y-97789815D01*
X163451706Y-97737011D01*
X163440500Y-97685500D01*
X163440500Y-85733429D01*
X163460185Y-85666390D01*
X163476819Y-85645748D01*
X164856281Y-84266286D01*
X166392840Y-82729727D01*
X166454161Y-82696244D01*
X166456328Y-82695793D01*
X166489306Y-82689232D01*
X166613521Y-82664525D01*
X166759203Y-82604182D01*
X166890313Y-82516577D01*
X167001813Y-82405077D01*
X167089418Y-82273967D01*
X167149761Y-82128285D01*
X167180524Y-81973630D01*
X167180524Y-81815946D01*
X167180524Y-81815943D01*
X167180523Y-81815941D01*
X167173212Y-81779185D01*
X167149761Y-81661291D01*
X167149405Y-81660432D01*
X167089421Y-81515615D01*
X167089414Y-81515602D01*
X167002816Y-81386000D01*
X166981938Y-81319323D01*
X167000422Y-81251943D01*
X167052401Y-81205252D01*
X167121371Y-81194076D01*
X167153368Y-81202547D01*
X167256086Y-81245094D01*
X167396373Y-81272999D01*
X167410736Y-81275856D01*
X167410739Y-81275857D01*
X167410741Y-81275857D01*
X167568427Y-81275857D01*
X167568428Y-81275856D01*
X167723080Y-81245094D01*
X167868762Y-81184751D01*
X167940967Y-81136505D01*
X168000456Y-81096756D01*
X168067133Y-81075878D01*
X168069347Y-81075858D01*
X168101048Y-81075858D01*
X168101051Y-81075858D01*
X168253779Y-81034934D01*
X168332076Y-80989729D01*
X168359107Y-80974123D01*
X168359172Y-80974107D01*
X168421101Y-80957514D01*
X169683888Y-80957514D01*
X169750927Y-80977199D01*
G37*
%TD.AperFunction*%
%TA.AperFunction,Conductor*%
G36*
X173804075Y-94512993D02*
G01*
X173869901Y-94627007D01*
X173962993Y-94720099D01*
X174077007Y-94785925D01*
X174140590Y-94802962D01*
X173508282Y-95435269D01*
X173508282Y-95435270D01*
X173562452Y-95474626D01*
X173562451Y-95474626D01*
X173571495Y-95479234D01*
X173622292Y-95527208D01*
X173639087Y-95595029D01*
X173616550Y-95661164D01*
X173571499Y-95700202D01*
X173562182Y-95704949D01*
X173390213Y-95829890D01*
X173239890Y-95980213D01*
X173114951Y-96152180D01*
X173034985Y-96309122D01*
X172987010Y-96359918D01*
X172919189Y-96376713D01*
X172853054Y-96354176D01*
X172809603Y-96299460D01*
X172800500Y-96252827D01*
X172800500Y-94926071D01*
X172820185Y-94859032D01*
X172872989Y-94813277D01*
X172942147Y-94803333D01*
X173005703Y-94832358D01*
X173034985Y-94869776D01*
X173115375Y-95027550D01*
X173154728Y-95081716D01*
X173787037Y-94449408D01*
X173804075Y-94512993D01*
G37*
%TD.AperFunction*%
%TA.AperFunction,Conductor*%
G36*
X175343181Y-95039627D02*
G01*
X175376666Y-95100950D01*
X175379500Y-95127308D01*
X175379500Y-95760242D01*
X175359815Y-95827281D01*
X175307011Y-95873036D01*
X175237853Y-95882980D01*
X175174297Y-95853955D01*
X175167819Y-95847923D01*
X175149786Y-95829890D01*
X174977817Y-95704949D01*
X174968504Y-95700204D01*
X174917707Y-95652230D01*
X174900912Y-95584409D01*
X174923449Y-95518274D01*
X174968507Y-95479232D01*
X174977555Y-95474622D01*
X175031716Y-95435270D01*
X175031717Y-95435270D01*
X174399408Y-94802962D01*
X174462993Y-94785925D01*
X174577007Y-94720099D01*
X174670099Y-94627007D01*
X174735925Y-94512993D01*
X174752962Y-94449408D01*
X175343181Y-95039627D01*
G37*
%TD.AperFunction*%
%TA.AperFunction,Conductor*%
G36*
X156024075Y-94512993D02*
G01*
X156089901Y-94627007D01*
X156182993Y-94720099D01*
X156297007Y-94785925D01*
X156360590Y-94802962D01*
X155728282Y-95435269D01*
X155728282Y-95435270D01*
X155782452Y-95474626D01*
X155782451Y-95474626D01*
X155791495Y-95479234D01*
X155842292Y-95527208D01*
X155859087Y-95595029D01*
X155836550Y-95661164D01*
X155791499Y-95700202D01*
X155782182Y-95704949D01*
X155610213Y-95829890D01*
X155610209Y-95829894D01*
X155592181Y-95847923D01*
X155530858Y-95881408D01*
X155461166Y-95876424D01*
X155405233Y-95834552D01*
X155380816Y-95769088D01*
X155380500Y-95760242D01*
X155380500Y-95127308D01*
X155400185Y-95060269D01*
X155416819Y-95039627D01*
X156007037Y-94449408D01*
X156024075Y-94512993D01*
G37*
%TD.AperFunction*%
%TA.AperFunction,Conductor*%
G36*
X155585703Y-92786045D02*
G01*
X155592181Y-92792077D01*
X155610213Y-92810109D01*
X155782179Y-92935048D01*
X155782181Y-92935049D01*
X155782184Y-92935051D01*
X155791493Y-92939794D01*
X155842290Y-92987766D01*
X155859087Y-93055587D01*
X155836552Y-93121722D01*
X155791505Y-93160760D01*
X155782446Y-93165376D01*
X155782440Y-93165380D01*
X155728282Y-93204727D01*
X155728282Y-93204728D01*
X156360591Y-93837037D01*
X156297007Y-93854075D01*
X156182993Y-93919901D01*
X156089901Y-94012993D01*
X156024075Y-94127007D01*
X156007037Y-94190591D01*
X155416819Y-93600373D01*
X155383334Y-93539050D01*
X155380500Y-93512692D01*
X155380500Y-92879758D01*
X155400185Y-92812719D01*
X155452989Y-92766964D01*
X155522147Y-92757020D01*
X155585703Y-92786045D01*
G37*
%TD.AperFunction*%
%TA.AperFunction,Conductor*%
G36*
X175298834Y-92763576D02*
G01*
X175354767Y-92805448D01*
X175379184Y-92870912D01*
X175379500Y-92879758D01*
X175379500Y-93512692D01*
X175359815Y-93579731D01*
X175343181Y-93600373D01*
X174752962Y-94190591D01*
X174735925Y-94127007D01*
X174670099Y-94012993D01*
X174577007Y-93919901D01*
X174462993Y-93854075D01*
X174399409Y-93837037D01*
X175031716Y-93204728D01*
X174977547Y-93165373D01*
X174977547Y-93165372D01*
X174968500Y-93160763D01*
X174917706Y-93112788D01*
X174900912Y-93044966D01*
X174923451Y-92978832D01*
X174968508Y-92939793D01*
X174977816Y-92935051D01*
X175066096Y-92870912D01*
X175149786Y-92810109D01*
X175149788Y-92810106D01*
X175149792Y-92810104D01*
X175167819Y-92792077D01*
X175229142Y-92758592D01*
X175298834Y-92763576D01*
G37*
%TD.AperFunction*%
%TA.AperFunction,Conductor*%
G36*
X160356095Y-81203573D02*
G01*
X160370567Y-81211929D01*
X160523295Y-81252853D01*
X160523298Y-81252853D01*
X160689005Y-81252853D01*
X160689021Y-81252852D01*
X161682254Y-81252852D01*
X161749293Y-81272537D01*
X161769935Y-81289171D01*
X161811284Y-81330520D01*
X161811286Y-81330521D01*
X161811290Y-81330524D01*
X161904779Y-81384499D01*
X161948216Y-81409577D01*
X162060019Y-81439534D01*
X162100942Y-81450500D01*
X162100943Y-81450500D01*
X162287961Y-81450500D01*
X162355000Y-81470185D01*
X162356852Y-81471398D01*
X162473944Y-81549637D01*
X162473957Y-81549644D01*
X162619628Y-81609982D01*
X162619633Y-81609984D01*
X162774283Y-81640746D01*
X162774286Y-81640747D01*
X162780885Y-81640747D01*
X162847924Y-81660432D01*
X162893679Y-81713236D01*
X162903623Y-81782394D01*
X162874598Y-81845950D01*
X162868566Y-81852428D01*
X158051618Y-86669374D01*
X157990295Y-86702859D01*
X157920603Y-86697875D01*
X157864670Y-86656003D01*
X157842898Y-86598265D01*
X157841262Y-86598525D01*
X157807246Y-86383760D01*
X157807246Y-86383757D01*
X157741557Y-86181588D01*
X157645051Y-85992184D01*
X157645049Y-85992181D01*
X157645048Y-85992179D01*
X157520109Y-85820213D01*
X157369786Y-85669890D01*
X157197820Y-85544951D01*
X157197115Y-85544591D01*
X157189054Y-85540485D01*
X157138259Y-85492512D01*
X157121463Y-85424692D01*
X157143999Y-85358556D01*
X157189054Y-85319515D01*
X157197816Y-85315051D01*
X157273921Y-85259758D01*
X157369786Y-85190109D01*
X157369788Y-85190106D01*
X157369792Y-85190104D01*
X157520104Y-85039792D01*
X157520106Y-85039788D01*
X157520109Y-85039786D01*
X157645048Y-84867820D01*
X157645047Y-84867820D01*
X157645051Y-84867816D01*
X157741557Y-84678412D01*
X157807246Y-84476243D01*
X157840500Y-84266287D01*
X157840500Y-84053713D01*
X157807246Y-83843757D01*
X157741557Y-83641588D01*
X157645051Y-83452184D01*
X157645049Y-83452181D01*
X157645048Y-83452179D01*
X157520109Y-83280213D01*
X157369786Y-83129890D01*
X157197817Y-83004949D01*
X157188504Y-83000204D01*
X157137707Y-82952230D01*
X157120912Y-82884409D01*
X157143449Y-82818274D01*
X157188507Y-82779232D01*
X157197555Y-82774622D01*
X157251716Y-82735270D01*
X157251717Y-82735270D01*
X156619408Y-82102962D01*
X156682993Y-82085925D01*
X156797007Y-82020099D01*
X156890099Y-81927007D01*
X156955925Y-81812993D01*
X156972962Y-81749408D01*
X157605270Y-82381717D01*
X157605270Y-82381716D01*
X157644622Y-82327554D01*
X157741095Y-82138217D01*
X157806757Y-81936130D01*
X157806757Y-81936127D01*
X157840000Y-81726246D01*
X157840000Y-81578597D01*
X157859685Y-81511558D01*
X157912489Y-81465803D01*
X157981647Y-81455859D01*
X158045203Y-81484884D01*
X158051681Y-81490916D01*
X158325139Y-81764374D01*
X158325149Y-81764385D01*
X158329479Y-81768715D01*
X158329480Y-81768716D01*
X158441284Y-81880520D01*
X158441286Y-81880521D01*
X158441290Y-81880524D01*
X158537599Y-81936127D01*
X158578216Y-81959577D01*
X158675899Y-81985751D01*
X158730942Y-82000500D01*
X158730943Y-82000500D01*
X158798236Y-82000500D01*
X158806169Y-82001528D01*
X158831121Y-82012505D01*
X158857273Y-82020185D01*
X158859125Y-82021398D01*
X158990814Y-82109390D01*
X158990827Y-82109397D01*
X159123768Y-82164462D01*
X159136503Y-82169737D01*
X159291153Y-82200499D01*
X159291156Y-82200500D01*
X159291158Y-82200500D01*
X159448844Y-82200500D01*
X159448845Y-82200499D01*
X159603497Y-82169737D01*
X159749179Y-82109394D01*
X159880289Y-82021789D01*
X159991789Y-81910289D01*
X160079394Y-81779179D01*
X160139737Y-81633497D01*
X160170500Y-81478842D01*
X160170500Y-81321158D01*
X160170500Y-81315066D01*
X160172223Y-81315066D01*
X160183701Y-81254488D01*
X160231758Y-81203769D01*
X160299606Y-81187084D01*
X160356095Y-81203573D01*
G37*
%TD.AperFunction*%
%TA.AperFunction,Conductor*%
G36*
X175343181Y-82339627D02*
G01*
X175376666Y-82400950D01*
X175379500Y-82427308D01*
X175379500Y-83060242D01*
X175359815Y-83127281D01*
X175307011Y-83173036D01*
X175237853Y-83182980D01*
X175174297Y-83153955D01*
X175167819Y-83147923D01*
X175149786Y-83129890D01*
X174977817Y-83004949D01*
X174968504Y-83000204D01*
X174917707Y-82952230D01*
X174900912Y-82884409D01*
X174923449Y-82818274D01*
X174968507Y-82779232D01*
X174977555Y-82774622D01*
X175031716Y-82735270D01*
X175031717Y-82735270D01*
X174399408Y-82102962D01*
X174462993Y-82085925D01*
X174577007Y-82020099D01*
X174670099Y-81927007D01*
X174735925Y-81812993D01*
X174752962Y-81749408D01*
X175343181Y-82339627D01*
G37*
%TD.AperFunction*%
%TA.AperFunction,Conductor*%
G36*
X156024075Y-81812993D02*
G01*
X156089901Y-81927007D01*
X156182993Y-82020099D01*
X156297007Y-82085925D01*
X156360590Y-82102962D01*
X155728282Y-82735269D01*
X155728282Y-82735270D01*
X155782452Y-82774626D01*
X155782451Y-82774626D01*
X155791495Y-82779234D01*
X155842292Y-82827208D01*
X155859087Y-82895029D01*
X155836550Y-82961164D01*
X155791499Y-83000202D01*
X155782182Y-83004949D01*
X155610213Y-83129890D01*
X155610209Y-83129894D01*
X155592181Y-83147923D01*
X155530858Y-83181408D01*
X155461166Y-83176424D01*
X155405233Y-83134552D01*
X155380816Y-83069088D01*
X155380500Y-83060242D01*
X155380500Y-82427308D01*
X155400185Y-82360269D01*
X155416819Y-82339627D01*
X156007037Y-81749408D01*
X156024075Y-81812993D01*
G37*
%TD.AperFunction*%
%TA.AperFunction,Conductor*%
G36*
X155508814Y-80058936D02*
G01*
X155522147Y-80057020D01*
X155542290Y-80066219D01*
X155563927Y-80070926D01*
X155582597Y-80084626D01*
X155585703Y-80086045D01*
X155590063Y-80090105D01*
X155590495Y-80090422D01*
X155591324Y-80091220D01*
X155610208Y-80110104D01*
X155613198Y-80112276D01*
X155613203Y-80112281D01*
X155782179Y-80235048D01*
X155782181Y-80235049D01*
X155782184Y-80235051D01*
X155791493Y-80239794D01*
X155842290Y-80287766D01*
X155859087Y-80355587D01*
X155836552Y-80421722D01*
X155791505Y-80460760D01*
X155782446Y-80465376D01*
X155782440Y-80465380D01*
X155728282Y-80504727D01*
X155728282Y-80504728D01*
X156360591Y-81137037D01*
X156297007Y-81154075D01*
X156182993Y-81219901D01*
X156089901Y-81312993D01*
X156024075Y-81427007D01*
X156007037Y-81490591D01*
X155416819Y-80900373D01*
X155383334Y-80839050D01*
X155380500Y-80812692D01*
X155380500Y-80179758D01*
X155386738Y-80158512D01*
X155388318Y-80136424D01*
X155396390Y-80125640D01*
X155400185Y-80112719D01*
X155416918Y-80098219D01*
X155430190Y-80080491D01*
X155442810Y-80075783D01*
X155452989Y-80066964D01*
X155474906Y-80063812D01*
X155495654Y-80056074D01*
X155508814Y-80058936D01*
G37*
%TD.AperFunction*%
%TA.AperFunction,Conductor*%
G36*
X172971070Y-79656069D02*
G01*
X172999172Y-79654865D01*
X173005448Y-79658528D01*
X173012700Y-79659047D01*
X173035220Y-79675906D01*
X173059514Y-79690086D01*
X173065607Y-79698654D01*
X173068633Y-79700919D01*
X173078582Y-79716897D01*
X173079378Y-79718016D01*
X173079683Y-79718603D01*
X173114949Y-79787816D01*
X173117512Y-79791344D01*
X173117516Y-79791351D01*
X173239890Y-79959786D01*
X173390213Y-80110109D01*
X173562179Y-80235048D01*
X173562181Y-80235049D01*
X173562184Y-80235051D01*
X173571493Y-80239794D01*
X173622290Y-80287766D01*
X173639087Y-80355587D01*
X173616552Y-80421722D01*
X173571505Y-80460760D01*
X173562446Y-80465376D01*
X173562440Y-80465380D01*
X173508282Y-80504727D01*
X173508282Y-80504728D01*
X174140591Y-81137037D01*
X174077007Y-81154075D01*
X173962993Y-81219901D01*
X173869901Y-81312993D01*
X173804075Y-81427007D01*
X173787037Y-81490591D01*
X173154728Y-80858282D01*
X173154727Y-80858282D01*
X173115380Y-80912439D01*
X173018905Y-81101781D01*
X172959481Y-81284668D01*
X172920043Y-81342343D01*
X172855684Y-81369541D01*
X172786838Y-81357626D01*
X172753869Y-81334030D01*
X171997195Y-80577356D01*
X171963710Y-80516033D01*
X171968694Y-80446341D01*
X172010566Y-80390408D01*
X172042176Y-80373259D01*
X172047394Y-80371345D01*
X172173920Y-80337442D01*
X172224039Y-80308504D01*
X172310851Y-80258385D01*
X172422655Y-80146581D01*
X172422655Y-80146579D01*
X172432863Y-80136372D01*
X172432865Y-80136369D01*
X172881687Y-79687546D01*
X172906375Y-79674065D01*
X172929367Y-79657858D01*
X172936628Y-79657546D01*
X172943008Y-79654063D01*
X172971070Y-79656069D01*
G37*
%TD.AperFunction*%
%TA.AperFunction,Conductor*%
G36*
X175298834Y-80063576D02*
G01*
X175354767Y-80105448D01*
X175379184Y-80170912D01*
X175379500Y-80179758D01*
X175379500Y-80812692D01*
X175359815Y-80879731D01*
X175343181Y-80900373D01*
X174752962Y-81490591D01*
X174735925Y-81427007D01*
X174670099Y-81312993D01*
X174577007Y-81219901D01*
X174462993Y-81154075D01*
X174399409Y-81137037D01*
X175031716Y-80504728D01*
X174977547Y-80465373D01*
X174977547Y-80465372D01*
X174968500Y-80460763D01*
X174917706Y-80412788D01*
X174900912Y-80344966D01*
X174923451Y-80278832D01*
X174968508Y-80239793D01*
X174977816Y-80235051D01*
X175066096Y-80170912D01*
X175149786Y-80110109D01*
X175149788Y-80110106D01*
X175149792Y-80110104D01*
X175167819Y-80092077D01*
X175229142Y-80058592D01*
X175298834Y-80063576D01*
G37*
%TD.AperFunction*%
%TA.AperFunction,Conductor*%
G36*
X166085957Y-77468910D02*
G01*
X166125786Y-77506661D01*
X166128208Y-77510286D01*
X166128213Y-77510292D01*
X166239707Y-77621786D01*
X166239711Y-77621789D01*
X166370814Y-77709390D01*
X166370827Y-77709397D01*
X166516498Y-77769735D01*
X166516503Y-77769737D01*
X166587381Y-77783835D01*
X166638092Y-77793923D01*
X166700003Y-77826308D01*
X166734577Y-77887023D01*
X166730838Y-77956793D01*
X166728463Y-77962990D01*
X166721095Y-77980777D01*
X166721092Y-77980789D01*
X166690331Y-78135432D01*
X166690331Y-78293125D01*
X166721092Y-78447768D01*
X166721095Y-78447780D01*
X166781433Y-78593451D01*
X166781440Y-78593464D01*
X166869041Y-78724567D01*
X166869044Y-78724571D01*
X166980538Y-78836065D01*
X166980542Y-78836068D01*
X167111645Y-78923669D01*
X167111658Y-78923676D01*
X167232460Y-78973713D01*
X167257334Y-78984016D01*
X167268202Y-78986177D01*
X167330112Y-79018558D01*
X167364689Y-79079272D01*
X167360953Y-79149042D01*
X167331696Y-79195476D01*
X167259596Y-79267576D01*
X167171995Y-79398679D01*
X167171988Y-79398692D01*
X167111650Y-79544363D01*
X167111647Y-79544375D01*
X167080886Y-79699018D01*
X167080886Y-79719406D01*
X167061201Y-79786445D01*
X167025778Y-79822508D01*
X166979290Y-79853570D01*
X166867796Y-79965064D01*
X166867793Y-79965068D01*
X166780192Y-80096171D01*
X166780185Y-80096184D01*
X166719847Y-80241855D01*
X166719844Y-80241867D01*
X166689083Y-80396510D01*
X166689083Y-80554203D01*
X166719844Y-80708846D01*
X166719847Y-80708858D01*
X166780185Y-80854529D01*
X166780192Y-80854542D01*
X166866790Y-80984144D01*
X166887668Y-81050821D01*
X166869184Y-81118202D01*
X166817205Y-81164892D01*
X166748235Y-81176068D01*
X166716236Y-81167596D01*
X166613525Y-81125052D01*
X166613513Y-81125049D01*
X166458869Y-81094288D01*
X166458866Y-81094288D01*
X166301182Y-81094288D01*
X166301179Y-81094288D01*
X166146534Y-81125049D01*
X166146522Y-81125052D01*
X166000841Y-81185394D01*
X165997982Y-81186923D01*
X165996314Y-81187270D01*
X165995216Y-81187725D01*
X165995129Y-81187516D01*
X165929578Y-81201159D01*
X165864336Y-81176154D01*
X165824977Y-81125012D01*
X165769397Y-80990829D01*
X165769390Y-80990816D01*
X165681398Y-80859127D01*
X165660520Y-80792449D01*
X165660500Y-80790236D01*
X165660500Y-78095648D01*
X165660500Y-78095646D01*
X165630406Y-77983332D01*
X165629721Y-77980777D01*
X165624955Y-77962990D01*
X165620485Y-77946306D01*
X165622146Y-77876459D01*
X165661307Y-77818596D01*
X165671370Y-77811110D01*
X165697092Y-77793923D01*
X165700289Y-77791787D01*
X165811789Y-77680287D01*
X165899394Y-77549177D01*
X165908123Y-77528100D01*
X165951963Y-77473698D01*
X166018257Y-77451632D01*
X166085957Y-77468910D01*
G37*
%TD.AperFunction*%
%TA.AperFunction,Conductor*%
G36*
X170919413Y-61920185D02*
G01*
X170965168Y-61972989D01*
X170975112Y-62042147D01*
X170946087Y-62105703D01*
X170940055Y-62112181D01*
X170414038Y-62638196D01*
X170414030Y-62638204D01*
X170411286Y-62640949D01*
X170411284Y-62640951D01*
X170299480Y-62752755D01*
X170280018Y-62786465D01*
X170252600Y-62833955D01*
X170244779Y-62847501D01*
X170194212Y-62895716D01*
X170137392Y-62909500D01*
X170101155Y-62909500D01*
X169946510Y-62940261D01*
X169946498Y-62940264D01*
X169800827Y-63000602D01*
X169800814Y-63000609D01*
X169669711Y-63088210D01*
X169669707Y-63088213D01*
X169558213Y-63199707D01*
X169558210Y-63199711D01*
X169470609Y-63330814D01*
X169470602Y-63330827D01*
X169410264Y-63476498D01*
X169410261Y-63476510D01*
X169379500Y-63631153D01*
X169379500Y-63788846D01*
X169410261Y-63943489D01*
X169410264Y-63943501D01*
X169470602Y-64089172D01*
X169470609Y-64089185D01*
X169558602Y-64220874D01*
X169579480Y-64287551D01*
X169579500Y-64289765D01*
X169579500Y-73269902D01*
X169559815Y-73336941D01*
X169543181Y-73357583D01*
X167517181Y-75383583D01*
X167455858Y-75417068D01*
X167386166Y-75412084D01*
X167330233Y-75370212D01*
X167305816Y-75304748D01*
X167305500Y-75295902D01*
X167305500Y-62789765D01*
X167325185Y-62722726D01*
X167326398Y-62720874D01*
X167353385Y-62680486D01*
X167414394Y-62589179D01*
X167474737Y-62443497D01*
X167505500Y-62288842D01*
X167505500Y-62131158D01*
X167505500Y-62131155D01*
X167505499Y-62131153D01*
X167489097Y-62048691D01*
X167495324Y-61979100D01*
X167538187Y-61923922D01*
X167604077Y-61900678D01*
X167610714Y-61900500D01*
X170852374Y-61900500D01*
X170919413Y-61920185D01*
G37*
%TD.AperFunction*%
%TA.AperFunction,Conductor*%
G36*
X158045203Y-56084884D02*
G01*
X158051681Y-56090916D01*
X158433181Y-56472416D01*
X158466666Y-56533739D01*
X158469500Y-56560097D01*
X158469500Y-56840234D01*
X158449815Y-56907273D01*
X158448602Y-56909125D01*
X158360609Y-57040814D01*
X158360602Y-57040827D01*
X158300264Y-57186498D01*
X158300261Y-57186510D01*
X158269500Y-57341153D01*
X158269500Y-57498846D01*
X158300261Y-57653489D01*
X158300264Y-57653501D01*
X158360602Y-57799172D01*
X158360609Y-57799185D01*
X158448210Y-57930288D01*
X158448213Y-57930292D01*
X158559707Y-58041786D01*
X158559711Y-58041789D01*
X158690814Y-58129390D01*
X158690827Y-58129397D01*
X158836498Y-58189735D01*
X158836503Y-58189737D01*
X158957098Y-58213725D01*
X158991153Y-58220499D01*
X158991156Y-58220500D01*
X158991158Y-58220500D01*
X159148841Y-58220500D01*
X159148842Y-58220500D01*
X159182899Y-58213725D01*
X159252487Y-58219951D01*
X159294768Y-58247658D01*
X159308352Y-58261241D01*
X164593181Y-63546070D01*
X164626666Y-63607393D01*
X164629500Y-63633751D01*
X164629500Y-68262152D01*
X164609815Y-68329191D01*
X164557011Y-68374946D01*
X164529692Y-68383769D01*
X164396508Y-68410261D01*
X164396498Y-68410264D01*
X164250827Y-68470602D01*
X164250814Y-68470609D01*
X164119711Y-68558210D01*
X164119707Y-68558213D01*
X164008213Y-68669707D01*
X164008210Y-68669711D01*
X163920609Y-68800814D01*
X163920602Y-68800827D01*
X163860264Y-68946498D01*
X163860261Y-68946508D01*
X163829361Y-69101850D01*
X163796976Y-69163761D01*
X163795425Y-69165339D01*
X160989481Y-71971282D01*
X160989479Y-71971285D01*
X160939361Y-72058094D01*
X160939359Y-72058096D01*
X160910425Y-72108209D01*
X160910424Y-72108210D01*
X160910423Y-72108215D01*
X160869499Y-72260943D01*
X160869499Y-72260945D01*
X160869499Y-72429046D01*
X160869500Y-72429059D01*
X160869500Y-73694096D01*
X160849815Y-73761135D01*
X160797011Y-73806890D01*
X160727853Y-73816834D01*
X160664297Y-73787809D01*
X160657819Y-73781777D01*
X159516819Y-72640777D01*
X159483334Y-72579454D01*
X159480500Y-72553096D01*
X159480500Y-61070945D01*
X159480500Y-61070943D01*
X159479903Y-61068716D01*
X159463679Y-61008165D01*
X159439577Y-60918216D01*
X159428433Y-60898913D01*
X159360524Y-60781290D01*
X159360521Y-60781286D01*
X159360520Y-60781284D01*
X159248716Y-60669480D01*
X159248715Y-60669479D01*
X159244385Y-60665149D01*
X159244374Y-60665139D01*
X157823757Y-59244522D01*
X157790272Y-59183199D01*
X157793507Y-59118523D01*
X157807246Y-59076243D01*
X157840500Y-58866287D01*
X157840500Y-58653713D01*
X157807246Y-58443757D01*
X157741557Y-58241588D01*
X157645051Y-58052184D01*
X157645049Y-58052181D01*
X157645048Y-58052179D01*
X157520109Y-57880213D01*
X157369786Y-57729890D01*
X157197817Y-57604949D01*
X157188504Y-57600204D01*
X157137707Y-57552230D01*
X157120912Y-57484409D01*
X157143449Y-57418274D01*
X157188507Y-57379232D01*
X157197555Y-57374622D01*
X157251716Y-57335270D01*
X157251717Y-57335270D01*
X156619408Y-56702962D01*
X156682993Y-56685925D01*
X156797007Y-56620099D01*
X156890099Y-56527007D01*
X156955925Y-56412993D01*
X156972962Y-56349408D01*
X157605270Y-56981717D01*
X157605270Y-56981716D01*
X157644622Y-56927554D01*
X157741095Y-56738217D01*
X157806757Y-56536130D01*
X157806757Y-56536127D01*
X157840000Y-56326246D01*
X157840000Y-56178597D01*
X157859685Y-56111558D01*
X157912489Y-56065803D01*
X157981647Y-56055859D01*
X158045203Y-56084884D01*
G37*
%TD.AperFunction*%
%TA.AperFunction,Conductor*%
G36*
X175343181Y-69639627D02*
G01*
X175376666Y-69700950D01*
X175379500Y-69727308D01*
X175379500Y-70360242D01*
X175359815Y-70427281D01*
X175307011Y-70473036D01*
X175237853Y-70482980D01*
X175174297Y-70453955D01*
X175167819Y-70447923D01*
X175149786Y-70429890D01*
X174977817Y-70304949D01*
X174968504Y-70300204D01*
X174917707Y-70252230D01*
X174900912Y-70184409D01*
X174923449Y-70118274D01*
X174968507Y-70079232D01*
X174977555Y-70074622D01*
X175031716Y-70035270D01*
X175031717Y-70035270D01*
X174399409Y-69402962D01*
X174462993Y-69385925D01*
X174577007Y-69320099D01*
X174670099Y-69227007D01*
X174735925Y-69112993D01*
X174752962Y-69049408D01*
X175343181Y-69639627D01*
G37*
%TD.AperFunction*%
%TA.AperFunction,Conductor*%
G36*
X156024075Y-69112993D02*
G01*
X156089901Y-69227007D01*
X156182993Y-69320099D01*
X156297007Y-69385925D01*
X156360589Y-69402962D01*
X155728282Y-70035269D01*
X155728282Y-70035270D01*
X155782452Y-70074626D01*
X155782451Y-70074626D01*
X155791495Y-70079234D01*
X155842292Y-70127208D01*
X155859087Y-70195029D01*
X155836550Y-70261164D01*
X155791499Y-70300202D01*
X155782182Y-70304949D01*
X155610213Y-70429890D01*
X155610209Y-70429894D01*
X155592181Y-70447923D01*
X155530858Y-70481408D01*
X155461166Y-70476424D01*
X155405233Y-70434552D01*
X155380816Y-70369088D01*
X155380500Y-70360242D01*
X155380500Y-69727308D01*
X155400185Y-69660269D01*
X155416819Y-69639627D01*
X156007037Y-69049408D01*
X156024075Y-69112993D01*
G37*
%TD.AperFunction*%
%TA.AperFunction,Conductor*%
G36*
X155585703Y-67386045D02*
G01*
X155592181Y-67392077D01*
X155610213Y-67410109D01*
X155782179Y-67535048D01*
X155782181Y-67535049D01*
X155782184Y-67535051D01*
X155791493Y-67539794D01*
X155842290Y-67587766D01*
X155859087Y-67655587D01*
X155836552Y-67721722D01*
X155791505Y-67760760D01*
X155782446Y-67765376D01*
X155782440Y-67765380D01*
X155728282Y-67804727D01*
X155728282Y-67804728D01*
X156360591Y-68437037D01*
X156297007Y-68454075D01*
X156182993Y-68519901D01*
X156089901Y-68612993D01*
X156024075Y-68727007D01*
X156007037Y-68790591D01*
X155416819Y-68200373D01*
X155383334Y-68139050D01*
X155380500Y-68112692D01*
X155380500Y-67479758D01*
X155400185Y-67412719D01*
X155452989Y-67366964D01*
X155522147Y-67357020D01*
X155585703Y-67386045D01*
G37*
%TD.AperFunction*%
%TA.AperFunction,Conductor*%
G36*
X175298834Y-67363576D02*
G01*
X175354767Y-67405448D01*
X175379184Y-67470912D01*
X175379500Y-67479758D01*
X175379500Y-68112692D01*
X175359815Y-68179731D01*
X175343181Y-68200373D01*
X174752962Y-68790591D01*
X174735925Y-68727007D01*
X174670099Y-68612993D01*
X174577007Y-68519901D01*
X174462993Y-68454075D01*
X174399407Y-68437036D01*
X175031716Y-67804728D01*
X174977547Y-67765373D01*
X174977547Y-67765372D01*
X174968500Y-67760763D01*
X174917706Y-67712788D01*
X174900912Y-67644966D01*
X174923451Y-67578832D01*
X174968508Y-67539793D01*
X174977816Y-67535051D01*
X175066096Y-67470912D01*
X175149786Y-67410109D01*
X175149788Y-67410106D01*
X175149792Y-67410104D01*
X175167819Y-67392077D01*
X175229142Y-67358592D01*
X175298834Y-67363576D01*
G37*
%TD.AperFunction*%
%TA.AperFunction,Conductor*%
G36*
X168768099Y-50290185D02*
G01*
X168813854Y-50342989D01*
X168823798Y-50412147D01*
X168815621Y-50441953D01*
X168738429Y-50628310D01*
X168738427Y-50628318D01*
X168700000Y-50821504D01*
X168700000Y-50970000D01*
X169400000Y-50970000D01*
X169400000Y-51470000D01*
X168700000Y-51470000D01*
X168700000Y-51618495D01*
X168738427Y-51811681D01*
X168738430Y-51811693D01*
X168813807Y-51993671D01*
X168813814Y-51993684D01*
X168923248Y-52157462D01*
X168923251Y-52157466D01*
X169062533Y-52296748D01*
X169062537Y-52296751D01*
X169226315Y-52406185D01*
X169226328Y-52406192D01*
X169408308Y-52481569D01*
X169450000Y-52489862D01*
X169450000Y-51686988D01*
X169459940Y-51704205D01*
X169515795Y-51760060D01*
X169584204Y-51799556D01*
X169660504Y-51820000D01*
X169739496Y-51820000D01*
X169815796Y-51799556D01*
X169884205Y-51760060D01*
X169940060Y-51704205D01*
X169950000Y-51686988D01*
X169950000Y-52489862D01*
X169991690Y-52481569D01*
X169991692Y-52481569D01*
X170173671Y-52406192D01*
X170173684Y-52406185D01*
X170337462Y-52296751D01*
X170337466Y-52296748D01*
X170476748Y-52157466D01*
X170476751Y-52157462D01*
X170586185Y-51993684D01*
X170586192Y-51993671D01*
X170661569Y-51811693D01*
X170661572Y-51811681D01*
X170699999Y-51618495D01*
X170700000Y-51618492D01*
X170700000Y-51470000D01*
X170000000Y-51470000D01*
X170000000Y-50970000D01*
X170700000Y-50970000D01*
X170700000Y-50821508D01*
X170699999Y-50821504D01*
X170661572Y-50628318D01*
X170661570Y-50628310D01*
X170584379Y-50441953D01*
X170576910Y-50372483D01*
X170608185Y-50310004D01*
X170668274Y-50274352D01*
X170698940Y-50270500D01*
X172795500Y-50270500D01*
X172862539Y-50290185D01*
X172908294Y-50342989D01*
X172919500Y-50394500D01*
X172919500Y-52037870D01*
X172919501Y-52037876D01*
X172925908Y-52097483D01*
X172976202Y-52232328D01*
X172976206Y-52232335D01*
X173062452Y-52347544D01*
X173062455Y-52347547D01*
X173177664Y-52433793D01*
X173177671Y-52433797D01*
X173309082Y-52482810D01*
X173365016Y-52524681D01*
X173389433Y-52590145D01*
X173374582Y-52658418D01*
X173353431Y-52686673D01*
X173239889Y-52800215D01*
X173114951Y-52972179D01*
X173018444Y-53161585D01*
X172952753Y-53363760D01*
X172919500Y-53573713D01*
X172919500Y-53786286D01*
X172952754Y-53996244D01*
X172952754Y-53996247D01*
X172966491Y-54038523D01*
X172968486Y-54108364D01*
X172936241Y-54164522D01*
X171251286Y-55849478D01*
X171139481Y-55961282D01*
X171139477Y-55961287D01*
X171100838Y-56028214D01*
X171100838Y-56028215D01*
X171060423Y-56098214D01*
X171050779Y-56134205D01*
X171019499Y-56250943D01*
X171019499Y-56250945D01*
X171019499Y-56419046D01*
X171019500Y-56419059D01*
X171019500Y-56990234D01*
X170999815Y-57057273D01*
X170998602Y-57059125D01*
X170910609Y-57190814D01*
X170910602Y-57190827D01*
X170850264Y-57336498D01*
X170850261Y-57336510D01*
X170819500Y-57491153D01*
X170819500Y-57648846D01*
X170850261Y-57803489D01*
X170850264Y-57803501D01*
X170910602Y-57949172D01*
X170910609Y-57949185D01*
X170998210Y-58080288D01*
X170998213Y-58080292D01*
X171109707Y-58191786D01*
X171109711Y-58191789D01*
X171240814Y-58279390D01*
X171240827Y-58279397D01*
X171386498Y-58339735D01*
X171386503Y-58339737D01*
X171541153Y-58370499D01*
X171541156Y-58370500D01*
X171541158Y-58370500D01*
X171698844Y-58370500D01*
X171698845Y-58370499D01*
X171853497Y-58339737D01*
X171999179Y-58279394D01*
X172130289Y-58191789D01*
X172241789Y-58080289D01*
X172329394Y-57949179D01*
X172389737Y-57803497D01*
X172420500Y-57648842D01*
X172420500Y-57491158D01*
X172420500Y-57491155D01*
X172420499Y-57491153D01*
X172402012Y-57398213D01*
X172389737Y-57336503D01*
X172389226Y-57335269D01*
X172329397Y-57190827D01*
X172329390Y-57190814D01*
X172241398Y-57059125D01*
X172220520Y-56992447D01*
X172220500Y-56990234D01*
X172220500Y-56630096D01*
X172240185Y-56563057D01*
X172256814Y-56542420D01*
X172708320Y-56090914D01*
X172769642Y-56057430D01*
X172839334Y-56062414D01*
X172895267Y-56104286D01*
X172919684Y-56169750D01*
X172920000Y-56178596D01*
X172920000Y-56326246D01*
X172953242Y-56536127D01*
X172953242Y-56536130D01*
X173018904Y-56738217D01*
X173115375Y-56927550D01*
X173154728Y-56981716D01*
X173787037Y-56349408D01*
X173804075Y-56412993D01*
X173869901Y-56527007D01*
X173962993Y-56620099D01*
X174077007Y-56685925D01*
X174140590Y-56702962D01*
X173508282Y-57335269D01*
X173508282Y-57335270D01*
X173562452Y-57374626D01*
X173562451Y-57374626D01*
X173571495Y-57379234D01*
X173622292Y-57427208D01*
X173639087Y-57495029D01*
X173616550Y-57561164D01*
X173571499Y-57600202D01*
X173562182Y-57604949D01*
X173390213Y-57729890D01*
X173239890Y-57880213D01*
X173114951Y-58052179D01*
X173018444Y-58241585D01*
X172952753Y-58443760D01*
X172919500Y-58653713D01*
X172919500Y-58866286D01*
X172952753Y-59076239D01*
X172952753Y-59076241D01*
X172952754Y-59076243D01*
X173007431Y-59244522D01*
X173018444Y-59278414D01*
X173114951Y-59467820D01*
X173239890Y-59639786D01*
X173390213Y-59790109D01*
X173562182Y-59915050D01*
X173570946Y-59919516D01*
X173621742Y-59967491D01*
X173638536Y-60035312D01*
X173615998Y-60101447D01*
X173570946Y-60140484D01*
X173562182Y-60144949D01*
X173390213Y-60269890D01*
X173239890Y-60420213D01*
X173114948Y-60592184D01*
X173114947Y-60592185D01*
X173094765Y-60631795D01*
X173046791Y-60682591D01*
X172984281Y-60699500D01*
X172680532Y-60699500D01*
X172680528Y-60699499D01*
X172522414Y-60699499D01*
X172522410Y-60699500D01*
X167747848Y-60699500D01*
X167680809Y-60679815D01*
X167635054Y-60627011D01*
X167626231Y-60599692D01*
X167599738Y-60466508D01*
X167599737Y-60466507D01*
X167599737Y-60466503D01*
X167580561Y-60420208D01*
X167539397Y-60320827D01*
X167539390Y-60320814D01*
X167451789Y-60189711D01*
X167451786Y-60189707D01*
X167340292Y-60078213D01*
X167340288Y-60078210D01*
X167209185Y-59990609D01*
X167209172Y-59990602D01*
X167063501Y-59930264D01*
X167063489Y-59930261D01*
X166908845Y-59899500D01*
X166908842Y-59899500D01*
X166751158Y-59899500D01*
X166751155Y-59899500D01*
X166596510Y-59930261D01*
X166596498Y-59930264D01*
X166450827Y-59990602D01*
X166450814Y-59990609D01*
X166319125Y-60078602D01*
X166252447Y-60099480D01*
X166250234Y-60099500D01*
X164070097Y-60099500D01*
X164003058Y-60079815D01*
X163982416Y-60063181D01*
X161924574Y-58005339D01*
X161891089Y-57944016D01*
X161890638Y-57941849D01*
X161863117Y-57803497D01*
X161859737Y-57786503D01*
X161843757Y-57747923D01*
X161799397Y-57640827D01*
X161799390Y-57640814D01*
X161711789Y-57509711D01*
X161711786Y-57509707D01*
X161600292Y-57398213D01*
X161600288Y-57398210D01*
X161469185Y-57310609D01*
X161469172Y-57310602D01*
X161323501Y-57250264D01*
X161323489Y-57250261D01*
X161168845Y-57219500D01*
X161168842Y-57219500D01*
X161011158Y-57219500D01*
X161011155Y-57219500D01*
X160856510Y-57250261D01*
X160856498Y-57250264D01*
X160710827Y-57310602D01*
X160710814Y-57310609D01*
X160579711Y-57398210D01*
X160579707Y-57398213D01*
X160482181Y-57495740D01*
X160420858Y-57529225D01*
X160351166Y-57524241D01*
X160295233Y-57482369D01*
X160270816Y-57416905D01*
X160270500Y-57408059D01*
X160270500Y-56857151D01*
X160290185Y-56790112D01*
X160342989Y-56744357D01*
X160412147Y-56734413D01*
X160463391Y-56754049D01*
X160586315Y-56836185D01*
X160586328Y-56836192D01*
X160768308Y-56911569D01*
X160810000Y-56919862D01*
X160810000Y-56116988D01*
X160819940Y-56134205D01*
X160875795Y-56190060D01*
X160944204Y-56229556D01*
X161020504Y-56250000D01*
X161099496Y-56250000D01*
X161175796Y-56229556D01*
X161244205Y-56190060D01*
X161300060Y-56134205D01*
X161310000Y-56116988D01*
X161310000Y-56919862D01*
X161351690Y-56911569D01*
X161351692Y-56911569D01*
X161533671Y-56836192D01*
X161533684Y-56836185D01*
X161697462Y-56726751D01*
X161697466Y-56726748D01*
X161836748Y-56587466D01*
X161836751Y-56587462D01*
X161946185Y-56423684D01*
X161946192Y-56423671D01*
X162021569Y-56241693D01*
X162021572Y-56241681D01*
X162059999Y-56048495D01*
X162060000Y-56048492D01*
X162060000Y-55650000D01*
X161360000Y-55650000D01*
X161360000Y-55150000D01*
X161915536Y-55150000D01*
X161982575Y-55169685D01*
X162022923Y-55212000D01*
X162029482Y-55223361D01*
X162029484Y-55223364D01*
X162029485Y-55223365D01*
X162136635Y-55330515D01*
X162267865Y-55406281D01*
X162414234Y-55445500D01*
X162414236Y-55445500D01*
X162565764Y-55445500D01*
X162565766Y-55445500D01*
X162712135Y-55406281D01*
X162843365Y-55330515D01*
X162950515Y-55223365D01*
X163026281Y-55092135D01*
X163065500Y-54945766D01*
X163065500Y-54794234D01*
X167694500Y-54794234D01*
X167694500Y-54945766D01*
X167698321Y-54960026D01*
X167733719Y-55092136D01*
X167771602Y-55157750D01*
X167809485Y-55223365D01*
X167916635Y-55330515D01*
X168047865Y-55406281D01*
X168194234Y-55445500D01*
X168194236Y-55445500D01*
X168345764Y-55445500D01*
X168345766Y-55445500D01*
X168492135Y-55406281D01*
X168623365Y-55330515D01*
X168730515Y-55223365D01*
X168737077Y-55212000D01*
X168787644Y-55163784D01*
X168844464Y-55150000D01*
X169400000Y-55150000D01*
X169400000Y-55650000D01*
X168700000Y-55650000D01*
X168700000Y-56048495D01*
X168738427Y-56241681D01*
X168738430Y-56241693D01*
X168813807Y-56423671D01*
X168813814Y-56423684D01*
X168923248Y-56587462D01*
X168923251Y-56587466D01*
X169062533Y-56726748D01*
X169062537Y-56726751D01*
X169226315Y-56836185D01*
X169226328Y-56836192D01*
X169408308Y-56911569D01*
X169450000Y-56919862D01*
X169450000Y-56116988D01*
X169459940Y-56134205D01*
X169515795Y-56190060D01*
X169584204Y-56229556D01*
X169660504Y-56250000D01*
X169739496Y-56250000D01*
X169815796Y-56229556D01*
X169884205Y-56190060D01*
X169940060Y-56134205D01*
X169950000Y-56116988D01*
X169950000Y-56919862D01*
X169991690Y-56911569D01*
X169991692Y-56911569D01*
X170173671Y-56836192D01*
X170173684Y-56836185D01*
X170337462Y-56726751D01*
X170337466Y-56726748D01*
X170476748Y-56587466D01*
X170476751Y-56587462D01*
X170586185Y-56423684D01*
X170586192Y-56423671D01*
X170661569Y-56241693D01*
X170661572Y-56241681D01*
X170699999Y-56048495D01*
X170700000Y-56048492D01*
X170700000Y-55650000D01*
X170000000Y-55650000D01*
X170000000Y-55150000D01*
X170700000Y-55150000D01*
X170700000Y-54751508D01*
X170699999Y-54751504D01*
X170661572Y-54558318D01*
X170661569Y-54558306D01*
X170586192Y-54376328D01*
X170586185Y-54376315D01*
X170476751Y-54212537D01*
X170476748Y-54212533D01*
X170337466Y-54073251D01*
X170337462Y-54073248D01*
X170173684Y-53963814D01*
X170173671Y-53963807D01*
X169991691Y-53888429D01*
X169991683Y-53888427D01*
X169950000Y-53880135D01*
X169950000Y-54683011D01*
X169940060Y-54665795D01*
X169884205Y-54609940D01*
X169815796Y-54570444D01*
X169739496Y-54550000D01*
X169660504Y-54550000D01*
X169584204Y-54570444D01*
X169515795Y-54609940D01*
X169459940Y-54665795D01*
X169450000Y-54683011D01*
X169450000Y-53880136D01*
X169449999Y-53880135D01*
X169408316Y-53888427D01*
X169408308Y-53888429D01*
X169226328Y-53963807D01*
X169226315Y-53963814D01*
X169062537Y-54073248D01*
X169062533Y-54073251D01*
X168923248Y-54212536D01*
X168810427Y-54381387D01*
X168809003Y-54380435D01*
X168765742Y-54424451D01*
X168697600Y-54439892D01*
X168631927Y-54416041D01*
X168629907Y-54414306D01*
X168629811Y-54414432D01*
X168623367Y-54409487D01*
X168623365Y-54409485D01*
X168557750Y-54371602D01*
X168492136Y-54333719D01*
X168418950Y-54314109D01*
X168345766Y-54294500D01*
X168194234Y-54294500D01*
X168047863Y-54333719D01*
X167916635Y-54409485D01*
X167916632Y-54409487D01*
X167809487Y-54516632D01*
X167809485Y-54516635D01*
X167733719Y-54647863D01*
X167710585Y-54734204D01*
X167694500Y-54794234D01*
X163065500Y-54794234D01*
X163026281Y-54647865D01*
X162950515Y-54516635D01*
X162843365Y-54409485D01*
X162777750Y-54371602D01*
X162712136Y-54333719D01*
X162638950Y-54314109D01*
X162565766Y-54294500D01*
X162414234Y-54294500D01*
X162267863Y-54333719D01*
X162136635Y-54409485D01*
X162130189Y-54414432D01*
X162128099Y-54411709D01*
X162080217Y-54437466D01*
X162010558Y-54432043D01*
X161954888Y-54389821D01*
X161949299Y-54380976D01*
X161836751Y-54212537D01*
X161836748Y-54212533D01*
X161697466Y-54073251D01*
X161697462Y-54073248D01*
X161533684Y-53963814D01*
X161533671Y-53963807D01*
X161351691Y-53888429D01*
X161351683Y-53888427D01*
X161310000Y-53880135D01*
X161310000Y-54683011D01*
X161300060Y-54665795D01*
X161244205Y-54609940D01*
X161175796Y-54570444D01*
X161099496Y-54550000D01*
X161020504Y-54550000D01*
X160944204Y-54570444D01*
X160875795Y-54609940D01*
X160819940Y-54665795D01*
X160810000Y-54683011D01*
X160810000Y-53880136D01*
X160809999Y-53880135D01*
X160768316Y-53888427D01*
X160768308Y-53888429D01*
X160586328Y-53963807D01*
X160586315Y-53963814D01*
X160463391Y-54045950D01*
X160396713Y-54066828D01*
X160329333Y-54048343D01*
X160282643Y-53996364D01*
X160270500Y-53942848D01*
X160270500Y-52427151D01*
X160290185Y-52360112D01*
X160342989Y-52314357D01*
X160412147Y-52304413D01*
X160463391Y-52324049D01*
X160586315Y-52406185D01*
X160586328Y-52406192D01*
X160768308Y-52481569D01*
X160810000Y-52489862D01*
X160810000Y-51686988D01*
X160819940Y-51704205D01*
X160875795Y-51760060D01*
X160944204Y-51799556D01*
X161020504Y-51820000D01*
X161099496Y-51820000D01*
X161175796Y-51799556D01*
X161244205Y-51760060D01*
X161300060Y-51704205D01*
X161310000Y-51686988D01*
X161310000Y-52489862D01*
X161351690Y-52481569D01*
X161351692Y-52481569D01*
X161533671Y-52406192D01*
X161533684Y-52406185D01*
X161697462Y-52296751D01*
X161697466Y-52296748D01*
X161836748Y-52157466D01*
X161836751Y-52157462D01*
X161946185Y-51993684D01*
X161946192Y-51993671D01*
X162021569Y-51811693D01*
X162021572Y-51811681D01*
X162059999Y-51618495D01*
X162060000Y-51618492D01*
X162060000Y-51470000D01*
X161360000Y-51470000D01*
X161360000Y-50970000D01*
X162060000Y-50970000D01*
X162060000Y-50821508D01*
X162059999Y-50821504D01*
X162021572Y-50628318D01*
X162021570Y-50628310D01*
X161944379Y-50441953D01*
X161936910Y-50372483D01*
X161968185Y-50310004D01*
X162028274Y-50274352D01*
X162058940Y-50270500D01*
X168701060Y-50270500D01*
X168768099Y-50290185D01*
G37*
%TD.AperFunction*%
%TA.AperFunction,Conductor*%
G36*
X175343181Y-56939627D02*
G01*
X175376666Y-57000950D01*
X175379500Y-57027308D01*
X175379500Y-57660242D01*
X175359815Y-57727281D01*
X175307011Y-57773036D01*
X175237853Y-57782980D01*
X175174297Y-57753955D01*
X175167819Y-57747923D01*
X175149786Y-57729890D01*
X174977817Y-57604949D01*
X174968504Y-57600204D01*
X174917707Y-57552230D01*
X174900912Y-57484409D01*
X174923449Y-57418274D01*
X174968507Y-57379232D01*
X174977555Y-57374622D01*
X175031716Y-57335270D01*
X175031717Y-57335270D01*
X174399408Y-56702962D01*
X174462993Y-56685925D01*
X174577007Y-56620099D01*
X174670099Y-56527007D01*
X174735925Y-56412993D01*
X174752962Y-56349408D01*
X175343181Y-56939627D01*
G37*
%TD.AperFunction*%
%TA.AperFunction,Conductor*%
G36*
X156024075Y-56412993D02*
G01*
X156089901Y-56527007D01*
X156182993Y-56620099D01*
X156297007Y-56685925D01*
X156360590Y-56702962D01*
X155728282Y-57335269D01*
X155728282Y-57335270D01*
X155782452Y-57374626D01*
X155782451Y-57374626D01*
X155791495Y-57379234D01*
X155842292Y-57427208D01*
X155859087Y-57495029D01*
X155836550Y-57561164D01*
X155791499Y-57600202D01*
X155782182Y-57604949D01*
X155610213Y-57729890D01*
X155610209Y-57729894D01*
X155592181Y-57747923D01*
X155530858Y-57781408D01*
X155461166Y-57776424D01*
X155405233Y-57734552D01*
X155380816Y-57669088D01*
X155380500Y-57660242D01*
X155380500Y-57027308D01*
X155400185Y-56960269D01*
X155416819Y-56939627D01*
X156007037Y-56349408D01*
X156024075Y-56412993D01*
G37*
%TD.AperFunction*%
%TA.AperFunction,Conductor*%
G36*
X155585703Y-54686045D02*
G01*
X155592181Y-54692077D01*
X155610213Y-54710109D01*
X155782179Y-54835048D01*
X155782181Y-54835049D01*
X155782184Y-54835051D01*
X155791493Y-54839794D01*
X155842290Y-54887766D01*
X155859087Y-54955587D01*
X155836552Y-55021722D01*
X155791505Y-55060760D01*
X155782446Y-55065376D01*
X155782440Y-55065380D01*
X155728282Y-55104727D01*
X155728282Y-55104728D01*
X156360591Y-55737037D01*
X156297007Y-55754075D01*
X156182993Y-55819901D01*
X156089901Y-55912993D01*
X156024075Y-56027007D01*
X156007037Y-56090591D01*
X155416819Y-55500373D01*
X155383334Y-55439050D01*
X155380500Y-55412692D01*
X155380500Y-54779758D01*
X155400185Y-54712719D01*
X155452989Y-54666964D01*
X155522147Y-54657020D01*
X155585703Y-54686045D01*
G37*
%TD.AperFunction*%
%TA.AperFunction,Conductor*%
G36*
X175298834Y-54663576D02*
G01*
X175354767Y-54705448D01*
X175379184Y-54770912D01*
X175379500Y-54779758D01*
X175379500Y-55412692D01*
X175359815Y-55479731D01*
X175343181Y-55500373D01*
X174752962Y-56090591D01*
X174735925Y-56027007D01*
X174670099Y-55912993D01*
X174577007Y-55819901D01*
X174462993Y-55754075D01*
X174399408Y-55737037D01*
X175031716Y-55104728D01*
X174977547Y-55065373D01*
X174977547Y-55065372D01*
X174968500Y-55060763D01*
X174917706Y-55012788D01*
X174900912Y-54944966D01*
X174923451Y-54878832D01*
X174968508Y-54839793D01*
X174977816Y-54835051D01*
X175092804Y-54751508D01*
X175149786Y-54710109D01*
X175149788Y-54710106D01*
X175149792Y-54710104D01*
X175167819Y-54692077D01*
X175229142Y-54658592D01*
X175298834Y-54663576D01*
G37*
%TD.AperFunction*%
%TA.AperFunction,Conductor*%
G36*
X160128099Y-50290185D02*
G01*
X160173854Y-50342989D01*
X160183798Y-50412147D01*
X160175621Y-50441953D01*
X160098429Y-50628310D01*
X160098427Y-50628318D01*
X160060000Y-50821504D01*
X160060000Y-50970000D01*
X160760000Y-50970000D01*
X160760000Y-51470000D01*
X160060000Y-51470000D01*
X160027298Y-51502702D01*
X159965974Y-51536186D01*
X159896283Y-51531201D01*
X159851936Y-51502701D01*
X159127590Y-50778355D01*
X159127588Y-50778352D01*
X159008717Y-50659481D01*
X159008716Y-50659480D01*
X158921904Y-50609360D01*
X158921904Y-50609359D01*
X158921900Y-50609358D01*
X158871785Y-50580423D01*
X158719057Y-50539499D01*
X158560943Y-50539499D01*
X158553347Y-50539499D01*
X158553331Y-50539500D01*
X157964499Y-50539500D01*
X157897460Y-50519815D01*
X157851705Y-50467011D01*
X157840499Y-50415500D01*
X157840499Y-50394500D01*
X157860184Y-50327461D01*
X157912988Y-50281706D01*
X157964499Y-50270500D01*
X160061060Y-50270500D01*
X160128099Y-50290185D01*
G37*
%TD.AperFunction*%
%TD*%
M02*
