%TF.GenerationSoftware,KiCad,Pcbnew,10.0.0*%
%TF.CreationDate,2026-06-04T21:51:39+05:30*%
%TF.ProjectId,card,63617264-2e6b-4696-9361-645f70636258,rev?*%
%TF.SameCoordinates,Original*%
%TF.FileFunction,Copper,L1,Top*%
%TF.FilePolarity,Positive*%
%FSLAX46Y46*%
G04 Gerber Fmt 4.6, Leading zero omitted, Abs format (unit mm)*
G04 Created by KiCad (PCBNEW 10.0.0) date 2026-06-04 21:51:39*
%MOMM*%
%LPD*%
G01*
G04 APERTURE LIST*
G04 Aperture macros list*
%AMRoundRect*
0 Rectangle with rounded corners*
0 $1 Rounding radius*
0 $2 $3 $4 $5 $6 $7 $8 $9 X,Y pos of 4 corners*
0 Add a 4 corners polygon primitive as box body*
4,1,4,$2,$3,$4,$5,$6,$7,$8,$9,$2,$3,0*
0 Add four circle primitives for the rounded corners*
1,1,$1+$1,$2,$3*
1,1,$1+$1,$4,$5*
1,1,$1+$1,$6,$7*
1,1,$1+$1,$8,$9*
0 Add four rect primitives between the rounded corners*
20,1,$1+$1,$2,$3,$4,$5,0*
20,1,$1+$1,$4,$5,$6,$7,0*
20,1,$1+$1,$6,$7,$8,$9,0*
20,1,$1+$1,$8,$9,$2,$3,0*%
G04 Aperture macros list end*
%TA.AperFunction,SMDPad,CuDef*%
%ADD10RoundRect,0.140000X0.140000X0.170000X-0.140000X0.170000X-0.140000X-0.170000X0.140000X-0.170000X0*%
%TD*%
%TA.AperFunction,SMDPad,CuDef*%
%ADD11RoundRect,0.135000X-0.185000X0.135000X-0.185000X-0.135000X0.185000X-0.135000X0.185000X0.135000X0*%
%TD*%
%TA.AperFunction,ComponentPad*%
%ADD12R,1.700000X1.700000*%
%TD*%
%TA.AperFunction,ComponentPad*%
%ADD13C,1.700000*%
%TD*%
%TA.AperFunction,SMDPad,CuDef*%
%ADD14RoundRect,0.050000X-0.387500X-0.050000X0.387500X-0.050000X0.387500X0.050000X-0.387500X0.050000X0*%
%TD*%
%TA.AperFunction,SMDPad,CuDef*%
%ADD15RoundRect,0.050000X-0.050000X-0.387500X0.050000X-0.387500X0.050000X0.387500X-0.050000X0.387500X0*%
%TD*%
%TA.AperFunction,HeatsinkPad*%
%ADD16R,3.200000X3.200000*%
%TD*%
%TA.AperFunction,SMDPad,CuDef*%
%ADD17RoundRect,0.140000X-0.170000X0.140000X-0.170000X-0.140000X0.170000X-0.140000X0.170000X0.140000X0*%
%TD*%
%TA.AperFunction,SMDPad,CuDef*%
%ADD18RoundRect,0.140000X0.021213X-0.219203X0.219203X-0.021213X-0.021213X0.219203X-0.219203X0.021213X0*%
%TD*%
%TA.AperFunction,SMDPad,CuDef*%
%ADD19RoundRect,0.150000X0.150000X-0.587500X0.150000X0.587500X-0.150000X0.587500X-0.150000X-0.587500X0*%
%TD*%
%TA.AperFunction,SMDPad,CuDef*%
%ADD20RoundRect,0.150000X0.150000X0.575000X-0.150000X0.575000X-0.150000X-0.575000X0.150000X-0.575000X0*%
%TD*%
%TA.AperFunction,SMDPad,CuDef*%
%ADD21RoundRect,0.075000X0.075000X0.650000X-0.075000X0.650000X-0.075000X-0.650000X0.075000X-0.650000X0*%
%TD*%
%TA.AperFunction,ComponentPad*%
%ADD22O,1.000000X2.100000*%
%TD*%
%TA.AperFunction,ComponentPad*%
%ADD23O,1.000000X1.600000*%
%TD*%
%TA.AperFunction,SMDPad,CuDef*%
%ADD24RoundRect,0.140000X-0.140000X-0.170000X0.140000X-0.170000X0.140000X0.170000X-0.140000X0.170000X0*%
%TD*%
%TA.AperFunction,SMDPad,CuDef*%
%ADD25RoundRect,0.062500X-0.387500X-0.062500X0.387500X-0.062500X0.387500X0.062500X-0.387500X0.062500X0*%
%TD*%
%TA.AperFunction,HeatsinkPad*%
%ADD26R,0.200000X1.600000*%
%TD*%
%TA.AperFunction,SMDPad,CuDef*%
%ADD27RoundRect,0.250000X0.450000X0.350000X-0.450000X0.350000X-0.450000X-0.350000X0.450000X-0.350000X0*%
%TD*%
%TA.AperFunction,SMDPad,CuDef*%
%ADD28RoundRect,0.135000X-0.135000X-0.185000X0.135000X-0.185000X0.135000X0.185000X-0.135000X0.185000X0*%
%TD*%
%TA.AperFunction,SMDPad,CuDef*%
%ADD29RoundRect,0.135000X0.135000X0.185000X-0.135000X0.185000X-0.135000X-0.185000X0.135000X-0.185000X0*%
%TD*%
%TA.AperFunction,SMDPad,CuDef*%
%ADD30RoundRect,0.140000X0.170000X-0.140000X0.170000X0.140000X-0.170000X0.140000X-0.170000X-0.140000X0*%
%TD*%
%TA.AperFunction,SMDPad,CuDef*%
%ADD31RoundRect,0.135000X0.185000X-0.135000X0.185000X0.135000X-0.185000X0.135000X-0.185000X-0.135000X0*%
%TD*%
%TA.AperFunction,SMDPad,CuDef*%
%ADD32RoundRect,0.200000X0.200000X0.800000X-0.200000X0.800000X-0.200000X-0.800000X0.200000X-0.800000X0*%
%TD*%
%TA.AperFunction,ViaPad*%
%ADD33C,0.600000*%
%TD*%
%TA.AperFunction,Conductor*%
%ADD34C,0.200000*%
%TD*%
G04 APERTURE END LIST*
D10*
%TO.P,C6,1*%
%TO.N,+3V3*%
X160560000Y-80250000D03*
%TO.P,C6,2*%
%TO.N,GND*%
X159600000Y-80250000D03*
%TD*%
D11*
%TO.P,R2,1*%
%TO.N,USB_D+*%
X165910000Y-72900000D03*
%TO.P,R2,2*%
%TO.N,Net-(U1-USB_DP)*%
X165910000Y-73920000D03*
%TD*%
D12*
%TO.P,J3,1,Pin_1_1*%
%TO.N,VBUS*%
X174270000Y-51140000D03*
D13*
%TO.P,J3,2,Pin_2_2*%
%TO.N,GPIO29_ADC3*%
X174270000Y-53680000D03*
%TO.P,J3,3,Pin_3_3*%
%TO.N,GND*%
X174270000Y-56220000D03*
%TO.P,J3,4,Pin_4_4*%
%TO.N,GPIO28_ADC2*%
X174270000Y-58760000D03*
%TO.P,J3,5,Pin_5_5*%
%TO.N,+3V3*%
X174270000Y-61300000D03*
%TO.P,J3,6,Pin_6_6*%
%TO.N,GPIO27_ADC1*%
X174270000Y-63840000D03*
%TO.P,J3,7,Pin_7_7*%
%TO.N,GPIO26_ADC0*%
X174270000Y-66380000D03*
%TO.P,J3,8,Pin_8_8*%
%TO.N,GND*%
X174270000Y-68920000D03*
%TO.P,J3,9,Pin_9_9*%
%TO.N,GPIO25*%
X174270000Y-71460000D03*
%TO.P,J3,10,Pin_10_10*%
%TO.N,GPIO24*%
X174270000Y-74000000D03*
%TO.P,J3,11,Pin_11_11*%
%TO.N,GPIO23*%
X174270000Y-76540000D03*
%TO.P,J3,12,Pin_12_12*%
%TO.N,GPIO22*%
X174270000Y-79080000D03*
%TO.P,J3,13,Pin_13_13*%
%TO.N,GND*%
X174270000Y-81620000D03*
%TO.P,J3,14,Pin_14_14*%
%TO.N,GPIO21*%
X174270000Y-84160000D03*
%TO.P,J3,15,Pin_15_15*%
%TO.N,GPIO20*%
X174270000Y-86700000D03*
%TO.P,J3,16,Pin_16_16*%
%TO.N,GPIO19*%
X174270000Y-89240000D03*
%TO.P,J3,17,Pin_17_17*%
%TO.N,GPIO18*%
X174270000Y-91780000D03*
%TO.P,J3,18,Pin_18_18*%
%TO.N,GND*%
X174270000Y-94320000D03*
%TO.P,J3,19,Pin_19_19*%
%TO.N,GPIO17*%
X174270000Y-96860000D03*
%TO.P,J3,20,Pin_20_20*%
%TO.N,GPIO16*%
X174270000Y-99400000D03*
%TD*%
D14*
%TO.P,U1,1,IOVDD_1*%
%TO.N,+3V3*%
X161942500Y-76670000D03*
%TO.P,U1,2,GPIO0_2*%
%TO.N,GPIO0*%
X161942500Y-77070000D03*
%TO.P,U1,3,GPIO1_3*%
%TO.N,GPIO1*%
X161942500Y-77470000D03*
%TO.P,U1,4,GPIO2_4*%
%TO.N,GPIO2*%
X161942500Y-77870000D03*
%TO.P,U1,5,GPIO3_5*%
%TO.N,GPIO3*%
X161942500Y-78270000D03*
%TO.P,U1,6,GPIO4_6*%
%TO.N,GPIO4*%
X161942500Y-78670000D03*
%TO.P,U1,7,GPIO5_7*%
%TO.N,GPIO5*%
X161942500Y-79070000D03*
%TO.P,U1,8,GPIO6_8*%
%TO.N,GPIO6*%
X161942500Y-79470000D03*
%TO.P,U1,9,GPIO7_9*%
%TO.N,GPIO7*%
X161942500Y-79870000D03*
%TO.P,U1,10,IOVDD_10*%
%TO.N,+3V3*%
X161942500Y-80270000D03*
%TO.P,U1,11,GPIO8_11*%
%TO.N,GPIO8*%
X161942500Y-80670000D03*
%TO.P,U1,12,GPIO9_12*%
%TO.N,GPIO9*%
X161942500Y-81070000D03*
%TO.P,U1,13,GPIO10_13*%
%TO.N,GPIO10*%
X161942500Y-81470000D03*
%TO.P,U1,14,GPIO11_14*%
%TO.N,GPIO11*%
X161942500Y-81870000D03*
D15*
%TO.P,U1,15,GPIO12_15*%
%TO.N,GPIO12*%
X162780000Y-82707500D03*
%TO.P,U1,16,GPIO13_16*%
%TO.N,GPIO13*%
X163180000Y-82707500D03*
%TO.P,U1,17,GPIO14_17*%
%TO.N,GPIO14*%
X163580000Y-82707500D03*
%TO.P,U1,18,GPIO15_18*%
%TO.N,GPIO15*%
X163980000Y-82707500D03*
%TO.P,U1,19,TESTEN_19*%
%TO.N,GND*%
X164380000Y-82707500D03*
%TO.P,U1,20,XIN_20*%
%TO.N,XIN*%
X164780000Y-82707500D03*
%TO.P,U1,21,XOUT_21*%
%TO.N,XOUT*%
X165180000Y-82707500D03*
%TO.P,U1,22,IOVDD_22*%
%TO.N,+3V3*%
X165580000Y-82707500D03*
%TO.P,U1,23,DVDD_23*%
%TO.N,+1V1*%
X165980000Y-82707500D03*
%TO.P,U1,24,SWCLK_24*%
%TO.N,SWCLK*%
X166380000Y-82707500D03*
%TO.P,U1,25,SWDIO_25*%
%TO.N,SWDI0*%
X166780000Y-82707500D03*
%TO.P,U1,26,RUN_26*%
%TO.N,RUN*%
X167180000Y-82707500D03*
%TO.P,U1,27,GPIO16_27*%
%TO.N,GPIO16*%
X167580000Y-82707500D03*
%TO.P,U1,28,GPIO17_28*%
%TO.N,GPIO17*%
X167980000Y-82707500D03*
D14*
%TO.P,U1,29,GPIO18_29*%
%TO.N,GPIO18*%
X168817500Y-81870000D03*
%TO.P,U1,30,GPIO19_30*%
%TO.N,GPIO19*%
X168817500Y-81470000D03*
%TO.P,U1,31,GPIO20_31*%
%TO.N,GPIO20*%
X168817500Y-81070000D03*
%TO.P,U1,32,GPIO21_32*%
%TO.N,GPIO21*%
X168817500Y-80670000D03*
%TO.P,U1,33,IOVDD_33*%
%TO.N,+3V3*%
X168817500Y-80270000D03*
%TO.P,U1,34,GPIO22_34*%
%TO.N,GPIO22*%
X168817500Y-79870000D03*
%TO.P,U1,35,GPIO23_35*%
%TO.N,GPIO23*%
X168817500Y-79470000D03*
%TO.P,U1,36,GPIO24_36*%
%TO.N,GPIO24*%
X168817500Y-79070000D03*
%TO.P,U1,37,GPIO25_37*%
%TO.N,GPIO25*%
X168817500Y-78670000D03*
%TO.P,U1,38,GPIO26/ADC0_38*%
%TO.N,GPIO26_ADC0*%
X168817500Y-78270000D03*
%TO.P,U1,39,GPIO27/ADC1_39*%
%TO.N,GPIO27_ADC1*%
X168817500Y-77870000D03*
%TO.P,U1,40,GPIO28/ADC2_40*%
%TO.N,GPIO28_ADC2*%
X168817500Y-77470000D03*
%TO.P,U1,41,GPIO29/ADC3_41*%
%TO.N,GPIO29_ADC3*%
X168817500Y-77070000D03*
%TO.P,U1,42,IOVDD_42*%
%TO.N,+3V3*%
X168817500Y-76670000D03*
D15*
%TO.P,U1,43,ADC_AVDD_43*%
X167980000Y-75832500D03*
%TO.P,U1,44,VREG_VIN_44*%
X167580000Y-75832500D03*
%TO.P,U1,45,VREG_VOUT_45*%
%TO.N,+1V1*%
X167180000Y-75832500D03*
%TO.P,U1,46,USB_DM_46*%
%TO.N,Net-(U1-USB_DM)*%
X166780000Y-75832500D03*
%TO.P,U1,47,USB_DP_47*%
%TO.N,Net-(U1-USB_DP)*%
X166380000Y-75832500D03*
%TO.P,U1,48,USB_VDD_48*%
%TO.N,+3V3*%
X165980000Y-75832500D03*
%TO.P,U1,49,IOVDD_49*%
X165580000Y-75832500D03*
%TO.P,U1,50,DVDD_50*%
%TO.N,+1V1*%
X165180000Y-75832500D03*
%TO.P,U1,51,QSPI_SD3_51*%
%TO.N,QSPI_SD3*%
X164780000Y-75832500D03*
%TO.P,U1,52,QSPI_SCLK_52*%
%TO.N,QSPI_SCLK*%
X164380000Y-75832500D03*
%TO.P,U1,53,QSPI_SD0_53*%
%TO.N,QSPI_SD0*%
X163980000Y-75832500D03*
%TO.P,U1,54,QSPI_SD2_54*%
%TO.N,QSPI_SD2*%
X163580000Y-75832500D03*
%TO.P,U1,55,QSPI_SD1_55*%
%TO.N,QSPI_SD1*%
X163180000Y-75832500D03*
%TO.P,U1,56,~{QSPI_SS}_56*%
%TO.N,QSPI_SS*%
X162780000Y-75832500D03*
D16*
%TO.P,U1,57,GND_57*%
%TO.N,GND*%
X165380000Y-79270000D03*
%TD*%
D17*
%TO.P,C8,1*%
%TO.N,+3V3*%
X167180000Y-85270000D03*
%TO.P,C8,2*%
%TO.N,GND*%
X167180000Y-86230000D03*
%TD*%
D18*
%TO.P,C3,1*%
%TO.N,+3V3*%
X170721178Y-74608822D03*
%TO.P,C3,2*%
%TO.N,GND*%
X171400000Y-73930000D03*
%TD*%
D19*
%TO.P,U2,1,GND_1*%
%TO.N,GND*%
X161870000Y-61925000D03*
%TO.P,U2,2,VO_2*%
%TO.N,+3V3*%
X163770000Y-61925000D03*
%TO.P,U2,3,VI_3*%
%TO.N,VBUS*%
X162820000Y-60050000D03*
%TD*%
D20*
%TO.P,J1,A1,GND_A1*%
%TO.N,GND*%
X168630000Y-56315000D03*
%TO.P,J1,A4,VBUS_A4*%
%TO.N,VBUS*%
X167830000Y-56315000D03*
D21*
%TO.P,J1,A5,CC1_A5*%
%TO.N,Net-(J1-CC1)*%
X166630000Y-56315000D03*
%TO.P,J1,A6,D+_A6*%
%TO.N,USB_D+*%
X165630000Y-56315000D03*
%TO.P,J1,A7,D-_A7*%
%TO.N,USB_D-*%
X165130000Y-56315000D03*
%TO.P,J1,A8*%
%TO.N,N/C*%
X164130000Y-56315000D03*
D20*
%TO.P,J1,A9,VBUS_A9*%
%TO.N,VBUS*%
X162930000Y-56315000D03*
%TO.P,J1,A12,GND_A12*%
%TO.N,GND*%
X162130000Y-56315000D03*
%TO.P,J1,B1,GND_B1*%
X162130000Y-56315000D03*
%TO.P,J1,B4,VBUS_B4*%
%TO.N,VBUS*%
X162930000Y-56315000D03*
D21*
%TO.P,J1,B5,CC2_B5*%
%TO.N,Net-(J1-CC2)*%
X163630000Y-56315000D03*
%TO.P,J1,B6,D+_B6*%
%TO.N,USB_D+*%
X164630000Y-56315000D03*
%TO.P,J1,B7,D-_B7*%
%TO.N,USB_D-*%
X166130000Y-56315000D03*
%TO.P,J1,B8*%
%TO.N,N/C*%
X167130000Y-56315000D03*
D20*
%TO.P,J1,B9,VBUS_B9*%
%TO.N,VBUS*%
X167830000Y-56315000D03*
%TO.P,J1,B12,GND_B12*%
%TO.N,GND*%
X168630000Y-56315000D03*
D22*
%TO.P,J1,SH,SHIELD_SH*%
X169700000Y-55400000D03*
D23*
X169700000Y-51220000D03*
D22*
X161060000Y-55400000D03*
D23*
X161060000Y-51220000D03*
%TD*%
D24*
%TO.P,C7,1*%
%TO.N,+3V3*%
X170990000Y-80540000D03*
%TO.P,C7,2*%
%TO.N,GND*%
X171950000Y-80540000D03*
%TD*%
D25*
%TO.P,U3,1,~{CS}_1*%
%TO.N,QSPI_SS*%
X160300000Y-70020000D03*
%TO.P,U3,2,DO/IO_{1}_2*%
%TO.N,QSPI_SD1*%
X160300000Y-70520000D03*
%TO.P,U3,3,~{WP}/IO_{2}_3*%
%TO.N,QSPI_SD2*%
X160300000Y-71020000D03*
%TO.P,U3,4,GND_4*%
%TO.N,GND*%
X160300000Y-71520000D03*
%TO.P,U3,5,DI/IO_{0}_5*%
%TO.N,QSPI_SD0*%
X163150000Y-71520000D03*
%TO.P,U3,6,CLK_6*%
%TO.N,QSPI_SCLK*%
X163150000Y-71020000D03*
%TO.P,U3,7,~{HOLD}/~{RESET}/IO_{3}_7*%
%TO.N,QSPI_SD3*%
X163150000Y-70520000D03*
%TO.P,U3,8,VCC_8*%
%TO.N,+3V3*%
X163150000Y-70020000D03*
D26*
%TO.P,U3,9*%
%TO.N,N/C*%
X161725000Y-70770000D03*
%TD*%
D27*
%TO.P,Y1,1,1_1*%
%TO.N,Net-(C15-Pad2)*%
X165620000Y-86730000D03*
%TO.P,Y1,2,G_2*%
%TO.N,GND*%
X163420000Y-86730000D03*
%TO.P,Y1,3,3_3*%
%TO.N,XIN*%
X163420000Y-88430000D03*
%TO.P,Y1,4,G_4*%
%TO.N,GND*%
X165620000Y-88430000D03*
%TD*%
D24*
%TO.P,C4,1*%
%TO.N,+3V3*%
X170500000Y-75780000D03*
%TO.P,C4,2*%
%TO.N,GND*%
X171460000Y-75780000D03*
%TD*%
D28*
%TO.P,R3,1*%
%TO.N,Net-(J1-CC1)*%
X167110000Y-58290000D03*
%TO.P,R3,2*%
%TO.N,GND*%
X168130000Y-58290000D03*
%TD*%
D10*
%TO.P,C14,1*%
%TO.N,+3V3*%
X163340000Y-63640000D03*
%TO.P,C14,2*%
%TO.N,GND*%
X162380000Y-63640000D03*
%TD*%
D12*
%TO.P,J2,1,Pin_1_1*%
%TO.N,GPIO0*%
X156490000Y-51140000D03*
D13*
%TO.P,J2,2,Pin_2_2*%
%TO.N,GPIO1*%
X156490000Y-53680000D03*
%TO.P,J2,3,Pin_3_3*%
%TO.N,GND*%
X156490000Y-56220000D03*
%TO.P,J2,4,Pin_4_4*%
%TO.N,GPIO2*%
X156490000Y-58760000D03*
%TO.P,J2,5,Pin_5_5*%
%TO.N,GPIO3*%
X156490000Y-61300000D03*
%TO.P,J2,6,Pin_6_6*%
%TO.N,GPIO4*%
X156490000Y-63840000D03*
%TO.P,J2,7,Pin_7_7*%
%TO.N,GPIO5*%
X156490000Y-66380000D03*
%TO.P,J2,8,Pin_8_8*%
%TO.N,GND*%
X156490000Y-68920000D03*
%TO.P,J2,9,Pin_9_9*%
%TO.N,GPIO6*%
X156490000Y-71460000D03*
%TO.P,J2,10,Pin_10_10*%
%TO.N,GPIO7*%
X156490000Y-74000000D03*
%TO.P,J2,11,Pin_11_11*%
%TO.N,GPIO8*%
X156490000Y-76540000D03*
%TO.P,J2,12,Pin_12_12*%
%TO.N,GPIO9*%
X156490000Y-79080000D03*
%TO.P,J2,13,Pin_13_13*%
%TO.N,GND*%
X156490000Y-81620000D03*
%TO.P,J2,14,Pin_14_14*%
%TO.N,GPIO10*%
X156490000Y-84160000D03*
%TO.P,J2,15,Pin_15_15*%
%TO.N,GPIO11*%
X156490000Y-86700000D03*
%TO.P,J2,16,Pin_16_16*%
%TO.N,GPIO12*%
X156490000Y-89240000D03*
%TO.P,J2,17,Pin_17_17*%
%TO.N,GPIO13*%
X156490000Y-91780000D03*
%TO.P,J2,18,Pin_18_18*%
%TO.N,GND*%
X156490000Y-94320000D03*
%TO.P,J2,19,Pin_19_19*%
%TO.N,GPIO14*%
X156490000Y-96860000D03*
%TO.P,J2,20,Pin_20_20*%
%TO.N,GPIO15*%
X156490000Y-99400000D03*
%TD*%
D17*
%TO.P,C9,1*%
%TO.N,+3V3*%
X168170000Y-86190000D03*
%TO.P,C9,2*%
%TO.N,GND*%
X168170000Y-87150000D03*
%TD*%
D11*
%TO.P,R1,1*%
%TO.N,USB_D-*%
X166930000Y-72890000D03*
%TO.P,R1,2*%
%TO.N,Net-(U1-USB_DM)*%
X166930000Y-73910000D03*
%TD*%
D10*
%TO.P,C17,1*%
%TO.N,+3V3*%
X163180000Y-69020000D03*
%TO.P,C17,2*%
%TO.N,GND*%
X162220000Y-69020000D03*
%TD*%
D29*
%TO.P,R4,1*%
%TO.N,Net-(J1-CC2)*%
X164930000Y-58740000D03*
%TO.P,R4,2*%
%TO.N,GND*%
X163910000Y-58740000D03*
%TD*%
D17*
%TO.P,C2,1*%
%TO.N,+3V3*%
X169160000Y-87230000D03*
%TO.P,C2,2*%
%TO.N,GND*%
X169160000Y-88190000D03*
%TD*%
D30*
%TO.P,C10,1*%
%TO.N,+1V1*%
X167940000Y-74620000D03*
%TO.P,C10,2*%
%TO.N,GND*%
X167940000Y-73660000D03*
%TD*%
D10*
%TO.P,C13,1*%
%TO.N,VBUS*%
X161720000Y-59530000D03*
%TO.P,C13,2*%
%TO.N,GND*%
X160760000Y-59530000D03*
%TD*%
D30*
%TO.P,C1,1*%
%TO.N,+3V3*%
X169600000Y-74980000D03*
%TO.P,C1,2*%
%TO.N,GND*%
X169600000Y-74020000D03*
%TD*%
D17*
%TO.P,C16,1*%
%TO.N,GND*%
X161850000Y-87130000D03*
%TO.P,C16,2*%
%TO.N,XIN*%
X161850000Y-88090000D03*
%TD*%
D30*
%TO.P,C15,1*%
%TO.N,GND*%
X167170000Y-88120000D03*
%TO.P,C15,2*%
%TO.N,Net-(C15-Pad2)*%
X167170000Y-87160000D03*
%TD*%
D10*
%TO.P,C5,1*%
%TO.N,+3V3*%
X161110000Y-75760000D03*
%TO.P,C5,2*%
%TO.N,GND*%
X160150000Y-75760000D03*
%TD*%
D30*
%TO.P,C11,1*%
%TO.N,+1V1*%
X169370000Y-73080000D03*
%TO.P,C11,2*%
%TO.N,GND*%
X169370000Y-72120000D03*
%TD*%
%TO.P,C12,1*%
%TO.N,+1V1*%
X167680000Y-70930000D03*
%TO.P,C12,2*%
%TO.N,GND*%
X167680000Y-69970000D03*
%TD*%
D31*
%TO.P,R7,1*%
%TO.N,+3V3*%
X159860000Y-74730000D03*
%TO.P,R7,2*%
%TO.N,QSPI_SS*%
X159860000Y-73710000D03*
%TD*%
D28*
%TO.P,R6,1*%
%TO.N,Net-(R6-Pad1)*%
X159070000Y-68860000D03*
%TO.P,R6,2*%
%TO.N,QSPI_SS*%
X160090000Y-68860000D03*
%TD*%
D12*
%TO.P,J4,1,Pin_1_1*%
%TO.N,SWCLK*%
X162840000Y-99160000D03*
D13*
%TO.P,J4,2,Pin_2_2*%
%TO.N,GND*%
X165380000Y-99160000D03*
%TO.P,J4,3,Pin_3_3*%
%TO.N,SWDI0*%
X167920000Y-99160000D03*
%TD*%
D32*
%TO.P,SW1,1,1_1*%
%TO.N,GND*%
X164270000Y-65870000D03*
%TO.P,SW1,2,2_2*%
%TO.N,Net-(R6-Pad1)*%
X160070000Y-65870000D03*
%TD*%
D28*
%TO.P,R5,1*%
%TO.N,Net-(C15-Pad2)*%
X165180000Y-85250000D03*
%TO.P,R5,2*%
%TO.N,XOUT*%
X166200000Y-85250000D03*
%TD*%
D33*
%TO.N,+3V3*%
X169260000Y-85990000D03*
X170780000Y-77140000D03*
X162180000Y-75030000D03*
X171086038Y-81363962D03*
X164630000Y-69180000D03*
X164960000Y-61910000D03*
X161470000Y-74310000D03*
X165060000Y-81370002D03*
%TO.N,GND*%
X166862822Y-81256893D03*
X159479999Y-64488706D03*
X161220000Y-69040000D03*
X161750000Y-86050000D03*
X167190000Y-89640000D03*
X160882468Y-72218324D03*
X166979184Y-93030000D03*
X158430000Y-82440000D03*
X169230000Y-70800000D03*
X172001037Y-82278963D03*
X167940000Y-72580000D03*
X162996775Y-81627248D03*
%TO.N,GPIO29_ADC3*%
X171620000Y-57570000D03*
X166750000Y-77000000D03*
X170180000Y-63710000D03*
%TO.N,GPIO28_ADC2*%
X167531595Y-77352429D03*
X172000000Y-62750000D03*
%TO.N,GPIO27_ADC1*%
X167490831Y-78214279D03*
%TO.N,GPIO26_ADC0*%
X167881386Y-79777865D03*
%TO.N,GPIO19*%
X167489583Y-80475357D03*
%TO.N,GPIO17*%
X168430000Y-82470000D03*
X170790000Y-92060000D03*
%TO.N,GPIO16*%
X172200000Y-93750000D03*
%TO.N,GPIO0*%
X164499623Y-76765797D03*
%TO.N,GPIO1*%
X165190000Y-77169998D03*
X166705000Y-62210000D03*
X166830000Y-60700000D03*
X159070000Y-57420000D03*
X161090000Y-58020000D03*
%TO.N,GPIO2*%
X163280001Y-78256720D03*
%TO.N,GPIO3*%
X162875320Y-78946819D03*
%TO.N,GPIO4*%
X160711333Y-76644177D03*
%TO.N,GPIO5*%
X159914265Y-76575735D03*
%TO.N,GPIO6*%
X156032176Y-75269998D03*
X158470000Y-77250000D03*
%TO.N,GPIO7*%
X163140000Y-79780000D03*
%TO.N,GPIO8*%
X162853130Y-80840247D03*
%TO.N,GPIO9*%
X159370000Y-81400000D03*
%TO.N,GPIO14*%
X159050000Y-96150000D03*
%TO.N,GPIO15*%
X158180000Y-91750000D03*
X163780000Y-81790229D03*
%TO.N,SWCLK*%
X166380024Y-81894788D03*
%TD*%
%TO.N,+3V3*%
D34*
X167580000Y-75832500D02*
X167980000Y-75832500D01*
X168817500Y-80270000D02*
X170720000Y-80270000D01*
X160560000Y-80250000D02*
X160580000Y-80270000D01*
X163770000Y-61925000D02*
X164970000Y-63125000D01*
X169260000Y-85990000D02*
X169260000Y-87130000D01*
X167980000Y-75832500D02*
X168747500Y-75832500D01*
X161110000Y-75837500D02*
X161942500Y-76670000D01*
X169260000Y-87130000D02*
X169160000Y-87230000D01*
X165580000Y-74580000D02*
X165180000Y-74180000D01*
X161110000Y-75760000D02*
X161110000Y-75837500D01*
X164945000Y-61925000D02*
X164960000Y-61910000D01*
X163770000Y-63210000D02*
X163340000Y-63640000D01*
X170721178Y-74608822D02*
X169971178Y-74608822D01*
X170500000Y-75780000D02*
X170500000Y-76860000D01*
X165580000Y-75832500D02*
X165580000Y-74580000D01*
X164970000Y-67230000D02*
X163180000Y-69020000D01*
X169160000Y-87180000D02*
X169160000Y-87230000D01*
X169610000Y-76670000D02*
X170500000Y-75780000D01*
X163770000Y-61925000D02*
X164945000Y-61925000D01*
X165180000Y-74180000D02*
X165180000Y-69730000D01*
X165580000Y-81890002D02*
X165580000Y-82707500D01*
X165180000Y-69730000D02*
X164630000Y-69180000D01*
X167980000Y-75832500D02*
X168817500Y-76670000D01*
X164630000Y-69180000D02*
X163340000Y-69180000D01*
X170720000Y-80270000D02*
X170990000Y-80540000D01*
X163180000Y-69990000D02*
X163150000Y-70020000D01*
X165060000Y-81370002D02*
X165580000Y-81890002D01*
X160080000Y-74730000D02*
X161110000Y-75760000D01*
X163340000Y-69180000D02*
X163180000Y-69020000D01*
X170990000Y-80540000D02*
X170990000Y-81267924D01*
X170990000Y-81267924D02*
X171086038Y-81363962D01*
X170500000Y-74830000D02*
X170721178Y-74608822D01*
X163770000Y-61925000D02*
X163770000Y-63210000D01*
X167180000Y-85270000D02*
X167250000Y-85270000D01*
X170500000Y-76860000D02*
X170780000Y-77140000D01*
X160580000Y-80270000D02*
X161942500Y-80270000D01*
X163180000Y-69020000D02*
X163180000Y-69990000D01*
X169971178Y-74608822D02*
X169600000Y-74980000D01*
X165580000Y-83670000D02*
X167180000Y-85270000D01*
X161470000Y-74310000D02*
X161470000Y-74320000D01*
X170500000Y-75780000D02*
X170500000Y-74830000D01*
X161050000Y-74730000D02*
X161470000Y-74310000D01*
X167250000Y-85270000D02*
X168170000Y-86190000D01*
X168747500Y-75832500D02*
X169600000Y-74980000D01*
X159860000Y-74730000D02*
X161050000Y-74730000D01*
X161470000Y-74320000D02*
X162180000Y-75030000D01*
X168170000Y-86190000D02*
X169160000Y-87180000D01*
X164970000Y-63125000D02*
X164970000Y-67230000D01*
X168817500Y-76670000D02*
X169610000Y-76670000D01*
X165980000Y-75832500D02*
X165580000Y-75832500D01*
X159860000Y-74730000D02*
X160080000Y-74730000D01*
X165580000Y-82707500D02*
X165580000Y-83670000D01*
%TO.N,GND*%
X168170000Y-87150000D02*
X168100000Y-87150000D01*
X157860000Y-80250000D02*
X159600000Y-80250000D01*
X163910000Y-60406948D02*
X163910000Y-58740000D01*
X164380000Y-80270000D02*
X165380000Y-79270000D01*
X171400000Y-73930000D02*
X169690000Y-73930000D01*
X167190000Y-89640000D02*
X167190000Y-90020000D01*
X169980000Y-72730000D02*
X169980000Y-73640000D01*
X167190000Y-90020000D02*
X166830000Y-90380000D01*
X156490000Y-81620000D02*
X157860000Y-80250000D01*
X159479999Y-64488706D02*
X158670000Y-65298705D01*
X161910000Y-56220000D02*
X156490000Y-56220000D01*
X162220000Y-69020000D02*
X162220000Y-67920000D01*
X159600000Y-80250000D02*
X158430000Y-81420000D01*
X161870000Y-63130000D02*
X162380000Y-63640000D01*
X161220000Y-69040000D02*
X162200000Y-69040000D01*
X158670000Y-65298705D02*
X158670000Y-66740000D01*
X166862822Y-80752822D02*
X166862822Y-81256893D01*
X166000000Y-90380000D02*
X165620000Y-90000000D01*
X169370000Y-72120000D02*
X169980000Y-72730000D01*
X171400000Y-73930000D02*
X171400000Y-75720000D01*
X166830000Y-90380000D02*
X166000000Y-90380000D01*
X167680000Y-69970000D02*
X169370000Y-71660000D01*
X165620000Y-88430000D02*
X166860000Y-88430000D01*
X165620000Y-90000000D02*
X165620000Y-88430000D01*
X171400000Y-75720000D02*
X171460000Y-75780000D01*
X162200000Y-69040000D02*
X162220000Y-69020000D01*
X165354023Y-79270000D02*
X165380000Y-79270000D01*
X160760000Y-59530000D02*
X160760000Y-60815000D01*
X162005000Y-56315000D02*
X161910000Y-56220000D01*
X162130000Y-58160000D02*
X160760000Y-59530000D01*
X161870000Y-61925000D02*
X161870000Y-63130000D01*
X167680000Y-69970000D02*
X167710000Y-69940000D01*
X163020000Y-87130000D02*
X163420000Y-86730000D01*
X163920000Y-86730000D02*
X165620000Y-88430000D01*
X158040000Y-73929999D02*
X159870001Y-75760000D01*
X158040000Y-70470000D02*
X158040000Y-73929999D01*
X161870000Y-61925000D02*
X162391948Y-61925000D01*
X158670000Y-66740000D02*
X156490000Y-68920000D01*
X171950000Y-82227926D02*
X172001037Y-82278963D01*
X169980000Y-73640000D02*
X169600000Y-74020000D01*
X160150000Y-75760000D02*
X158490000Y-75760000D01*
X163420000Y-86730000D02*
X163920000Y-86730000D01*
X167710000Y-69940000D02*
X173250000Y-69940000D01*
X168630000Y-56315000D02*
X174175000Y-56315000D01*
X168170000Y-87200000D02*
X169160000Y-88190000D01*
X159870001Y-75760000D02*
X160150000Y-75760000D01*
X173250000Y-69940000D02*
X174270000Y-68920000D01*
X168630000Y-57790000D02*
X168130000Y-58290000D01*
X160300000Y-71520000D02*
X160300000Y-71635856D01*
X162130000Y-56315000D02*
X162130000Y-58160000D01*
X169370000Y-72120000D02*
X169370000Y-70940000D01*
X162996775Y-81627248D02*
X165354023Y-79270000D01*
X167940000Y-72580000D02*
X167940000Y-73660000D01*
X160760000Y-60815000D02*
X161870000Y-61925000D01*
X162391948Y-61925000D02*
X163910000Y-60406948D01*
X158430000Y-81420000D02*
X158430000Y-82440000D01*
X168100000Y-87150000D02*
X167180000Y-86230000D01*
X169690000Y-73930000D02*
X169600000Y-74020000D01*
X167170000Y-88120000D02*
X167200000Y-88120000D01*
X174175000Y-56315000D02*
X174270000Y-56220000D01*
X161850000Y-87130000D02*
X163020000Y-87130000D01*
X165380000Y-79270000D02*
X166862822Y-80752822D01*
X166830000Y-90380000D02*
X166830000Y-92880816D01*
X167200000Y-88120000D02*
X168170000Y-87150000D01*
X168130000Y-58290000D02*
X168130000Y-62780000D01*
X157870000Y-80240000D02*
X157860000Y-80250000D01*
X169370000Y-70940000D02*
X169230000Y-70800000D01*
X166830000Y-92880816D02*
X166979184Y-93030000D01*
X161060000Y-55400000D02*
X161215000Y-55400000D01*
X165600000Y-98940000D02*
X165380000Y-99160000D01*
X168170000Y-87150000D02*
X168170000Y-87200000D01*
X168130000Y-62780000D02*
X174270000Y-68920000D01*
X156490000Y-68920000D02*
X158040000Y-70470000D01*
X162130000Y-56315000D02*
X162005000Y-56315000D01*
X171950000Y-80540000D02*
X171950000Y-82227926D01*
X161750000Y-86050000D02*
X161750000Y-87030000D01*
X169370000Y-71660000D02*
X169370000Y-72120000D01*
X157870000Y-76380000D02*
X157870000Y-80240000D01*
X158490000Y-75760000D02*
X157870000Y-76380000D01*
X162380000Y-63980000D02*
X162380000Y-63640000D01*
X162220000Y-67920000D02*
X164270000Y-65870000D01*
X160300000Y-71635856D02*
X160882468Y-72218324D01*
X166860000Y-88430000D02*
X167170000Y-88120000D01*
X164270000Y-65870000D02*
X162380000Y-63980000D01*
X171950000Y-80540000D02*
X173190000Y-80540000D01*
X161215000Y-55400000D02*
X162130000Y-56315000D01*
X168630000Y-56315000D02*
X168630000Y-57790000D01*
X164380000Y-82707500D02*
X164380000Y-80270000D01*
X173190000Y-80540000D02*
X174270000Y-81620000D01*
%TO.N,USB_D+*%
X165630000Y-57195036D02*
X165630000Y-56315000D01*
X165910000Y-72506397D02*
X165655000Y-72251397D01*
X165655000Y-72251397D02*
X165655000Y-57427501D01*
X165630000Y-57072410D02*
X165362410Y-57340000D01*
X165630000Y-56315000D02*
X165630000Y-57072410D01*
X165630000Y-57402501D02*
X165630000Y-57195036D01*
X164630000Y-57320000D02*
X164630000Y-56315000D01*
X164650000Y-57340000D02*
X164630000Y-57320000D01*
X165362410Y-57340000D02*
X164650000Y-57340000D01*
X165910000Y-72900000D02*
X165910000Y-72506397D01*
X165655000Y-57427501D02*
X165630000Y-57402501D01*
%TO.N,Net-(U1-USB_DP)*%
X166380000Y-74390000D02*
X165910000Y-73920000D01*
X166380000Y-75832500D02*
X166380000Y-74390000D01*
%TO.N,VBUS*%
X169865406Y-52320000D02*
X173090000Y-52320000D01*
X167830000Y-55590001D02*
X167129999Y-54890000D01*
X161720000Y-59530000D02*
X162300000Y-59530000D01*
X167595000Y-56080000D02*
X167595000Y-54590406D01*
X173090000Y-52320000D02*
X174270000Y-51140000D01*
X167830000Y-56315000D02*
X167830000Y-55590001D01*
X167830000Y-56315000D02*
X167595000Y-56080000D01*
X167595000Y-54590406D02*
X169865406Y-52320000D01*
X167129999Y-54890000D02*
X163630001Y-54890000D01*
X162930000Y-55590001D02*
X162930000Y-56315000D01*
X162300000Y-59530000D02*
X162820000Y-60050000D01*
X162930000Y-56315000D02*
X162930000Y-57090000D01*
X162930000Y-57090000D02*
X162820000Y-57200000D01*
X163630001Y-54890000D02*
X162930000Y-55590001D01*
X162820000Y-57200000D02*
X162820000Y-60050000D01*
%TO.N,GPIO29_ADC3*%
X170180000Y-63710000D02*
X170180000Y-59010000D01*
X166997571Y-76752429D02*
X166750000Y-77000000D01*
X168097695Y-77070000D02*
X167780124Y-76752429D01*
X170180000Y-59010000D02*
X171620000Y-57570000D01*
X168817500Y-77070000D02*
X168097695Y-77070000D01*
X167780124Y-76752429D02*
X166997571Y-76752429D01*
%TO.N,GPIO28_ADC2*%
X172000000Y-62750000D02*
X172000000Y-61030000D01*
X168817500Y-77470000D02*
X167649166Y-77470000D01*
X172000000Y-61030000D02*
X174270000Y-58760000D01*
X167649166Y-77470000D02*
X167531595Y-77352429D01*
%TO.N,GPIO27_ADC1*%
X167835110Y-77870000D02*
X167490831Y-78214279D01*
X168817500Y-77870000D02*
X167835110Y-77870000D01*
%TO.N,GPIO26_ADC0*%
X167881386Y-78672254D02*
X167881386Y-79777865D01*
X168283640Y-78270000D02*
X167881386Y-78672254D01*
X168817500Y-78270000D02*
X168283640Y-78270000D01*
%TO.N,GPIO25*%
X172280000Y-78380000D02*
X172280000Y-73450000D01*
X168817500Y-78670000D02*
X171990000Y-78670000D01*
X171990000Y-78670000D02*
X172280000Y-78380000D01*
X172280000Y-73450000D02*
X174270000Y-71460000D01*
%TO.N,GPIO24*%
X168817500Y-79070000D02*
X172170000Y-79070000D01*
X172680000Y-78560000D02*
X172680000Y-75590000D01*
X172680000Y-75590000D02*
X174270000Y-74000000D01*
X172170000Y-79070000D02*
X172680000Y-78560000D01*
%TO.N,GPIO23*%
X168817500Y-79470000D02*
X172540000Y-79470000D01*
X173120000Y-77690000D02*
X174270000Y-76540000D01*
X172540000Y-79470000D02*
X173120000Y-78890000D01*
X173120000Y-78890000D02*
X173120000Y-77690000D01*
%TO.N,GPIO22*%
X168817500Y-79870000D02*
X173480000Y-79870000D01*
X173480000Y-79870000D02*
X174270000Y-79080000D01*
%TO.N,GPIO21*%
X170370000Y-81110000D02*
X170370000Y-81496453D01*
X173033547Y-84160000D02*
X174270000Y-84160000D01*
X170090000Y-80830000D02*
X170370000Y-81110000D01*
X169833866Y-80830000D02*
X170090000Y-80830000D01*
X169673866Y-80670000D02*
X169833866Y-80830000D01*
X170370000Y-81496453D02*
X173033547Y-84160000D01*
X168817500Y-80670000D02*
X169673866Y-80670000D01*
%TO.N,GPIO20*%
X169351360Y-81070000D02*
X174270000Y-85988640D01*
X174270000Y-85988640D02*
X174270000Y-86700000D01*
X168817500Y-81070000D02*
X169351360Y-81070000D01*
%TO.N,GPIO19*%
X168283640Y-81470000D02*
X168817500Y-81470000D01*
X168074464Y-81260824D02*
X168283640Y-81470000D01*
X168074464Y-80811815D02*
X168074464Y-81260824D01*
X167738006Y-80475357D02*
X168074464Y-80811815D01*
X167489583Y-80475357D02*
X167738006Y-80475357D01*
%TO.N,GPIO18*%
X172720000Y-85772500D02*
X172720000Y-90230000D01*
X172720000Y-90230000D02*
X174270000Y-91780000D01*
X168817500Y-81870000D02*
X172720000Y-85772500D01*
%TO.N,GPIO17*%
X167980000Y-82707500D02*
X168192500Y-82707500D01*
X170790000Y-92060000D02*
X170790000Y-93380000D01*
X170790000Y-93380000D02*
X174270000Y-96860000D01*
X168192500Y-82707500D02*
X168430000Y-82470000D01*
%TO.N,GPIO16*%
X167580000Y-83241360D02*
X168258640Y-83920000D01*
X167580000Y-82707500D02*
X167580000Y-83241360D01*
X172200000Y-85840000D02*
X172200000Y-93750000D01*
X168258640Y-83920000D02*
X170280000Y-83920000D01*
X170280000Y-83920000D02*
X172200000Y-85840000D01*
%TO.N,GPIO0*%
X161942500Y-77070000D02*
X163100000Y-77070000D01*
X163100000Y-77070000D02*
X163404203Y-76765797D01*
X163404203Y-76765797D02*
X164499623Y-76765797D01*
%TO.N,GPIO1*%
X164980000Y-77370000D02*
X163480000Y-77370000D01*
X163380000Y-77470000D02*
X161942500Y-77470000D01*
X166705000Y-60825000D02*
X166830000Y-60700000D01*
X159670000Y-58020000D02*
X159070000Y-57420000D01*
X163480000Y-77370000D02*
X163380000Y-77470000D01*
X161090000Y-58020000D02*
X159670000Y-58020000D01*
X166705000Y-62210000D02*
X166705000Y-60825000D01*
X165180002Y-77169998D02*
X164980000Y-77370000D01*
X165190000Y-77169998D02*
X165180002Y-77169998D01*
%TO.N,GPIO2*%
X162893281Y-77870000D02*
X163280001Y-78256720D01*
X161942500Y-77870000D02*
X162893281Y-77870000D01*
%TO.N,GPIO3*%
X162680000Y-78473640D02*
X162680000Y-78751499D01*
X161942500Y-78270000D02*
X162476360Y-78270000D01*
X162680000Y-78751499D02*
X162875320Y-78946819D01*
X162476360Y-78270000D02*
X162680000Y-78473640D01*
%TO.N,GPIO4*%
X160711333Y-77972693D02*
X160711333Y-76644177D01*
X161942500Y-78670000D02*
X161408640Y-78670000D01*
X161408640Y-78670000D02*
X160711333Y-77972693D01*
%TO.N,GPIO5*%
X159914265Y-76575735D02*
X159914265Y-78128579D01*
X159914265Y-78128579D02*
X160855686Y-79070000D01*
X160855686Y-79070000D02*
X161942500Y-79070000D01*
%TO.N,GPIO6*%
X160690000Y-79470000D02*
X158470000Y-77250000D01*
X157640000Y-74476346D02*
X157640000Y-72610000D01*
X157640000Y-72610000D02*
X156490000Y-71460000D01*
X156032176Y-75269998D02*
X156846348Y-75269998D01*
X156846348Y-75269998D02*
X157640000Y-74476346D01*
X161942500Y-79470000D02*
X160690000Y-79470000D01*
%TO.N,GPIO7*%
X161942500Y-79870000D02*
X163050000Y-79870000D01*
X163050000Y-79870000D02*
X163140000Y-79780000D01*
%TO.N,GPIO8*%
X162751146Y-80670000D02*
X161942500Y-80670000D01*
X162853130Y-80771984D02*
X162751146Y-80670000D01*
X162853130Y-80840247D02*
X162853130Y-80771984D01*
%TO.N,GPIO9*%
X159700000Y-81070000D02*
X159370000Y-81400000D01*
X161942500Y-81070000D02*
X159700000Y-81070000D01*
%TO.N,GPIO10*%
X161154314Y-81470000D02*
X158464315Y-84160000D01*
X158464315Y-84160000D02*
X156490000Y-84160000D01*
X161942500Y-81470000D02*
X161154314Y-81470000D01*
%TO.N,GPIO11*%
X161942500Y-81870000D02*
X161320000Y-81870000D01*
X161320000Y-81870000D02*
X156490000Y-86700000D01*
%TO.N,GPIO12*%
X159930000Y-87780000D02*
X158470000Y-89240000D01*
X159930000Y-84984315D02*
X159930000Y-87780000D01*
X158470000Y-89240000D02*
X156490000Y-89240000D01*
X162780000Y-82707500D02*
X162206815Y-82707500D01*
X162206815Y-82707500D02*
X159930000Y-84984315D01*
%TO.N,GPIO13*%
X163550000Y-84350000D02*
X161130000Y-84350000D01*
X158360000Y-89910000D02*
X156490000Y-91780000D01*
X161130000Y-84350000D02*
X160330000Y-85150000D01*
X163550000Y-84095686D02*
X163550000Y-84350000D01*
X163180000Y-82707500D02*
X163180000Y-83725686D01*
X160330000Y-85150000D02*
X160330000Y-89910000D01*
X163180000Y-83725686D02*
X163550000Y-84095686D01*
X160330000Y-89910000D02*
X158360000Y-89910000D01*
%TO.N,GPIO14*%
X160730000Y-95530000D02*
X159670000Y-95530000D01*
X160730000Y-85655785D02*
X160730000Y-95530000D01*
X163760000Y-84880000D02*
X161505785Y-84880000D01*
X161505785Y-84880000D02*
X160730000Y-85655785D01*
X163580000Y-83560000D02*
X163950000Y-83930000D01*
X163580000Y-82707500D02*
X163580000Y-83560000D01*
X163950000Y-84690000D02*
X163760000Y-84880000D01*
X159670000Y-95530000D02*
X159050000Y-96150000D01*
X163950000Y-83930000D02*
X163950000Y-84690000D01*
%TO.N,GPIO15*%
X163980000Y-81990229D02*
X163780000Y-81790229D01*
X163980000Y-82707500D02*
X163980000Y-81990229D01*
X158180000Y-91750000D02*
X158180000Y-97710000D01*
X158180000Y-97710000D02*
X156490000Y-99400000D01*
%TO.N,XIN*%
X161671471Y-85280000D02*
X161150000Y-85801471D01*
X164350000Y-85280000D02*
X161671471Y-85280000D01*
X161850000Y-88090000D02*
X163080000Y-88090000D01*
X161150000Y-87390000D02*
X161850000Y-88090000D01*
X161150000Y-85801471D02*
X161150000Y-87390000D01*
X164780000Y-82707500D02*
X164780000Y-83761076D01*
X164780000Y-83761076D02*
X164350000Y-84191076D01*
X164350000Y-84191076D02*
X164350000Y-85280000D01*
X163080000Y-88090000D02*
X163420000Y-88430000D01*
%TO.N,XOUT*%
X165180000Y-82707500D02*
X165180000Y-84230000D01*
X165180000Y-84230000D02*
X166200000Y-85250000D01*
%TO.N,+1V1*%
X165180000Y-75832500D02*
X165180000Y-75630000D01*
X167680000Y-71390000D02*
X169370000Y-73080000D01*
X167940000Y-74620000D02*
X169370000Y-73190000D01*
X167180000Y-75298640D02*
X167858640Y-74620000D01*
X169370000Y-73190000D02*
X169370000Y-73080000D01*
X167180000Y-75832500D02*
X167180000Y-75298640D01*
X167858640Y-74620000D02*
X167940000Y-74620000D01*
X167680000Y-70930000D02*
X167680000Y-71390000D01*
%TO.N,SWCLK*%
X166380025Y-81894939D02*
X166380000Y-81894964D01*
X166380000Y-81894964D02*
X166380000Y-82707500D01*
X166380024Y-81894788D02*
X166380025Y-81894789D01*
X166380025Y-81894789D02*
X166380025Y-81894939D01*
%TO.N,SWDI0*%
X166780000Y-82707500D02*
X166780000Y-83863866D01*
X169508529Y-85390000D02*
X169860000Y-85741471D01*
X169860000Y-88426134D02*
X169326134Y-88960000D01*
X168380000Y-88960000D02*
X167920000Y-89420000D01*
X168306134Y-85390000D02*
X169508529Y-85390000D01*
X166780000Y-83863866D02*
X168306134Y-85390000D01*
X167920000Y-89420000D02*
X167920000Y-99160000D01*
X169326134Y-88960000D02*
X168380000Y-88960000D01*
X169860000Y-85741471D02*
X169860000Y-88426134D01*
%TO.N,Net-(U1-USB_DM)*%
X166780000Y-75832500D02*
X166780000Y-74060000D01*
X166780000Y-74060000D02*
X166930000Y-73910000D01*
%TO.N,QSPI_SD3*%
X163150000Y-70520000D02*
X163680071Y-70520000D01*
X163680071Y-70520000D02*
X164780000Y-71619929D01*
X164780000Y-71619929D02*
X164780000Y-75832500D01*
%TO.N,QSPI_SCLK*%
X164380000Y-71785614D02*
X164380000Y-75832500D01*
X163614386Y-71020000D02*
X164380000Y-71785614D01*
X163150000Y-71020000D02*
X163614386Y-71020000D01*
%TO.N,QSPI_SD0*%
X163150000Y-71520000D02*
X163980000Y-72350000D01*
X163980000Y-72350000D02*
X163980000Y-75832500D01*
%TO.N,QSPI_SD2*%
X161050000Y-71305614D02*
X161050000Y-71480000D01*
X160300000Y-71020000D02*
X160764386Y-71020000D01*
X161050000Y-71480000D02*
X163580000Y-74010000D01*
X160764386Y-71020000D02*
X161050000Y-71305614D01*
X163580000Y-74010000D02*
X163580000Y-75832500D01*
%TO.N,QSPI_SD1*%
X162040000Y-73040000D02*
X163180000Y-74180000D01*
X163180000Y-74180000D02*
X163180000Y-75832500D01*
X160300000Y-70520000D02*
X159835614Y-70520000D01*
X159550000Y-70805614D02*
X159550000Y-71734386D01*
X160855614Y-73040000D02*
X162040000Y-73040000D01*
X159835614Y-70520000D02*
X159550000Y-70805614D01*
X159550000Y-71734386D02*
X160855614Y-73040000D01*
%TO.N,QSPI_SS*%
X161874314Y-73440000D02*
X162780000Y-74345686D01*
X159769929Y-70020000D02*
X159150000Y-70639929D01*
X160090000Y-68860000D02*
X160090000Y-69810000D01*
X160689929Y-73440000D02*
X161874314Y-73440000D01*
X159860000Y-73710000D02*
X161604314Y-73710000D01*
X161604314Y-73710000D02*
X161874314Y-73440000D01*
X160090000Y-69810000D02*
X160300000Y-70020000D01*
X162780000Y-74345686D02*
X162780000Y-75832500D01*
X159150000Y-70639929D02*
X159150000Y-71900072D01*
X159150000Y-71900072D02*
X160689929Y-73440000D01*
X160300000Y-70020000D02*
X159769929Y-70020000D01*
%TO.N,Net-(J1-CC1)*%
X166630000Y-57810000D02*
X167110000Y-58290000D01*
X166630000Y-56315000D02*
X166630000Y-57810000D01*
%TO.N,USB_D-*%
X165297590Y-55290000D02*
X165130000Y-55457590D01*
X166130000Y-56315000D02*
X166130000Y-55557590D01*
X166130000Y-57402501D02*
X166105000Y-57427501D01*
X166105000Y-60778941D02*
X166105000Y-63200020D01*
X166130000Y-57402501D02*
X166130000Y-56315000D01*
X166105000Y-63200020D02*
X166105000Y-72065000D01*
X166130000Y-55557590D02*
X165862410Y-55290000D01*
X166105000Y-72065000D02*
X166930000Y-72890000D01*
X167090000Y-73139999D02*
X166810000Y-72859999D01*
X165130000Y-55457590D02*
X165130000Y-56315000D01*
X165862410Y-55290000D02*
X165297590Y-55290000D01*
X166105000Y-57427501D02*
X166105000Y-57805838D01*
X166105000Y-57805838D02*
X166105000Y-60778941D01*
%TO.N,Net-(J1-CC2)*%
X163630000Y-57090000D02*
X164930000Y-58390000D01*
X163630000Y-56315000D02*
X163630000Y-57090000D01*
X164930000Y-58390000D02*
X164930000Y-58740000D01*
%TO.N,Net-(C15-Pad2)*%
X166740000Y-86730000D02*
X167170000Y-87160000D01*
X165180000Y-85250000D02*
X165180000Y-86290000D01*
X165620000Y-86730000D02*
X166740000Y-86730000D01*
X165180000Y-86290000D02*
X165620000Y-86730000D01*
%TO.N,Net-(R6-Pad1)*%
X159070000Y-68860000D02*
X159070000Y-66870000D01*
X159070000Y-66870000D02*
X160070000Y-65870000D01*
%TD*%
%TA.AperFunction,Conductor*%
%TO.N,GND*%
G36*
X168292539Y-87169685D02*
G01*
X168338294Y-87222489D01*
X168349500Y-87274000D01*
X168349500Y-87434697D01*
X168352356Y-87470991D01*
X168352357Y-87470997D01*
X168397503Y-87626389D01*
X168397505Y-87626393D01*
X168397506Y-87626395D01*
X168402732Y-87635233D01*
X168420000Y-87698352D01*
X168420000Y-87940000D01*
X168661648Y-87940000D01*
X168724766Y-87957267D01*
X168733605Y-87962494D01*
X168733608Y-87962494D01*
X168733610Y-87962496D01*
X168889002Y-88007642D01*
X168889005Y-88007642D01*
X168889007Y-88007643D01*
X168925310Y-88010500D01*
X169036000Y-88010500D01*
X169103039Y-88030185D01*
X169148794Y-88082989D01*
X169160000Y-88134500D01*
X169160000Y-88225535D01*
X169140315Y-88292574D01*
X169123686Y-88313212D01*
X169113722Y-88323177D01*
X169052400Y-88356665D01*
X169026036Y-88359500D01*
X168300942Y-88359500D01*
X168148212Y-88400423D01*
X168138140Y-88406239D01*
X168070239Y-88422708D01*
X168004213Y-88399854D01*
X167976983Y-88373301D01*
X167974505Y-88370000D01*
X167420000Y-88370000D01*
X167420000Y-88900767D01*
X167453220Y-88956305D01*
X167450974Y-89026139D01*
X167440570Y-89049395D01*
X167420767Y-89083695D01*
X167411739Y-89099334D01*
X167386081Y-89143774D01*
X167360423Y-89188214D01*
X167360423Y-89188215D01*
X167319499Y-89340943D01*
X167319499Y-89340945D01*
X167319499Y-89509046D01*
X167319500Y-89509059D01*
X167319500Y-97874281D01*
X167299815Y-97941320D01*
X167251795Y-97984765D01*
X167212185Y-98004947D01*
X167212184Y-98004948D01*
X167040213Y-98129890D01*
X166889890Y-98280213D01*
X166764949Y-98452182D01*
X166760202Y-98461499D01*
X166712227Y-98512293D01*
X166644405Y-98529087D01*
X166578271Y-98506548D01*
X166539234Y-98461495D01*
X166534626Y-98452452D01*
X166495270Y-98398282D01*
X166495269Y-98398282D01*
X165862962Y-99030590D01*
X165845925Y-98967007D01*
X165780099Y-98852993D01*
X165687007Y-98759901D01*
X165572993Y-98694075D01*
X165509409Y-98677037D01*
X166141716Y-98044728D01*
X166087550Y-98005375D01*
X165898217Y-97908904D01*
X165696129Y-97843242D01*
X165486246Y-97810000D01*
X165273754Y-97810000D01*
X165063872Y-97843242D01*
X165063869Y-97843242D01*
X164861782Y-97908904D01*
X164672439Y-98005380D01*
X164618282Y-98044727D01*
X164618282Y-98044728D01*
X165250591Y-98677037D01*
X165187007Y-98694075D01*
X165072993Y-98759901D01*
X164979901Y-98852993D01*
X164914075Y-98967007D01*
X164897037Y-99030591D01*
X164226818Y-98360372D01*
X164193333Y-98299049D01*
X164193330Y-98299036D01*
X164190499Y-98286015D01*
X164190499Y-98262128D01*
X164184091Y-98202517D01*
X164137917Y-98078717D01*
X164133798Y-98067673D01*
X164133793Y-98067664D01*
X164047547Y-97952455D01*
X164047544Y-97952452D01*
X163932335Y-97866206D01*
X163932328Y-97866202D01*
X163797482Y-97815908D01*
X163797483Y-97815908D01*
X163737883Y-97809501D01*
X163737881Y-97809500D01*
X163737873Y-97809500D01*
X163737864Y-97809500D01*
X161942129Y-97809500D01*
X161942123Y-97809501D01*
X161882516Y-97815908D01*
X161747671Y-97866202D01*
X161747664Y-97866206D01*
X161632455Y-97952452D01*
X161632452Y-97952455D01*
X161546206Y-98067664D01*
X161546202Y-98067671D01*
X161495908Y-98202517D01*
X161489501Y-98262116D01*
X161489500Y-98262135D01*
X161489500Y-100057870D01*
X161489501Y-100057876D01*
X161496738Y-100125196D01*
X161495342Y-100125345D01*
X161492050Y-100186756D01*
X161451182Y-100243427D01*
X161386163Y-100269007D01*
X161375114Y-100269500D01*
X157765019Y-100269500D01*
X157697980Y-100249815D01*
X157652225Y-100197011D01*
X157642281Y-100127853D01*
X157654534Y-100089205D01*
X157679714Y-100039786D01*
X157741557Y-99918412D01*
X157807246Y-99716243D01*
X157840500Y-99506287D01*
X157840500Y-99293713D01*
X157807246Y-99083757D01*
X157793506Y-99041473D01*
X157791512Y-98971635D01*
X157823755Y-98915478D01*
X158538506Y-98200728D01*
X158538511Y-98200724D01*
X158548714Y-98190520D01*
X158548716Y-98190520D01*
X158660520Y-98078716D01*
X158733416Y-97952456D01*
X158733417Y-97952455D01*
X158735916Y-97948125D01*
X158739577Y-97941785D01*
X158780501Y-97789057D01*
X158780501Y-97630943D01*
X158780501Y-97623348D01*
X158780500Y-97623330D01*
X158780500Y-97063670D01*
X158800185Y-96996631D01*
X158852989Y-96950876D01*
X158922147Y-96940932D01*
X158928692Y-96942053D01*
X158971156Y-96950500D01*
X158971158Y-96950500D01*
X159128844Y-96950500D01*
X159128845Y-96950499D01*
X159283497Y-96919737D01*
X159429179Y-96859394D01*
X159560289Y-96771789D01*
X159671789Y-96660289D01*
X159759394Y-96529179D01*
X159819737Y-96383497D01*
X159827098Y-96346488D01*
X159850209Y-96230308D01*
X159882594Y-96168397D01*
X159943310Y-96133823D01*
X159971826Y-96130500D01*
X160809055Y-96130500D01*
X160809057Y-96130500D01*
X160961784Y-96089577D01*
X161098716Y-96010520D01*
X161210520Y-95898716D01*
X161289577Y-95761784D01*
X161330500Y-95609057D01*
X161330500Y-88960597D01*
X161350185Y-88893558D01*
X161402989Y-88847803D01*
X161472147Y-88837859D01*
X161489094Y-88841520D01*
X161579007Y-88867643D01*
X161615310Y-88870500D01*
X161615318Y-88870500D01*
X162084682Y-88870500D01*
X162084690Y-88870500D01*
X162109318Y-88868561D01*
X162177693Y-88882924D01*
X162227451Y-88931974D01*
X162236753Y-88953174D01*
X162285186Y-89099334D01*
X162377288Y-89248656D01*
X162501344Y-89372712D01*
X162650666Y-89464814D01*
X162817203Y-89519999D01*
X162919991Y-89530500D01*
X163920008Y-89530499D01*
X163920016Y-89530498D01*
X163920019Y-89530498D01*
X163976302Y-89524748D01*
X164022797Y-89519999D01*
X164189334Y-89464814D01*
X164338656Y-89372712D01*
X164432675Y-89278692D01*
X164493994Y-89245210D01*
X164563686Y-89250194D01*
X164608034Y-89278695D01*
X164701654Y-89372315D01*
X164850875Y-89464356D01*
X164850880Y-89464358D01*
X165017302Y-89519505D01*
X165017309Y-89519506D01*
X165120019Y-89529999D01*
X165369999Y-89529999D01*
X165370000Y-89529998D01*
X165370000Y-88554000D01*
X165389685Y-88486961D01*
X165442489Y-88441206D01*
X165494000Y-88430000D01*
X165746000Y-88430000D01*
X165813039Y-88449685D01*
X165858794Y-88502489D01*
X165870000Y-88554000D01*
X165870000Y-89529999D01*
X166119972Y-89529999D01*
X166119986Y-89529998D01*
X166222697Y-89519505D01*
X166389119Y-89464358D01*
X166389124Y-89464356D01*
X166538345Y-89372315D01*
X166662315Y-89248345D01*
X166754356Y-89099124D01*
X166754358Y-89099119D01*
X166792699Y-88983414D01*
X166832471Y-88925969D01*
X166896987Y-88899146D01*
X166919987Y-88898802D01*
X166920000Y-88898790D01*
X166920000Y-88244000D01*
X166939685Y-88176961D01*
X166992489Y-88131206D01*
X167044000Y-88120000D01*
X167170000Y-88120000D01*
X167170000Y-88064500D01*
X167189685Y-87997461D01*
X167242489Y-87951706D01*
X167294000Y-87940500D01*
X167404682Y-87940500D01*
X167404690Y-87940500D01*
X167440993Y-87937643D01*
X167440995Y-87937642D01*
X167440997Y-87937642D01*
X167596389Y-87892496D01*
X167596389Y-87892495D01*
X167596395Y-87892494D01*
X167605233Y-87887267D01*
X167668352Y-87870000D01*
X167920000Y-87870000D01*
X167920000Y-87610946D01*
X167930200Y-87561697D01*
X167932494Y-87556394D01*
X167935241Y-87546941D01*
X167977643Y-87400993D01*
X167980500Y-87364690D01*
X167980500Y-87274000D01*
X168000185Y-87206961D01*
X168052989Y-87161206D01*
X168104500Y-87150000D01*
X168225500Y-87150000D01*
X168292539Y-87169685D01*
G37*
%TD.AperFunction*%
%TA.AperFunction,Conductor*%
G36*
X166495270Y-99921717D02*
G01*
X166495270Y-99921716D01*
X166534622Y-99867555D01*
X166539232Y-99858507D01*
X166587205Y-99807709D01*
X166655025Y-99790912D01*
X166721161Y-99813447D01*
X166760204Y-99858504D01*
X166764949Y-99867817D01*
X166889890Y-100039786D01*
X166907923Y-100057819D01*
X166941408Y-100119142D01*
X166936424Y-100188834D01*
X166894552Y-100244767D01*
X166829088Y-100269184D01*
X166820242Y-100269500D01*
X166187308Y-100269500D01*
X166120269Y-100249815D01*
X166099627Y-100233181D01*
X165509408Y-99642962D01*
X165572993Y-99625925D01*
X165687007Y-99560099D01*
X165780099Y-99467007D01*
X165845925Y-99352993D01*
X165862962Y-99289408D01*
X166495270Y-99921717D01*
G37*
%TD.AperFunction*%
%TA.AperFunction,Conductor*%
G36*
X175343181Y-95039627D02*
G01*
X175376666Y-95100950D01*
X175379500Y-95127308D01*
X175379500Y-95760242D01*
X175359815Y-95827281D01*
X175307011Y-95873036D01*
X175237853Y-95882980D01*
X175174297Y-95853955D01*
X175167819Y-95847923D01*
X175149786Y-95829890D01*
X174977817Y-95704949D01*
X174968504Y-95700204D01*
X174917707Y-95652230D01*
X174900912Y-95584409D01*
X174923449Y-95518274D01*
X174968507Y-95479232D01*
X174977555Y-95474622D01*
X175031716Y-95435270D01*
X175031717Y-95435270D01*
X174399408Y-94802962D01*
X174462993Y-94785925D01*
X174577007Y-94720099D01*
X174670099Y-94627007D01*
X174735925Y-94512993D01*
X174752962Y-94449408D01*
X175343181Y-95039627D01*
G37*
%TD.AperFunction*%
%TA.AperFunction,Conductor*%
G36*
X156024075Y-94512993D02*
G01*
X156089901Y-94627007D01*
X156182993Y-94720099D01*
X156297007Y-94785925D01*
X156360590Y-94802962D01*
X155728282Y-95435269D01*
X155728282Y-95435270D01*
X155782452Y-95474626D01*
X155782451Y-95474626D01*
X155791495Y-95479234D01*
X155842292Y-95527208D01*
X155859087Y-95595029D01*
X155836550Y-95661164D01*
X155791499Y-95700202D01*
X155782182Y-95704949D01*
X155610213Y-95829890D01*
X155610209Y-95829894D01*
X155592181Y-95847923D01*
X155530858Y-95881408D01*
X155461166Y-95876424D01*
X155405233Y-95834552D01*
X155380816Y-95769088D01*
X155380500Y-95760242D01*
X155380500Y-95127308D01*
X155400185Y-95060269D01*
X155416819Y-95039627D01*
X156007037Y-94449408D01*
X156024075Y-94512993D01*
G37*
%TD.AperFunction*%
%TA.AperFunction,Conductor*%
G36*
X157543181Y-95019627D02*
G01*
X157576666Y-95080950D01*
X157579500Y-95107308D01*
X157579500Y-95740242D01*
X157559815Y-95807281D01*
X157507011Y-95853036D01*
X157437853Y-95862980D01*
X157374297Y-95833955D01*
X157371554Y-95831401D01*
X157369786Y-95829890D01*
X157197817Y-95704949D01*
X157188504Y-95700204D01*
X157137707Y-95652230D01*
X157120912Y-95584409D01*
X157143449Y-95518274D01*
X157188507Y-95479232D01*
X157197555Y-95474622D01*
X157251716Y-95435270D01*
X157251717Y-95435270D01*
X156619408Y-94802962D01*
X156682993Y-94785925D01*
X156797007Y-94720099D01*
X156890099Y-94627007D01*
X156955925Y-94512993D01*
X156972962Y-94449408D01*
X157543181Y-95019627D01*
G37*
%TD.AperFunction*%
%TA.AperFunction,Conductor*%
G36*
X155585703Y-92786045D02*
G01*
X155592181Y-92792077D01*
X155610213Y-92810109D01*
X155782179Y-92935048D01*
X155782181Y-92935049D01*
X155782184Y-92935051D01*
X155791493Y-92939794D01*
X155842290Y-92987766D01*
X155859087Y-93055587D01*
X155836552Y-93121722D01*
X155791505Y-93160760D01*
X155782446Y-93165376D01*
X155782440Y-93165380D01*
X155728282Y-93204727D01*
X155728282Y-93204728D01*
X156360591Y-93837037D01*
X156297007Y-93854075D01*
X156182993Y-93919901D01*
X156089901Y-94012993D01*
X156024075Y-94127007D01*
X156007037Y-94190591D01*
X155416819Y-93600373D01*
X155383334Y-93539050D01*
X155380500Y-93512692D01*
X155380500Y-92879758D01*
X155400185Y-92812719D01*
X155452989Y-92766964D01*
X155522147Y-92757020D01*
X155585703Y-92786045D01*
G37*
%TD.AperFunction*%
%TA.AperFunction,Conductor*%
G36*
X157498834Y-92783576D02*
G01*
X157554767Y-92825448D01*
X157579184Y-92890912D01*
X157579500Y-92899758D01*
X157579500Y-93532692D01*
X157559815Y-93599731D01*
X157543181Y-93620373D01*
X156972962Y-94190591D01*
X156955925Y-94127007D01*
X156890099Y-94012993D01*
X156797007Y-93919901D01*
X156682993Y-93854075D01*
X156619409Y-93837037D01*
X157251716Y-93204728D01*
X157197547Y-93165373D01*
X157197547Y-93165372D01*
X157188500Y-93160763D01*
X157137706Y-93112788D01*
X157120912Y-93044966D01*
X157143451Y-92978832D01*
X157188508Y-92939793D01*
X157197816Y-92935051D01*
X157348673Y-92825448D01*
X157369786Y-92810109D01*
X157373488Y-92806947D01*
X157374673Y-92808334D01*
X157429142Y-92778592D01*
X157498834Y-92783576D01*
G37*
%TD.AperFunction*%
%TA.AperFunction,Conductor*%
G36*
X172947942Y-92267080D02*
G01*
X172954308Y-92266808D01*
X172979338Y-92281418D01*
X173005703Y-92293459D01*
X173010527Y-92299624D01*
X173014649Y-92302030D01*
X173034758Y-92330435D01*
X173034911Y-92330732D01*
X173114949Y-92487816D01*
X173117673Y-92491565D01*
X173117674Y-92491567D01*
X173239890Y-92659786D01*
X173390213Y-92810109D01*
X173562179Y-92935048D01*
X173562181Y-92935049D01*
X173562184Y-92935051D01*
X173571493Y-92939794D01*
X173622290Y-92987766D01*
X173639087Y-93055587D01*
X173616552Y-93121722D01*
X173571505Y-93160760D01*
X173562446Y-93165376D01*
X173562440Y-93165380D01*
X173508282Y-93204727D01*
X173508282Y-93204728D01*
X174140591Y-93837037D01*
X174077007Y-93854075D01*
X173962993Y-93919901D01*
X173869901Y-94012993D01*
X173804075Y-94127007D01*
X173787037Y-94190591D01*
X173154728Y-93558282D01*
X173134314Y-93559889D01*
X173122743Y-93568812D01*
X173053129Y-93574790D01*
X172991335Y-93542182D01*
X172963196Y-93500712D01*
X172909397Y-93370826D01*
X172909390Y-93370814D01*
X172821398Y-93239125D01*
X172800520Y-93172447D01*
X172800500Y-93170234D01*
X172800500Y-92387172D01*
X172802294Y-92381059D01*
X172801119Y-92374797D01*
X172812021Y-92347935D01*
X172820185Y-92320133D01*
X172824998Y-92315962D01*
X172827395Y-92310057D01*
X172851091Y-92293352D01*
X172872989Y-92274378D01*
X172879293Y-92273471D01*
X172884502Y-92269800D01*
X172913459Y-92268558D01*
X172942147Y-92264434D01*
X172947942Y-92267080D01*
G37*
%TD.AperFunction*%
%TA.AperFunction,Conductor*%
G36*
X175298834Y-92763576D02*
G01*
X175354767Y-92805448D01*
X175379184Y-92870912D01*
X175379500Y-92879758D01*
X175379500Y-93512692D01*
X175359815Y-93579731D01*
X175343181Y-93600373D01*
X174752962Y-94190591D01*
X174735925Y-94127007D01*
X174670099Y-94012993D01*
X174577007Y-93919901D01*
X174462993Y-93854075D01*
X174399409Y-93837037D01*
X175031716Y-93204728D01*
X174977547Y-93165373D01*
X174977547Y-93165372D01*
X174968500Y-93160763D01*
X174917706Y-93112788D01*
X174900912Y-93044966D01*
X174923451Y-92978832D01*
X174968508Y-92939793D01*
X174977816Y-92935051D01*
X175128673Y-92825448D01*
X175149786Y-92810109D01*
X175149788Y-92810106D01*
X175149792Y-92810104D01*
X175167819Y-92792077D01*
X175229142Y-92758592D01*
X175298834Y-92763576D01*
G37*
%TD.AperFunction*%
%TA.AperFunction,Conductor*%
G36*
X162242152Y-85900185D02*
G01*
X162287907Y-85952989D01*
X162297851Y-86022147D01*
X162287496Y-86056904D01*
X162285641Y-86060881D01*
X162230494Y-86227302D01*
X162230493Y-86227308D01*
X162229208Y-86239890D01*
X162190075Y-86235891D01*
X162164498Y-86282748D01*
X162139829Y-86314393D01*
X162100000Y-86351210D01*
X162100000Y-87006000D01*
X162080315Y-87073039D01*
X162027511Y-87118794D01*
X161976000Y-87130000D01*
X161874500Y-87130000D01*
X161807461Y-87110315D01*
X161761706Y-87057511D01*
X161750500Y-87006000D01*
X161750500Y-86101568D01*
X161770185Y-86034529D01*
X161786819Y-86013887D01*
X161883887Y-85916819D01*
X161945210Y-85883334D01*
X161971568Y-85880500D01*
X162175113Y-85880500D01*
X162242152Y-85900185D01*
G37*
%TD.AperFunction*%
%TA.AperFunction,Conductor*%
G36*
X157628626Y-77413782D02*
G01*
X157684560Y-77455653D01*
X157699854Y-77482511D01*
X157760604Y-77629176D01*
X157760609Y-77629185D01*
X157848210Y-77760288D01*
X157848213Y-77760292D01*
X157959707Y-77871786D01*
X157959711Y-77871789D01*
X158090814Y-77959390D01*
X158090827Y-77959397D01*
X158181637Y-77997011D01*
X158236503Y-78019737D01*
X158279869Y-78028363D01*
X158391849Y-78050638D01*
X158453760Y-78083023D01*
X158455339Y-78084574D01*
X159813681Y-79442916D01*
X159847166Y-79504239D01*
X159850000Y-79530597D01*
X159850000Y-79751645D01*
X159832734Y-79814763D01*
X159827507Y-79823600D01*
X159827504Y-79823608D01*
X159782357Y-79979002D01*
X159782356Y-79979008D01*
X159779500Y-80015302D01*
X159779500Y-80126000D01*
X159759815Y-80193039D01*
X159707011Y-80238794D01*
X159655500Y-80250000D01*
X159600000Y-80250000D01*
X159600000Y-80376000D01*
X159580315Y-80443039D01*
X159527511Y-80488794D01*
X159476000Y-80500000D01*
X158821210Y-80500000D01*
X158822854Y-80520910D01*
X158868616Y-80678426D01*
X158868416Y-80748295D01*
X158837220Y-80800701D01*
X158748213Y-80889707D01*
X158748210Y-80889711D01*
X158660609Y-81020814D01*
X158660602Y-81020827D01*
X158600264Y-81166498D01*
X158600261Y-81166510D01*
X158569500Y-81321153D01*
X158569500Y-81478846D01*
X158600261Y-81633489D01*
X158600264Y-81633501D01*
X158660602Y-81779172D01*
X158660609Y-81779185D01*
X158748210Y-81910288D01*
X158748213Y-81910292D01*
X158859707Y-82021786D01*
X158859711Y-82021789D01*
X158990814Y-82109390D01*
X158990827Y-82109397D01*
X159060406Y-82138217D01*
X159136503Y-82169737D01*
X159194767Y-82181326D01*
X159297132Y-82201689D01*
X159296743Y-82203643D01*
X159353037Y-82226372D01*
X159393399Y-82283404D01*
X159396518Y-82353204D01*
X159363781Y-82411298D01*
X158251899Y-83523181D01*
X158190576Y-83556666D01*
X158164218Y-83559500D01*
X157775719Y-83559500D01*
X157708680Y-83539815D01*
X157665235Y-83491795D01*
X157645052Y-83452185D01*
X157645051Y-83452184D01*
X157520109Y-83280213D01*
X157369786Y-83129890D01*
X157197817Y-83004949D01*
X157188504Y-83000204D01*
X157137707Y-82952230D01*
X157120912Y-82884409D01*
X157143449Y-82818274D01*
X157188507Y-82779232D01*
X157197555Y-82774622D01*
X157251716Y-82735270D01*
X157251717Y-82735270D01*
X156619408Y-82102962D01*
X156682993Y-82085925D01*
X156797007Y-82020099D01*
X156890099Y-81927007D01*
X156955925Y-81812993D01*
X156972962Y-81749408D01*
X157605270Y-82381717D01*
X157605270Y-82381716D01*
X157644622Y-82327554D01*
X157741095Y-82138217D01*
X157806757Y-81936130D01*
X157806757Y-81936127D01*
X157840000Y-81726246D01*
X157840000Y-81513753D01*
X157806757Y-81303872D01*
X157806757Y-81303869D01*
X157741095Y-81101782D01*
X157644624Y-80912449D01*
X157605270Y-80858282D01*
X157605269Y-80858282D01*
X156972962Y-81490590D01*
X156955925Y-81427007D01*
X156890099Y-81312993D01*
X156797007Y-81219901D01*
X156682993Y-81154075D01*
X156619409Y-81137037D01*
X157251716Y-80504728D01*
X157197547Y-80465373D01*
X157197547Y-80465372D01*
X157188500Y-80460763D01*
X157137706Y-80412788D01*
X157120912Y-80344966D01*
X157143451Y-80278832D01*
X157188508Y-80239793D01*
X157197816Y-80235051D01*
X157286096Y-80170912D01*
X157369786Y-80110109D01*
X157369788Y-80110106D01*
X157369792Y-80110104D01*
X157479897Y-79999999D01*
X158821209Y-79999999D01*
X158821210Y-80000000D01*
X159350000Y-80000000D01*
X159350000Y-79445494D01*
X159349998Y-79445493D01*
X159203809Y-79487965D01*
X159203806Y-79487967D01*
X159064625Y-79570278D01*
X159064616Y-79570285D01*
X158950285Y-79684616D01*
X158950278Y-79684625D01*
X158867968Y-79823804D01*
X158867966Y-79823809D01*
X158822855Y-79979081D01*
X158822854Y-79979087D01*
X158821209Y-79999999D01*
X157479897Y-79999999D01*
X157520104Y-79959792D01*
X157520106Y-79959788D01*
X157520109Y-79959786D01*
X157645048Y-79787820D01*
X157645047Y-79787820D01*
X157645051Y-79787816D01*
X157741557Y-79598412D01*
X157807246Y-79396243D01*
X157840500Y-79186287D01*
X157840500Y-78973713D01*
X157807246Y-78763757D01*
X157741557Y-78561588D01*
X157645051Y-78372184D01*
X157645049Y-78372181D01*
X157645048Y-78372179D01*
X157520109Y-78200213D01*
X157369786Y-78049890D01*
X157197820Y-77924951D01*
X157197115Y-77924591D01*
X157189054Y-77920485D01*
X157138259Y-77872512D01*
X157121463Y-77804692D01*
X157143999Y-77738556D01*
X157189054Y-77699515D01*
X157197816Y-77695051D01*
X157314007Y-77610634D01*
X157369784Y-77570110D01*
X157369784Y-77570109D01*
X157369792Y-77570104D01*
X157497615Y-77442280D01*
X157558934Y-77408798D01*
X157628626Y-77413782D01*
G37*
%TD.AperFunction*%
%TA.AperFunction,Conductor*%
G36*
X173393347Y-80470501D02*
G01*
X173422693Y-80470501D01*
X173489732Y-80490186D01*
X173510374Y-80506820D01*
X174140591Y-81137037D01*
X174077007Y-81154075D01*
X173962993Y-81219901D01*
X173869901Y-81312993D01*
X173804075Y-81427007D01*
X173787037Y-81490591D01*
X173154728Y-80858282D01*
X173154727Y-80858282D01*
X173115380Y-80912439D01*
X173018904Y-81101782D01*
X172953242Y-81303869D01*
X172953242Y-81303872D01*
X172920000Y-81513753D01*
X172920000Y-81726246D01*
X172953242Y-81936127D01*
X172953242Y-81936130D01*
X173018904Y-82138217D01*
X173115375Y-82327550D01*
X173154728Y-82381716D01*
X173787037Y-81749408D01*
X173804075Y-81812993D01*
X173869901Y-81927007D01*
X173962993Y-82020099D01*
X174077007Y-82085925D01*
X174140590Y-82102962D01*
X173508282Y-82735269D01*
X173508282Y-82735270D01*
X173562452Y-82774626D01*
X173562451Y-82774626D01*
X173571495Y-82779234D01*
X173622292Y-82827208D01*
X173639087Y-82895029D01*
X173616550Y-82961164D01*
X173571499Y-83000202D01*
X173562182Y-83004949D01*
X173390213Y-83129890D01*
X173239898Y-83280205D01*
X173239891Y-83280214D01*
X173225538Y-83299968D01*
X173170207Y-83342632D01*
X173100593Y-83348608D01*
X173038799Y-83316000D01*
X173037542Y-83314760D01*
X171735407Y-82012625D01*
X171701922Y-81951302D01*
X171706906Y-81881610D01*
X171719984Y-81856056D01*
X171795432Y-81743141D01*
X171805176Y-81719618D01*
X171809105Y-81710128D01*
X171855775Y-81597459D01*
X171872056Y-81515609D01*
X171878207Y-81484689D01*
X171878207Y-81484688D01*
X171886537Y-81442808D01*
X171886538Y-81442806D01*
X171886538Y-81285117D01*
X171886537Y-81285115D01*
X171855776Y-81130472D01*
X171855775Y-81130465D01*
X171853533Y-81125052D01*
X171795433Y-80984784D01*
X171783012Y-80966195D01*
X171772961Y-80951153D01*
X171752083Y-80884478D01*
X171753072Y-80866475D01*
X171754297Y-80856927D01*
X171767643Y-80810993D01*
X171768990Y-80793873D01*
X172196126Y-80793873D01*
X172199609Y-81344211D01*
X172199999Y-81344504D01*
X172346195Y-81302031D01*
X172485374Y-81219721D01*
X172485383Y-81219714D01*
X172599714Y-81105383D01*
X172599721Y-81105374D01*
X172682031Y-80966195D01*
X172682033Y-80966190D01*
X172727144Y-80810918D01*
X172727145Y-80810912D01*
X172728790Y-80790000D01*
X172200000Y-80790000D01*
X172196126Y-80793873D01*
X171768990Y-80793873D01*
X171770500Y-80774690D01*
X171770500Y-80664000D01*
X171790185Y-80596961D01*
X171842989Y-80551206D01*
X171894500Y-80540000D01*
X171950000Y-80540000D01*
X171983181Y-80506819D01*
X172000728Y-80497237D01*
X172015365Y-80483612D01*
X172030769Y-80480833D01*
X172044504Y-80473334D01*
X172070862Y-80470500D01*
X173393331Y-80470500D01*
X173393347Y-80470501D01*
G37*
%TD.AperFunction*%
%TA.AperFunction,Conductor*%
G36*
X175343181Y-82339627D02*
G01*
X175376666Y-82400950D01*
X175379500Y-82427308D01*
X175379500Y-83060242D01*
X175359815Y-83127281D01*
X175307011Y-83173036D01*
X175237853Y-83182980D01*
X175174297Y-83153955D01*
X175167819Y-83147923D01*
X175149786Y-83129890D01*
X174977817Y-83004949D01*
X174968504Y-83000204D01*
X174917707Y-82952230D01*
X174900912Y-82884409D01*
X174923449Y-82818274D01*
X174968507Y-82779232D01*
X174977555Y-82774622D01*
X175031716Y-82735270D01*
X175031717Y-82735270D01*
X174399408Y-82102962D01*
X174462993Y-82085925D01*
X174577007Y-82020099D01*
X174670099Y-81927007D01*
X174735925Y-81812993D01*
X174752962Y-81749408D01*
X175343181Y-82339627D01*
G37*
%TD.AperFunction*%
%TA.AperFunction,Conductor*%
G36*
X156024075Y-81812993D02*
G01*
X156089901Y-81927007D01*
X156182993Y-82020099D01*
X156297007Y-82085925D01*
X156360590Y-82102962D01*
X155728282Y-82735269D01*
X155728282Y-82735270D01*
X155782452Y-82774626D01*
X155782451Y-82774626D01*
X155791495Y-82779234D01*
X155842292Y-82827208D01*
X155859087Y-82895029D01*
X155836550Y-82961164D01*
X155791499Y-83000202D01*
X155782182Y-83004949D01*
X155610213Y-83129890D01*
X155610209Y-83129894D01*
X155592181Y-83147923D01*
X155530858Y-83181408D01*
X155461166Y-83176424D01*
X155405233Y-83134552D01*
X155380816Y-83069088D01*
X155380500Y-83060242D01*
X155380500Y-82427308D01*
X155400185Y-82360269D01*
X155416819Y-82339627D01*
X156007037Y-81749408D01*
X156024075Y-81812993D01*
G37*
%TD.AperFunction*%
%TA.AperFunction,Conductor*%
G36*
X167153368Y-81202547D02*
G01*
X167256086Y-81245094D01*
X167383775Y-81270493D01*
X167445686Y-81302877D01*
X167477082Y-81352484D01*
X167478337Y-81356207D01*
X167514887Y-81492609D01*
X167531444Y-81521286D01*
X167537612Y-81531969D01*
X167568628Y-81585691D01*
X167585100Y-81653591D01*
X167562247Y-81719618D01*
X167507325Y-81762808D01*
X167476023Y-81770805D01*
X167468299Y-81771733D01*
X167394783Y-81780561D01*
X167365217Y-81780561D01*
X167316559Y-81774718D01*
X167273102Y-81769500D01*
X167273097Y-81769500D01*
X167273049Y-81769500D01*
X167273034Y-81769495D01*
X167269397Y-81769278D01*
X167269447Y-81768442D01*
X167206010Y-81749815D01*
X167160255Y-81697011D01*
X167151431Y-81669688D01*
X167149761Y-81661293D01*
X167149760Y-81661289D01*
X167146571Y-81653591D01*
X167105392Y-81554174D01*
X167089421Y-81515615D01*
X167089414Y-81515602D01*
X167002816Y-81386000D01*
X166981938Y-81319323D01*
X167000422Y-81251943D01*
X167052401Y-81205252D01*
X167121371Y-81194076D01*
X167153368Y-81202547D01*
G37*
%TD.AperFunction*%
%TA.AperFunction,Conductor*%
G36*
X155585703Y-80086045D02*
G01*
X155592181Y-80092077D01*
X155610213Y-80110109D01*
X155782179Y-80235048D01*
X155782181Y-80235049D01*
X155782184Y-80235051D01*
X155791493Y-80239794D01*
X155842290Y-80287766D01*
X155859087Y-80355587D01*
X155836552Y-80421722D01*
X155791505Y-80460760D01*
X155782446Y-80465376D01*
X155782440Y-80465380D01*
X155728282Y-80504727D01*
X155728282Y-80504728D01*
X156360591Y-81137037D01*
X156297007Y-81154075D01*
X156182993Y-81219901D01*
X156089901Y-81312993D01*
X156024075Y-81427007D01*
X156007037Y-81490591D01*
X155416819Y-80900373D01*
X155383334Y-80839050D01*
X155380500Y-80812692D01*
X155380500Y-80179758D01*
X155400185Y-80112719D01*
X155452989Y-80066964D01*
X155522147Y-80057020D01*
X155585703Y-80086045D01*
G37*
%TD.AperFunction*%
%TA.AperFunction,Conductor*%
G36*
X175298834Y-80063576D02*
G01*
X175354767Y-80105448D01*
X175379184Y-80170912D01*
X175379500Y-80179758D01*
X175379500Y-80812692D01*
X175359815Y-80879731D01*
X175343181Y-80900373D01*
X174752962Y-81490591D01*
X174735925Y-81427007D01*
X174670099Y-81312993D01*
X174577007Y-81219901D01*
X174462993Y-81154075D01*
X174399409Y-81137037D01*
X175031716Y-80504728D01*
X174977547Y-80465373D01*
X174977547Y-80465372D01*
X174968500Y-80460763D01*
X174917706Y-80412788D01*
X174900912Y-80344966D01*
X174923451Y-80278832D01*
X174968508Y-80239793D01*
X174977816Y-80235051D01*
X175066096Y-80170912D01*
X175149786Y-80110109D01*
X175149788Y-80110106D01*
X175149792Y-80110104D01*
X175167819Y-80092077D01*
X175229142Y-80058592D01*
X175298834Y-80063576D01*
G37*
%TD.AperFunction*%
%TA.AperFunction,Conductor*%
G36*
X166028103Y-77454145D02*
G01*
X166038137Y-77452519D01*
X166061389Y-77462639D01*
X166085957Y-77468910D01*
X166094587Y-77477089D01*
X166102201Y-77480404D01*
X166122005Y-77501313D01*
X166123969Y-77503941D01*
X166128211Y-77510289D01*
X166130204Y-77512282D01*
X166130207Y-77512286D01*
X166239707Y-77621786D01*
X166239711Y-77621789D01*
X166370814Y-77709390D01*
X166370827Y-77709397D01*
X166516498Y-77769735D01*
X166516503Y-77769737D01*
X166587381Y-77783835D01*
X166638092Y-77793923D01*
X166700003Y-77826308D01*
X166734577Y-77887023D01*
X166730838Y-77956793D01*
X166728463Y-77962990D01*
X166721095Y-77980777D01*
X166721092Y-77980789D01*
X166690331Y-78135432D01*
X166690331Y-78293125D01*
X166721092Y-78447768D01*
X166721095Y-78447780D01*
X166781433Y-78593451D01*
X166781440Y-78593464D01*
X166869041Y-78724567D01*
X166869044Y-78724571D01*
X166980538Y-78836065D01*
X166980542Y-78836068D01*
X167111645Y-78923669D01*
X167111658Y-78923676D01*
X167204338Y-78962065D01*
X167258742Y-79005906D01*
X167280807Y-79072200D01*
X167280886Y-79076626D01*
X167280886Y-79198099D01*
X167261201Y-79265138D01*
X167259988Y-79266990D01*
X167171995Y-79398679D01*
X167171988Y-79398692D01*
X167111650Y-79544363D01*
X167111647Y-79544375D01*
X167080886Y-79699018D01*
X167080886Y-79719406D01*
X167061201Y-79786445D01*
X167025778Y-79822508D01*
X166979290Y-79853570D01*
X166867796Y-79965064D01*
X166867793Y-79965068D01*
X166780192Y-80096171D01*
X166780185Y-80096184D01*
X166719847Y-80241855D01*
X166719844Y-80241867D01*
X166689083Y-80396510D01*
X166689083Y-80554203D01*
X166719844Y-80708846D01*
X166719847Y-80708858D01*
X166780185Y-80854529D01*
X166780192Y-80854542D01*
X166866790Y-80984144D01*
X166887668Y-81050821D01*
X166869184Y-81118202D01*
X166817205Y-81164892D01*
X166748235Y-81176068D01*
X166716236Y-81167596D01*
X166613525Y-81125052D01*
X166613513Y-81125049D01*
X166458869Y-81094288D01*
X166458866Y-81094288D01*
X166301182Y-81094288D01*
X166301179Y-81094288D01*
X166146534Y-81125049D01*
X166146522Y-81125052D01*
X166000841Y-81185394D01*
X165997982Y-81186923D01*
X165996314Y-81187270D01*
X165995216Y-81187725D01*
X165995129Y-81187516D01*
X165929578Y-81201159D01*
X165864336Y-81176154D01*
X165824977Y-81125012D01*
X165769397Y-80990829D01*
X165769390Y-80990816D01*
X165681789Y-80859713D01*
X165681786Y-80859709D01*
X165570292Y-80748215D01*
X165570288Y-80748212D01*
X165439185Y-80660611D01*
X165439172Y-80660604D01*
X165293501Y-80600266D01*
X165293489Y-80600263D01*
X165138845Y-80569502D01*
X165138842Y-80569502D01*
X164981158Y-80569502D01*
X164981155Y-80569502D01*
X164826510Y-80600263D01*
X164826498Y-80600266D01*
X164680827Y-80660604D01*
X164680814Y-80660611D01*
X164549711Y-80748212D01*
X164549707Y-80748215D01*
X164438213Y-80859709D01*
X164438210Y-80859713D01*
X164350609Y-80990816D01*
X164350604Y-80990826D01*
X164337729Y-81021910D01*
X164293888Y-81076313D01*
X164227593Y-81098378D01*
X164165221Y-81082458D01*
X164164554Y-81083708D01*
X164159172Y-81080831D01*
X164013501Y-81020493D01*
X164013489Y-81020490D01*
X163858845Y-80989729D01*
X163858842Y-80989729D01*
X163777630Y-80989729D01*
X163710591Y-80970044D01*
X163664836Y-80917240D01*
X163653630Y-80865729D01*
X163653630Y-80761402D01*
X163653629Y-80761400D01*
X163634255Y-80664000D01*
X163622867Y-80606750D01*
X163601259Y-80554584D01*
X163593791Y-80485119D01*
X163625065Y-80422640D01*
X163646937Y-80404029D01*
X163648430Y-80403030D01*
X163650289Y-80401789D01*
X163761789Y-80290289D01*
X163849394Y-80159179D01*
X163909737Y-80013497D01*
X163940500Y-79858842D01*
X163940500Y-79701158D01*
X163940500Y-79701155D01*
X163940499Y-79701153D01*
X163937149Y-79684313D01*
X163909737Y-79546503D01*
X163867898Y-79445493D01*
X163849397Y-79400827D01*
X163849390Y-79400814D01*
X163761790Y-79269712D01*
X163738365Y-79246287D01*
X163696456Y-79204378D01*
X163662973Y-79143058D01*
X163661780Y-79096592D01*
X163662111Y-79094576D01*
X163675820Y-79025661D01*
X163675820Y-79011153D01*
X163677461Y-79001167D01*
X163688398Y-78978435D01*
X163695505Y-78954235D01*
X163704401Y-78945177D01*
X163707756Y-78938207D01*
X163716571Y-78932788D01*
X163730927Y-78918173D01*
X163790290Y-78878509D01*
X163901790Y-78767009D01*
X163989395Y-78635899D01*
X164049738Y-78490217D01*
X164080501Y-78335562D01*
X164080501Y-78177878D01*
X164080501Y-78177875D01*
X164080500Y-78177873D01*
X164068729Y-78118691D01*
X164074956Y-78049099D01*
X164117820Y-77993922D01*
X164183710Y-77970678D01*
X164190346Y-77970500D01*
X164900939Y-77970500D01*
X164900943Y-77970501D01*
X165059057Y-77970501D01*
X165068251Y-77968037D01*
X165083690Y-77967821D01*
X165094045Y-77970704D01*
X165105049Y-77970343D01*
X165105093Y-77969901D01*
X165108449Y-77970231D01*
X165109624Y-77970193D01*
X165111157Y-77970498D01*
X165111158Y-77970498D01*
X165268844Y-77970498D01*
X165268845Y-77970497D01*
X165423497Y-77939735D01*
X165569179Y-77879392D01*
X165700289Y-77791787D01*
X165811789Y-77680287D01*
X165899394Y-77549177D01*
X165908123Y-77528100D01*
X165914500Y-77520187D01*
X165917189Y-77510388D01*
X165936050Y-77493445D01*
X165951963Y-77473698D01*
X165961607Y-77470487D01*
X165969167Y-77463697D01*
X165994197Y-77459640D01*
X166018257Y-77451632D01*
X166028103Y-77454145D01*
G37*
%TD.AperFunction*%
%TA.AperFunction,Conductor*%
G36*
X160128099Y-50290185D02*
G01*
X160173854Y-50342989D01*
X160183798Y-50412147D01*
X160175621Y-50441953D01*
X160098429Y-50628310D01*
X160098427Y-50628318D01*
X160060000Y-50821504D01*
X160060000Y-50970000D01*
X160760000Y-50970000D01*
X160760000Y-51470000D01*
X160060000Y-51470000D01*
X160060000Y-51618495D01*
X160098427Y-51811681D01*
X160098430Y-51811693D01*
X160173807Y-51993671D01*
X160173814Y-51993684D01*
X160283248Y-52157462D01*
X160283251Y-52157466D01*
X160422533Y-52296748D01*
X160422537Y-52296751D01*
X160586315Y-52406185D01*
X160586328Y-52406192D01*
X160768308Y-52481569D01*
X160810000Y-52489862D01*
X160810000Y-51686988D01*
X160819940Y-51704205D01*
X160875795Y-51760060D01*
X160944204Y-51799556D01*
X161020504Y-51820000D01*
X161099496Y-51820000D01*
X161175796Y-51799556D01*
X161244205Y-51760060D01*
X161300060Y-51704205D01*
X161310000Y-51686988D01*
X161310000Y-52489862D01*
X161351690Y-52481569D01*
X161351692Y-52481569D01*
X161533671Y-52406192D01*
X161533684Y-52406185D01*
X161697462Y-52296751D01*
X161697466Y-52296748D01*
X161836748Y-52157466D01*
X161836751Y-52157462D01*
X161946185Y-51993684D01*
X161946192Y-51993671D01*
X162021569Y-51811693D01*
X162021572Y-51811681D01*
X162059999Y-51618495D01*
X162060000Y-51618492D01*
X162060000Y-51470000D01*
X161360000Y-51470000D01*
X161360000Y-50970000D01*
X162060000Y-50970000D01*
X162060000Y-50821508D01*
X162059999Y-50821504D01*
X162021572Y-50628318D01*
X162021570Y-50628310D01*
X161944379Y-50441953D01*
X161936910Y-50372483D01*
X161968185Y-50310004D01*
X162028274Y-50274352D01*
X162058940Y-50270500D01*
X168701060Y-50270500D01*
X168768099Y-50290185D01*
X168813854Y-50342989D01*
X168823798Y-50412147D01*
X168815621Y-50441953D01*
X168738429Y-50628310D01*
X168738427Y-50628318D01*
X168700000Y-50821504D01*
X168700000Y-50970000D01*
X169400000Y-50970000D01*
X169400000Y-51470000D01*
X168700000Y-51470000D01*
X168700000Y-51618495D01*
X168738427Y-51811681D01*
X168738430Y-51811693D01*
X168813807Y-51993671D01*
X168813814Y-51993684D01*
X168923248Y-52157462D01*
X168923251Y-52157466D01*
X168963296Y-52197511D01*
X168996781Y-52258834D01*
X168991797Y-52328526D01*
X168963296Y-52372873D01*
X167227622Y-54108547D01*
X167227606Y-54108563D01*
X167226286Y-54109884D01*
X167226284Y-54109886D01*
X167114480Y-54221690D01*
X167103917Y-54239984D01*
X167094035Y-54250485D01*
X167075828Y-54261154D01*
X167060557Y-54275716D01*
X167044217Y-54279679D01*
X167033754Y-54285812D01*
X167021087Y-54285291D01*
X167003738Y-54289500D01*
X163716670Y-54289500D01*
X163716654Y-54289499D01*
X163709058Y-54289499D01*
X163550944Y-54289499D01*
X163443588Y-54318265D01*
X163398211Y-54330424D01*
X163398210Y-54330425D01*
X163349377Y-54358620D01*
X163349376Y-54358621D01*
X163310656Y-54380976D01*
X163261286Y-54409479D01*
X163261283Y-54409481D01*
X163149479Y-54521286D01*
X163149475Y-54521290D01*
X163138896Y-54531868D01*
X163077571Y-54565350D01*
X163007880Y-54560363D01*
X162956367Y-54522276D01*
X162956262Y-54522382D01*
X162955556Y-54521676D01*
X162952844Y-54519671D01*
X162950517Y-54516638D01*
X162950515Y-54516635D01*
X162843365Y-54409485D01*
X162755268Y-54358622D01*
X162712136Y-54333719D01*
X162638950Y-54314109D01*
X162565766Y-54294500D01*
X162414234Y-54294500D01*
X162267863Y-54333719D01*
X162136635Y-54409485D01*
X162130189Y-54414432D01*
X162128099Y-54411709D01*
X162080217Y-54437466D01*
X162010558Y-54432043D01*
X161954888Y-54389821D01*
X161949299Y-54380976D01*
X161836751Y-54212537D01*
X161836748Y-54212533D01*
X161697466Y-54073251D01*
X161697462Y-54073248D01*
X161533684Y-53963814D01*
X161533671Y-53963807D01*
X161351691Y-53888429D01*
X161351683Y-53888427D01*
X161310000Y-53880135D01*
X161310000Y-54683011D01*
X161300060Y-54665795D01*
X161244205Y-54609940D01*
X161175796Y-54570444D01*
X161099496Y-54550000D01*
X161020504Y-54550000D01*
X160944204Y-54570444D01*
X160875795Y-54609940D01*
X160819940Y-54665795D01*
X160810000Y-54683011D01*
X160810000Y-53880136D01*
X160809999Y-53880135D01*
X160768316Y-53888427D01*
X160768308Y-53888429D01*
X160586328Y-53963807D01*
X160586315Y-53963814D01*
X160422537Y-54073248D01*
X160422533Y-54073251D01*
X160283251Y-54212533D01*
X160283248Y-54212537D01*
X160173814Y-54376315D01*
X160173807Y-54376328D01*
X160098430Y-54558306D01*
X160098427Y-54558318D01*
X160060000Y-54751504D01*
X160060000Y-55150000D01*
X160760000Y-55150000D01*
X160760000Y-55650000D01*
X160060000Y-55650000D01*
X160060000Y-56048495D01*
X160098427Y-56241681D01*
X160098430Y-56241693D01*
X160173807Y-56423671D01*
X160173814Y-56423684D01*
X160283248Y-56587462D01*
X160283251Y-56587466D01*
X160422533Y-56726748D01*
X160422537Y-56726751D01*
X160586315Y-56836185D01*
X160586328Y-56836192D01*
X160768308Y-56911569D01*
X160810000Y-56919862D01*
X160810000Y-56116988D01*
X160819940Y-56134205D01*
X160875795Y-56190060D01*
X160944204Y-56229556D01*
X161020504Y-56250000D01*
X161099496Y-56250000D01*
X161175796Y-56229556D01*
X161244205Y-56190060D01*
X161300060Y-56134205D01*
X161310000Y-56116988D01*
X161310000Y-56934390D01*
X161326894Y-56959193D01*
X161329007Y-56966496D01*
X161357041Y-57075810D01*
X161355899Y-57108825D01*
X161355805Y-57141888D01*
X161354697Y-57143600D01*
X161354627Y-57145638D01*
X161335807Y-57172809D01*
X161317862Y-57200558D01*
X161316005Y-57201399D01*
X161314845Y-57203075D01*
X161284336Y-57215752D01*
X161254224Y-57229401D01*
X161251667Y-57229328D01*
X161250324Y-57229887D01*
X161246378Y-57229179D01*
X161212738Y-57228231D01*
X161168842Y-57219500D01*
X161011158Y-57219500D01*
X161011155Y-57219500D01*
X160856510Y-57250261D01*
X160856498Y-57250264D01*
X160710827Y-57310602D01*
X160710814Y-57310609D01*
X160579125Y-57398602D01*
X160512447Y-57419480D01*
X160510234Y-57419500D01*
X159987848Y-57419500D01*
X159920809Y-57399815D01*
X159875054Y-57347011D01*
X159866231Y-57319692D01*
X159839738Y-57186508D01*
X159839737Y-57186507D01*
X159839737Y-57186503D01*
X159793887Y-57075810D01*
X159779397Y-57040827D01*
X159779390Y-57040814D01*
X159691789Y-56909711D01*
X159691786Y-56909707D01*
X159580292Y-56798213D01*
X159580288Y-56798210D01*
X159449185Y-56710609D01*
X159449172Y-56710602D01*
X159303501Y-56650264D01*
X159303489Y-56650261D01*
X159148845Y-56619500D01*
X159148842Y-56619500D01*
X158991158Y-56619500D01*
X158991155Y-56619500D01*
X158836510Y-56650261D01*
X158836498Y-56650264D01*
X158690827Y-56710602D01*
X158690814Y-56710609D01*
X158559711Y-56798210D01*
X158559707Y-56798213D01*
X158448213Y-56909707D01*
X158448210Y-56909711D01*
X158360609Y-57040814D01*
X158360602Y-57040827D01*
X158300264Y-57186498D01*
X158300261Y-57186510D01*
X158269500Y-57341153D01*
X158269500Y-57498846D01*
X158300261Y-57653489D01*
X158300264Y-57653501D01*
X158360602Y-57799172D01*
X158360609Y-57799185D01*
X158448210Y-57930288D01*
X158448213Y-57930292D01*
X158559707Y-58041786D01*
X158559711Y-58041789D01*
X158690814Y-58129390D01*
X158690827Y-58129397D01*
X158836498Y-58189735D01*
X158836503Y-58189737D01*
X158901147Y-58202595D01*
X158991849Y-58220638D01*
X159053760Y-58253023D01*
X159055339Y-58254574D01*
X159185139Y-58384374D01*
X159185149Y-58384385D01*
X159189479Y-58388715D01*
X159189480Y-58388716D01*
X159301284Y-58500520D01*
X159351446Y-58529480D01*
X159388095Y-58550639D01*
X159388097Y-58550641D01*
X159426151Y-58572611D01*
X159438215Y-58579577D01*
X159590943Y-58620500D01*
X160159893Y-58620500D01*
X160226932Y-58640185D01*
X160272687Y-58692989D01*
X160282631Y-58762147D01*
X160253606Y-58825703D01*
X160230429Y-58845042D01*
X160230785Y-58845501D01*
X160224616Y-58850285D01*
X160110285Y-58964616D01*
X160110278Y-58964625D01*
X160027968Y-59103804D01*
X160027966Y-59103809D01*
X159982855Y-59259081D01*
X159982854Y-59259087D01*
X159981209Y-59279999D01*
X159981210Y-59280000D01*
X160636000Y-59280000D01*
X160703039Y-59299685D01*
X160748794Y-59352489D01*
X160760000Y-59404000D01*
X160760000Y-59530000D01*
X160815500Y-59530000D01*
X160882539Y-59549685D01*
X160928294Y-59602489D01*
X160939500Y-59654000D01*
X160939500Y-59764697D01*
X160942356Y-59800991D01*
X160942357Y-59800997D01*
X160987503Y-59956389D01*
X160987505Y-59956393D01*
X160987506Y-59956395D01*
X160992732Y-59965233D01*
X161010000Y-60028352D01*
X161010000Y-60334503D01*
X161156194Y-60292032D01*
X161176384Y-60280091D01*
X161244108Y-60262906D01*
X161302629Y-60280089D01*
X161323605Y-60292494D01*
X161328634Y-60293955D01*
X161479002Y-60337642D01*
X161479005Y-60337642D01*
X161479007Y-60337643D01*
X161515310Y-60340500D01*
X161515318Y-60340500D01*
X161895500Y-60340500D01*
X161962539Y-60360185D01*
X162008294Y-60412989D01*
X162019500Y-60464500D01*
X162019500Y-60703201D01*
X162022401Y-60740067D01*
X162022402Y-60740073D01*
X162068254Y-60897893D01*
X162068255Y-60897896D01*
X162068256Y-60897898D01*
X162102732Y-60956194D01*
X162120000Y-61019314D01*
X162120000Y-61675000D01*
X162670000Y-61675000D01*
X162670000Y-61412000D01*
X162689685Y-61344961D01*
X162742489Y-61299206D01*
X162794000Y-61288000D01*
X162845500Y-61288000D01*
X162912539Y-61307685D01*
X162958294Y-61360489D01*
X162969500Y-61412000D01*
X162969500Y-62578201D01*
X162972401Y-62615067D01*
X162972402Y-62615073D01*
X163006416Y-62732146D01*
X163006331Y-62761970D01*
X163009197Y-62788997D01*
X163006237Y-62794888D01*
X163006217Y-62802015D01*
X162990262Y-62826685D01*
X162977831Y-62851430D01*
X162970397Y-62857402D01*
X162968275Y-62860685D01*
X162950398Y-62873510D01*
X162943658Y-62877490D01*
X162943605Y-62877506D01*
X162923607Y-62889332D01*
X162922567Y-62889947D01*
X162888055Y-62898681D01*
X162854903Y-62907092D01*
X162854866Y-62907081D01*
X162854833Y-62907090D01*
X162854385Y-62906940D01*
X162796389Y-62889911D01*
X162776193Y-62877967D01*
X162776189Y-62877966D01*
X162724212Y-62862865D01*
X162665326Y-62825259D01*
X162636120Y-62761786D01*
X162639731Y-62709193D01*
X162667099Y-62614992D01*
X162667100Y-62614989D01*
X162669999Y-62578149D01*
X162670000Y-62578134D01*
X162670000Y-62175000D01*
X161070000Y-62175000D01*
X161070000Y-62578149D01*
X161072899Y-62614989D01*
X161072900Y-62614995D01*
X161118716Y-62772693D01*
X161118717Y-62772696D01*
X161202314Y-62914052D01*
X161202321Y-62914061D01*
X161318438Y-63030178D01*
X161318447Y-63030185D01*
X161459801Y-63113781D01*
X161541043Y-63137384D01*
X161599928Y-63174991D01*
X161629135Y-63238463D01*
X161625525Y-63291055D01*
X161602854Y-63369087D01*
X161601209Y-63389999D01*
X161601210Y-63390000D01*
X162256000Y-63390000D01*
X162323039Y-63409685D01*
X162368794Y-63462489D01*
X162380000Y-63514000D01*
X162380000Y-63640000D01*
X162435500Y-63640000D01*
X162502539Y-63659685D01*
X162548294Y-63712489D01*
X162559500Y-63764000D01*
X162559500Y-63874697D01*
X162562356Y-63910991D01*
X162562357Y-63910997D01*
X162607503Y-64066389D01*
X162607505Y-64066393D01*
X162607506Y-64066395D01*
X162612732Y-64075233D01*
X162630000Y-64138352D01*
X162630000Y-64444503D01*
X162776194Y-64402032D01*
X162796384Y-64390091D01*
X162864108Y-64372906D01*
X162922629Y-64390089D01*
X162943605Y-64402494D01*
X162984587Y-64414400D01*
X163099002Y-64447642D01*
X163099005Y-64447642D01*
X163099007Y-64447643D01*
X163135310Y-64450500D01*
X163135318Y-64450500D01*
X163406678Y-64450500D01*
X163473717Y-64470185D01*
X163519472Y-64522989D01*
X163529416Y-64592147D01*
X163512795Y-64638650D01*
X163426980Y-64780603D01*
X163376409Y-64942893D01*
X163370000Y-65013427D01*
X163370000Y-65620000D01*
X164020000Y-65620000D01*
X164020000Y-64370000D01*
X164008178Y-64358180D01*
X163974689Y-64296859D01*
X163979668Y-64227167D01*
X163989121Y-64207371D01*
X164019360Y-64156239D01*
X164072494Y-64066395D01*
X164117643Y-63910993D01*
X164120500Y-63874690D01*
X164120500Y-63760098D01*
X164140185Y-63693059D01*
X164156819Y-63672417D01*
X164157819Y-63671417D01*
X164219142Y-63637932D01*
X164288834Y-63642916D01*
X164344767Y-63684788D01*
X164369184Y-63750252D01*
X164369500Y-63759098D01*
X164369500Y-65746000D01*
X164349815Y-65813039D01*
X164297011Y-65858794D01*
X164276811Y-65863188D01*
X164270000Y-65870000D01*
X164270000Y-65996000D01*
X164250315Y-66063039D01*
X164197511Y-66108794D01*
X164146000Y-66120000D01*
X163370001Y-66120000D01*
X163370001Y-66726582D01*
X163376408Y-66797102D01*
X163376409Y-66797107D01*
X163426981Y-66959396D01*
X163514927Y-67104877D01*
X163635122Y-67225072D01*
X163780598Y-67313016D01*
X163780810Y-67313082D01*
X163780949Y-67313174D01*
X163787442Y-67316097D01*
X163786956Y-67317175D01*
X163838961Y-67351815D01*
X163866941Y-67415838D01*
X163855865Y-67484824D01*
X163831611Y-67519152D01*
X163177584Y-68173181D01*
X163116261Y-68206666D01*
X163089903Y-68209500D01*
X162975302Y-68209500D01*
X162939008Y-68212356D01*
X162939002Y-68212357D01*
X162783609Y-68257504D01*
X162783604Y-68257506D01*
X162762628Y-68269911D01*
X162694903Y-68287092D01*
X162636389Y-68269911D01*
X162616191Y-68257966D01*
X162616190Y-68257965D01*
X162470001Y-68215493D01*
X162470000Y-68215494D01*
X162470000Y-68521645D01*
X162452734Y-68584763D01*
X162447507Y-68593600D01*
X162447504Y-68593608D01*
X162402357Y-68749002D01*
X162402356Y-68749008D01*
X162399500Y-68785302D01*
X162399500Y-68896000D01*
X162379815Y-68963039D01*
X162327011Y-69008794D01*
X162275500Y-69020000D01*
X162220000Y-69020000D01*
X162220000Y-69146000D01*
X162200315Y-69213039D01*
X162147511Y-69258794D01*
X162096000Y-69270000D01*
X161441210Y-69270000D01*
X161442854Y-69290910D01*
X161466529Y-69372401D01*
X161466328Y-69442271D01*
X161428386Y-69500940D01*
X161417384Y-69509394D01*
X161404924Y-69517903D01*
X161382669Y-69526204D01*
X161277608Y-69604852D01*
X161275376Y-69606377D01*
X161244602Y-69616356D01*
X161214290Y-69627662D01*
X161211565Y-69627069D01*
X161208914Y-69627929D01*
X161177628Y-69619686D01*
X161146017Y-69612810D01*
X161143567Y-69610713D01*
X161141350Y-69610129D01*
X161135749Y-69604019D01*
X161107070Y-69579467D01*
X161089036Y-69555964D01*
X160971429Y-69465721D01*
X160971426Y-69465720D01*
X160971424Y-69465718D01*
X160889378Y-69431734D01*
X160834974Y-69387893D01*
X160812909Y-69321599D01*
X160817754Y-69282578D01*
X160857664Y-69145208D01*
X160857664Y-69145206D01*
X160857665Y-69145204D01*
X160860500Y-69109181D01*
X160860499Y-68769999D01*
X161441209Y-68769999D01*
X161441210Y-68770000D01*
X161970000Y-68770000D01*
X161970000Y-68215494D01*
X161969998Y-68215493D01*
X161823809Y-68257965D01*
X161823806Y-68257967D01*
X161684625Y-68340278D01*
X161684616Y-68340285D01*
X161570285Y-68454616D01*
X161570278Y-68454625D01*
X161487968Y-68593804D01*
X161487966Y-68593809D01*
X161442855Y-68749081D01*
X161442854Y-68749087D01*
X161441209Y-68769999D01*
X160860499Y-68769999D01*
X160860499Y-68610820D01*
X160857665Y-68574796D01*
X160812869Y-68420607D01*
X160731135Y-68282402D01*
X160731133Y-68282400D01*
X160731130Y-68282396D01*
X160617603Y-68168869D01*
X160617595Y-68168863D01*
X160479393Y-68087131D01*
X160479388Y-68087129D01*
X160325208Y-68042335D01*
X160325202Y-68042334D01*
X160289181Y-68039500D01*
X159890830Y-68039500D01*
X159890808Y-68039501D01*
X159854796Y-68042335D01*
X159829093Y-68049802D01*
X159759223Y-68049601D01*
X159700554Y-68011658D01*
X159671712Y-67948019D01*
X159670500Y-67930725D01*
X159670500Y-67493294D01*
X159690185Y-67426255D01*
X159742989Y-67380500D01*
X159805722Y-67369803D01*
X159813384Y-67370500D01*
X159813393Y-67370500D01*
X160326613Y-67370500D01*
X160326616Y-67370500D01*
X160397196Y-67364086D01*
X160559606Y-67313478D01*
X160705185Y-67225472D01*
X160825472Y-67105185D01*
X160913478Y-66959606D01*
X160964086Y-66797196D01*
X160970500Y-66726616D01*
X160970500Y-65013384D01*
X160964086Y-64942804D01*
X160913478Y-64780394D01*
X160825472Y-64634815D01*
X160825470Y-64634813D01*
X160825469Y-64634811D01*
X160705188Y-64514530D01*
X160647635Y-64479738D01*
X160559606Y-64426522D01*
X160397196Y-64375914D01*
X160397194Y-64375913D01*
X160397192Y-64375913D01*
X160347778Y-64371423D01*
X160326616Y-64369500D01*
X159813384Y-64369500D01*
X159794145Y-64371248D01*
X159742807Y-64375913D01*
X159580393Y-64426522D01*
X159434811Y-64514530D01*
X159314530Y-64634811D01*
X159226522Y-64780393D01*
X159175913Y-64942807D01*
X159169500Y-65013386D01*
X159169500Y-65869902D01*
X159149815Y-65936941D01*
X159133181Y-65957583D01*
X158589481Y-66501282D01*
X158589479Y-66501285D01*
X158539361Y-66588094D01*
X158539359Y-66588096D01*
X158510425Y-66638209D01*
X158510424Y-66638210D01*
X158510423Y-66638215D01*
X158469499Y-66790943D01*
X158469499Y-66790945D01*
X158469499Y-66959046D01*
X158469500Y-66959059D01*
X158469500Y-68190404D01*
X158449815Y-68257443D01*
X158433181Y-68278085D01*
X158428869Y-68282396D01*
X158428863Y-68282404D01*
X158347131Y-68420606D01*
X158347129Y-68420611D01*
X158302335Y-68574791D01*
X158302334Y-68574797D01*
X158299500Y-68610811D01*
X158299500Y-69109169D01*
X158299501Y-69109191D01*
X158302335Y-69145205D01*
X158347129Y-69299388D01*
X158347131Y-69299393D01*
X158428863Y-69437595D01*
X158428869Y-69437603D01*
X158542396Y-69551130D01*
X158542400Y-69551133D01*
X158542402Y-69551135D01*
X158680607Y-69632869D01*
X158703868Y-69639627D01*
X158834791Y-69677664D01*
X158834794Y-69677664D01*
X158834796Y-69677665D01*
X158870819Y-69680500D01*
X158960832Y-69680499D01*
X159027869Y-69700183D01*
X159073625Y-69752986D01*
X159083569Y-69822145D01*
X159054545Y-69885701D01*
X159048512Y-69892180D01*
X158781286Y-70159407D01*
X158669481Y-70271211D01*
X158669480Y-70271213D01*
X158635251Y-70330500D01*
X158590423Y-70408144D01*
X158549499Y-70560872D01*
X158549499Y-70560874D01*
X158549499Y-70728975D01*
X158549500Y-70728988D01*
X158549500Y-71813402D01*
X158549499Y-71813420D01*
X158549499Y-71821015D01*
X158549499Y-71979130D01*
X158590423Y-72131857D01*
X158598298Y-72145497D01*
X158598299Y-72145500D01*
X158598300Y-72145500D01*
X158669477Y-72268784D01*
X158669481Y-72268789D01*
X158788349Y-72387657D01*
X158788355Y-72387662D01*
X159288346Y-72887653D01*
X159321831Y-72948976D01*
X159316847Y-73018668D01*
X159285683Y-73061113D01*
X159287918Y-73063348D01*
X159168869Y-73182396D01*
X159168863Y-73182404D01*
X159087131Y-73320606D01*
X159087129Y-73320611D01*
X159042335Y-73474791D01*
X159042334Y-73474797D01*
X159039500Y-73510811D01*
X159039500Y-73909169D01*
X159039501Y-73909191D01*
X159042335Y-73945205D01*
X159087129Y-74099388D01*
X159087132Y-74099395D01*
X159121128Y-74156881D01*
X159138309Y-74224605D01*
X159121128Y-74283119D01*
X159087132Y-74340604D01*
X159087129Y-74340611D01*
X159042335Y-74494791D01*
X159042334Y-74494797D01*
X159039500Y-74530811D01*
X159039500Y-74929169D01*
X159039501Y-74929191D01*
X159042335Y-74965205D01*
X159087129Y-75119388D01*
X159087131Y-75119393D01*
X159168863Y-75257595D01*
X159168869Y-75257603D01*
X159282396Y-75371130D01*
X159282405Y-75371137D01*
X159311137Y-75388129D01*
X159358820Y-75439198D01*
X159371634Y-75504587D01*
X159371208Y-75509998D01*
X159371210Y-75510000D01*
X159959403Y-75510000D01*
X160026442Y-75529685D01*
X160047084Y-75546319D01*
X160064319Y-75563554D01*
X160097804Y-75624877D01*
X160092820Y-75694569D01*
X160050948Y-75750502D01*
X159985484Y-75774919D01*
X159976638Y-75775235D01*
X159835420Y-75775235D01*
X159680775Y-75805996D01*
X159680763Y-75805999D01*
X159535092Y-75866337D01*
X159535079Y-75866344D01*
X159403976Y-75953945D01*
X159403972Y-75953948D01*
X159292478Y-76065442D01*
X159292475Y-76065446D01*
X159204874Y-76196549D01*
X159204867Y-76196562D01*
X159144529Y-76342233D01*
X159144526Y-76342245D01*
X159113765Y-76496886D01*
X159113666Y-76497898D01*
X159113465Y-76498393D01*
X159112576Y-76502867D01*
X159111727Y-76502698D01*
X159087503Y-76562685D01*
X159030468Y-76603042D01*
X158960668Y-76606157D01*
X158921372Y-76588843D01*
X158849185Y-76540609D01*
X158849172Y-76540602D01*
X158703501Y-76480264D01*
X158703489Y-76480261D01*
X158548845Y-76449500D01*
X158548842Y-76449500D01*
X158391158Y-76449500D01*
X158391155Y-76449500D01*
X158236510Y-76480261D01*
X158236498Y-76480264D01*
X158090827Y-76540602D01*
X158090814Y-76540609D01*
X158033391Y-76578979D01*
X157966714Y-76599857D01*
X157899333Y-76581373D01*
X157852643Y-76529394D01*
X157840500Y-76475877D01*
X157840500Y-76433713D01*
X157836158Y-76406300D01*
X157807246Y-76223757D01*
X157741557Y-76021588D01*
X157645051Y-75832184D01*
X157645049Y-75832181D01*
X157645048Y-75832179D01*
X157520109Y-75660213D01*
X157500419Y-75640523D01*
X157466934Y-75579200D01*
X157471918Y-75509508D01*
X157500419Y-75465161D01*
X157714023Y-75251557D01*
X157998506Y-74967074D01*
X157998511Y-74967070D01*
X158008714Y-74956866D01*
X158008716Y-74956866D01*
X158120520Y-74845062D01*
X158199577Y-74708130D01*
X158238964Y-74561135D01*
X158240500Y-74555404D01*
X158240500Y-74397289D01*
X158240500Y-72699060D01*
X158240501Y-72699047D01*
X158240501Y-72530944D01*
X158232121Y-72499670D01*
X158199577Y-72378216D01*
X158177393Y-72339792D01*
X158120524Y-72241290D01*
X158120518Y-72241282D01*
X157979051Y-72099815D01*
X157823756Y-71944521D01*
X157790272Y-71883199D01*
X157793507Y-71818523D01*
X157807246Y-71776243D01*
X157840500Y-71566287D01*
X157840500Y-71353713D01*
X157807246Y-71143757D01*
X157741557Y-70941588D01*
X157645051Y-70752184D01*
X157645049Y-70752181D01*
X157645048Y-70752179D01*
X157520109Y-70580213D01*
X157369786Y-70429890D01*
X157197817Y-70304949D01*
X157188504Y-70300204D01*
X157137707Y-70252230D01*
X157120912Y-70184409D01*
X157143449Y-70118274D01*
X157188507Y-70079232D01*
X157197555Y-70074622D01*
X157251716Y-70035270D01*
X157251717Y-70035270D01*
X156619408Y-69402962D01*
X156682993Y-69385925D01*
X156797007Y-69320099D01*
X156890099Y-69227007D01*
X156955925Y-69112993D01*
X156972962Y-69049408D01*
X157605270Y-69681717D01*
X157605270Y-69681716D01*
X157644622Y-69627554D01*
X157741095Y-69438217D01*
X157806757Y-69236130D01*
X157806757Y-69236127D01*
X157840000Y-69026246D01*
X157840000Y-68813753D01*
X157806757Y-68603872D01*
X157806757Y-68603869D01*
X157741095Y-68401782D01*
X157644624Y-68212449D01*
X157605270Y-68158282D01*
X157605269Y-68158282D01*
X156972962Y-68790590D01*
X156955925Y-68727007D01*
X156890099Y-68612993D01*
X156797007Y-68519901D01*
X156682993Y-68454075D01*
X156619409Y-68437037D01*
X157251716Y-67804728D01*
X157197547Y-67765373D01*
X157197547Y-67765372D01*
X157188500Y-67760763D01*
X157137706Y-67712788D01*
X157120912Y-67644966D01*
X157143451Y-67578832D01*
X157188508Y-67539793D01*
X157197816Y-67535051D01*
X157286096Y-67470912D01*
X157369786Y-67410109D01*
X157369788Y-67410106D01*
X157369792Y-67410104D01*
X157520104Y-67259792D01*
X157520106Y-67259788D01*
X157520109Y-67259786D01*
X157645048Y-67087820D01*
X157645047Y-67087820D01*
X157645051Y-67087816D01*
X157741557Y-66898412D01*
X157807246Y-66696243D01*
X157840500Y-66486287D01*
X157840500Y-66273713D01*
X157807246Y-66063757D01*
X157741557Y-65861588D01*
X157645051Y-65672184D01*
X157645049Y-65672181D01*
X157645048Y-65672179D01*
X157520109Y-65500213D01*
X157369786Y-65349890D01*
X157197820Y-65224951D01*
X157197115Y-65224591D01*
X157189054Y-65220485D01*
X157138259Y-65172512D01*
X157121463Y-65104692D01*
X157143999Y-65038556D01*
X157189054Y-64999515D01*
X157197816Y-64995051D01*
X157269724Y-64942807D01*
X157369786Y-64870109D01*
X157369788Y-64870106D01*
X157369792Y-64870104D01*
X157520104Y-64719792D01*
X157520106Y-64719788D01*
X157520109Y-64719786D01*
X157645048Y-64547820D01*
X157645047Y-64547820D01*
X157645051Y-64547816D01*
X157741557Y-64358412D01*
X157807246Y-64156243D01*
X157840500Y-63946287D01*
X157840500Y-63890000D01*
X161601210Y-63890000D01*
X161602854Y-63910910D01*
X161647968Y-64066195D01*
X161730278Y-64205374D01*
X161730285Y-64205383D01*
X161844616Y-64319714D01*
X161844625Y-64319721D01*
X161983804Y-64402031D01*
X162130000Y-64444504D01*
X162130000Y-63890000D01*
X161601210Y-63890000D01*
X157840500Y-63890000D01*
X157840500Y-63733713D01*
X157807246Y-63523757D01*
X157741557Y-63321588D01*
X157645051Y-63132184D01*
X157645049Y-63132181D01*
X157645048Y-63132179D01*
X157520109Y-62960213D01*
X157369786Y-62809890D01*
X157197820Y-62684951D01*
X157197115Y-62684591D01*
X157189054Y-62680485D01*
X157138259Y-62632512D01*
X157121463Y-62564692D01*
X157143999Y-62498556D01*
X157189054Y-62459515D01*
X157197816Y-62455051D01*
X157273921Y-62399758D01*
X157369786Y-62330109D01*
X157369788Y-62330106D01*
X157369792Y-62330104D01*
X157520104Y-62179792D01*
X157520106Y-62179788D01*
X157520109Y-62179786D01*
X157645048Y-62007820D01*
X157645047Y-62007820D01*
X157645051Y-62007816D01*
X157741557Y-61818412D01*
X157807246Y-61616243D01*
X157840500Y-61406287D01*
X157840500Y-61271850D01*
X161070000Y-61271850D01*
X161070000Y-61675000D01*
X161620000Y-61675000D01*
X161620000Y-60690203D01*
X161617503Y-60690400D01*
X161459806Y-60736216D01*
X161459803Y-60736217D01*
X161318447Y-60819814D01*
X161318438Y-60819821D01*
X161202321Y-60935938D01*
X161202314Y-60935947D01*
X161118717Y-61077303D01*
X161118716Y-61077306D01*
X161072900Y-61235004D01*
X161072899Y-61235010D01*
X161070000Y-61271850D01*
X157840500Y-61271850D01*
X157840500Y-61193713D01*
X157807246Y-60983757D01*
X157741557Y-60781588D01*
X157645051Y-60592184D01*
X157645049Y-60592181D01*
X157645048Y-60592179D01*
X157520109Y-60420213D01*
X157369786Y-60269890D01*
X157197820Y-60144951D01*
X157197115Y-60144591D01*
X157189054Y-60140485D01*
X157138259Y-60092512D01*
X157121463Y-60024692D01*
X157143999Y-59958556D01*
X157189054Y-59919515D01*
X157197816Y-59915051D01*
X157273921Y-59859758D01*
X157369786Y-59790109D01*
X157369788Y-59790106D01*
X157369792Y-59790104D01*
X157379896Y-59780000D01*
X159981210Y-59780000D01*
X159982854Y-59800910D01*
X160027968Y-59956195D01*
X160110278Y-60095374D01*
X160110285Y-60095383D01*
X160224616Y-60209714D01*
X160224625Y-60209721D01*
X160363804Y-60292031D01*
X160510000Y-60334504D01*
X160510000Y-59780000D01*
X159981210Y-59780000D01*
X157379896Y-59780000D01*
X157520104Y-59639792D01*
X157520106Y-59639788D01*
X157520109Y-59639786D01*
X157645048Y-59467820D01*
X157645047Y-59467820D01*
X157645051Y-59467816D01*
X157741557Y-59278412D01*
X157807246Y-59076243D01*
X157840500Y-58866287D01*
X157840500Y-58653713D01*
X157807246Y-58443757D01*
X157741557Y-58241588D01*
X157645051Y-58052184D01*
X157645049Y-58052181D01*
X157645048Y-58052179D01*
X157520109Y-57880213D01*
X157369786Y-57729890D01*
X157197817Y-57604949D01*
X157188504Y-57600204D01*
X157137707Y-57552230D01*
X157120912Y-57484409D01*
X157143449Y-57418274D01*
X157188507Y-57379232D01*
X157197555Y-57374622D01*
X157251716Y-57335270D01*
X157251717Y-57335270D01*
X156619408Y-56702962D01*
X156682993Y-56685925D01*
X156797007Y-56620099D01*
X156890099Y-56527007D01*
X156955925Y-56412993D01*
X156972962Y-56349408D01*
X157605270Y-56981717D01*
X157605270Y-56981716D01*
X157644622Y-56927554D01*
X157741095Y-56738217D01*
X157806757Y-56536130D01*
X157806757Y-56536127D01*
X157840000Y-56326246D01*
X157840000Y-56113753D01*
X157806757Y-55903872D01*
X157806757Y-55903869D01*
X157741094Y-55701780D01*
X157717225Y-55654934D01*
X157717224Y-55654933D01*
X157644624Y-55512449D01*
X157605270Y-55458282D01*
X157605269Y-55458282D01*
X156972962Y-56090590D01*
X156955925Y-56027007D01*
X156890099Y-55912993D01*
X156797007Y-55819901D01*
X156682993Y-55754075D01*
X156619409Y-55737037D01*
X157251716Y-55104728D01*
X157197547Y-55065373D01*
X157197547Y-55065372D01*
X157188500Y-55060763D01*
X157137706Y-55012788D01*
X157120912Y-54944966D01*
X157143451Y-54878832D01*
X157188508Y-54839793D01*
X157197816Y-54835051D01*
X157312804Y-54751508D01*
X157369786Y-54710109D01*
X157369788Y-54710106D01*
X157369792Y-54710104D01*
X157520104Y-54559792D01*
X157520106Y-54559788D01*
X157520109Y-54559786D01*
X157645048Y-54387820D01*
X157645047Y-54387820D01*
X157645051Y-54387816D01*
X157741557Y-54198412D01*
X157807246Y-53996243D01*
X157840500Y-53786287D01*
X157840500Y-53573713D01*
X157807246Y-53363757D01*
X157741557Y-53161588D01*
X157645051Y-52972184D01*
X157645049Y-52972181D01*
X157645048Y-52972179D01*
X157520109Y-52800213D01*
X157406569Y-52686673D01*
X157373084Y-52625350D01*
X157378068Y-52555658D01*
X157419940Y-52499725D01*
X157450915Y-52482810D01*
X157582331Y-52433796D01*
X157697546Y-52347546D01*
X157783796Y-52232331D01*
X157834091Y-52097483D01*
X157840500Y-52037873D01*
X157840499Y-50970000D01*
X157840499Y-50394500D01*
X157860183Y-50327461D01*
X157912987Y-50281706D01*
X157964499Y-50270500D01*
X160061060Y-50270500D01*
X160128099Y-50290185D01*
G37*
%TD.AperFunction*%
%TA.AperFunction,Conductor*%
G36*
X173005972Y-52940185D02*
G01*
X173051727Y-52992989D01*
X173061671Y-53062147D01*
X173049418Y-53100794D01*
X173018445Y-53161582D01*
X172952753Y-53363760D01*
X172919500Y-53573713D01*
X172919500Y-53786287D01*
X172924035Y-53814922D01*
X172947617Y-53963814D01*
X172952754Y-53996243D01*
X172989678Y-54109884D01*
X173018444Y-54198414D01*
X173114951Y-54387820D01*
X173239890Y-54559786D01*
X173390213Y-54710109D01*
X173562179Y-54835048D01*
X173562181Y-54835049D01*
X173562184Y-54835051D01*
X173571493Y-54839794D01*
X173622290Y-54887766D01*
X173639087Y-54955587D01*
X173616552Y-55021722D01*
X173571505Y-55060760D01*
X173562446Y-55065376D01*
X173562440Y-55065380D01*
X173508282Y-55104727D01*
X173508282Y-55104728D01*
X174140591Y-55737037D01*
X174077007Y-55754075D01*
X173962993Y-55819901D01*
X173869901Y-55912993D01*
X173804075Y-56027007D01*
X173787037Y-56090591D01*
X173154728Y-55458282D01*
X173154727Y-55458282D01*
X173115380Y-55512439D01*
X173018904Y-55701782D01*
X172953242Y-55903869D01*
X172953242Y-55903872D01*
X172920000Y-56113753D01*
X172920000Y-56326246D01*
X172953242Y-56536127D01*
X172953242Y-56536130D01*
X173018904Y-56738217D01*
X173115375Y-56927550D01*
X173154728Y-56981716D01*
X173787037Y-56349408D01*
X173804075Y-56412993D01*
X173869901Y-56527007D01*
X173962993Y-56620099D01*
X174077007Y-56685925D01*
X174140590Y-56702962D01*
X173508282Y-57335269D01*
X173508282Y-57335270D01*
X173562452Y-57374626D01*
X173562451Y-57374626D01*
X173571495Y-57379234D01*
X173622292Y-57427208D01*
X173639087Y-57495029D01*
X173616550Y-57561164D01*
X173571499Y-57600202D01*
X173562182Y-57604949D01*
X173390213Y-57729890D01*
X173239890Y-57880213D01*
X173114951Y-58052179D01*
X173018444Y-58241585D01*
X172952753Y-58443760D01*
X172919500Y-58653713D01*
X172919500Y-58866287D01*
X172919708Y-58867598D01*
X172952754Y-59076244D01*
X172952754Y-59076247D01*
X172966491Y-59118523D01*
X172968486Y-59188364D01*
X172936241Y-59244522D01*
X171631286Y-60549478D01*
X171519481Y-60661282D01*
X171519479Y-60661285D01*
X171502784Y-60690203D01*
X171476484Y-60735756D01*
X171440423Y-60798215D01*
X171399499Y-60950943D01*
X171399499Y-60950945D01*
X171399499Y-61119046D01*
X171399500Y-61119059D01*
X171399500Y-62170234D01*
X171379815Y-62237273D01*
X171378602Y-62239125D01*
X171290609Y-62370814D01*
X171290602Y-62370827D01*
X171230264Y-62516498D01*
X171230261Y-62516510D01*
X171199500Y-62671153D01*
X171199500Y-62828846D01*
X171230261Y-62983489D01*
X171230264Y-62983501D01*
X171290602Y-63129172D01*
X171290609Y-63129185D01*
X171378210Y-63260288D01*
X171378213Y-63260292D01*
X171489707Y-63371786D01*
X171489711Y-63371789D01*
X171620814Y-63459390D01*
X171620827Y-63459397D01*
X171766498Y-63519735D01*
X171766503Y-63519737D01*
X171921153Y-63550499D01*
X171921156Y-63550500D01*
X171921158Y-63550500D01*
X172078844Y-63550500D01*
X172078845Y-63550499D01*
X172233497Y-63519737D01*
X172379179Y-63459394D01*
X172510289Y-63371789D01*
X172621789Y-63260289D01*
X172709394Y-63129179D01*
X172769737Y-62983497D01*
X172800500Y-62828842D01*
X172800500Y-62671158D01*
X172800500Y-62671155D01*
X172800499Y-62671153D01*
X172784047Y-62588443D01*
X172769737Y-62516503D01*
X172762303Y-62498556D01*
X172709397Y-62370827D01*
X172709390Y-62370814D01*
X172621398Y-62239125D01*
X172600520Y-62172447D01*
X172600500Y-62170234D01*
X172600500Y-61330096D01*
X172620185Y-61263057D01*
X172636815Y-61242419D01*
X172707820Y-61171414D01*
X172769142Y-61137930D01*
X172838834Y-61142914D01*
X172894767Y-61184786D01*
X172919184Y-61250250D01*
X172919500Y-61259096D01*
X172919500Y-61406287D01*
X172952754Y-61616243D01*
X172972957Y-61678422D01*
X173018444Y-61818414D01*
X173114951Y-62007820D01*
X173239890Y-62179786D01*
X173390213Y-62330109D01*
X173562182Y-62455050D01*
X173570946Y-62459516D01*
X173621742Y-62507491D01*
X173638536Y-62575312D01*
X173615998Y-62641447D01*
X173570946Y-62680484D01*
X173562182Y-62684949D01*
X173390213Y-62809890D01*
X173239890Y-62960213D01*
X173114951Y-63132179D01*
X173018444Y-63321585D01*
X172952753Y-63523760D01*
X172919500Y-63733713D01*
X172919500Y-63946286D01*
X172938522Y-64066390D01*
X172952754Y-64156243D01*
X173005871Y-64319721D01*
X173018444Y-64358414D01*
X173114951Y-64547820D01*
X173239890Y-64719786D01*
X173390213Y-64870109D01*
X173562182Y-64995050D01*
X173570946Y-64999516D01*
X173621742Y-65047491D01*
X173638536Y-65115312D01*
X173615998Y-65181447D01*
X173570946Y-65220484D01*
X173562182Y-65224949D01*
X173390213Y-65349890D01*
X173239890Y-65500213D01*
X173114951Y-65672179D01*
X173018444Y-65861585D01*
X172952753Y-66063760D01*
X172943846Y-66120000D01*
X172919500Y-66273713D01*
X172919500Y-66486287D01*
X172952754Y-66696243D01*
X172985554Y-66797192D01*
X173018444Y-66898414D01*
X173114951Y-67087820D01*
X173239890Y-67259786D01*
X173390213Y-67410109D01*
X173562179Y-67535048D01*
X173562181Y-67535049D01*
X173562184Y-67535051D01*
X173571493Y-67539794D01*
X173622290Y-67587766D01*
X173639087Y-67655587D01*
X173616552Y-67721722D01*
X173571505Y-67760760D01*
X173562446Y-67765376D01*
X173562440Y-67765380D01*
X173508282Y-67804727D01*
X173508282Y-67804728D01*
X174140591Y-68437037D01*
X174077007Y-68454075D01*
X173962993Y-68519901D01*
X173869901Y-68612993D01*
X173804075Y-68727007D01*
X173787037Y-68790591D01*
X173154728Y-68158282D01*
X173154727Y-68158282D01*
X173115380Y-68212439D01*
X173018904Y-68401782D01*
X172953242Y-68603869D01*
X172953242Y-68603872D01*
X172920000Y-68813753D01*
X172920000Y-69026246D01*
X172953242Y-69236127D01*
X172953242Y-69236130D01*
X173018904Y-69438217D01*
X173115375Y-69627550D01*
X173154728Y-69681716D01*
X173787037Y-69049408D01*
X173804075Y-69112993D01*
X173869901Y-69227007D01*
X173962993Y-69320099D01*
X174077007Y-69385925D01*
X174140590Y-69402962D01*
X173508282Y-70035269D01*
X173508282Y-70035270D01*
X173562452Y-70074626D01*
X173562451Y-70074626D01*
X173571495Y-70079234D01*
X173622292Y-70127208D01*
X173639087Y-70195029D01*
X173616550Y-70261164D01*
X173571499Y-70300202D01*
X173562182Y-70304949D01*
X173390213Y-70429890D01*
X173239890Y-70580213D01*
X173114951Y-70752179D01*
X173018444Y-70941585D01*
X172952753Y-71143760D01*
X172923169Y-71330545D01*
X172919500Y-71353713D01*
X172919500Y-71566287D01*
X172925680Y-71605303D01*
X172952754Y-71776244D01*
X172952754Y-71776247D01*
X172966491Y-71818523D01*
X172968486Y-71888364D01*
X172936241Y-71944522D01*
X171911852Y-72968911D01*
X171911814Y-72968949D01*
X171911286Y-72969478D01*
X171911284Y-72969480D01*
X171799480Y-73081284D01*
X171795275Y-73088566D01*
X171784453Y-73099675D01*
X171766950Y-73109530D01*
X171752407Y-73123385D01*
X171737128Y-73126322D01*
X171723572Y-73133956D01*
X171703519Y-73132784D01*
X171683794Y-73136577D01*
X171664011Y-73130476D01*
X171653821Y-73129881D01*
X171647757Y-73125464D01*
X171635902Y-73121808D01*
X171616258Y-73111009D01*
X171459641Y-73070797D01*
X171297930Y-73070797D01*
X171141311Y-73111010D01*
X171007905Y-73184350D01*
X171007905Y-73184351D01*
X171489096Y-73665542D01*
X171522581Y-73726865D01*
X171517597Y-73796557D01*
X171489096Y-73840905D01*
X171360756Y-73969244D01*
X171299433Y-74002728D01*
X171229741Y-73997744D01*
X171185394Y-73969243D01*
X171107139Y-73890988D01*
X171107122Y-73890972D01*
X171079435Y-73867325D01*
X171079431Y-73867322D01*
X170937623Y-73789363D01*
X170927671Y-73786808D01*
X170870832Y-73754386D01*
X170654351Y-73537905D01*
X170654349Y-73537905D01*
X170590992Y-73653153D01*
X170541446Y-73702417D01*
X170473131Y-73717074D01*
X170407736Y-73692470D01*
X170366025Y-73636418D01*
X170363253Y-73628008D01*
X170362032Y-73623807D01*
X170362031Y-73623804D01*
X170279721Y-73484625D01*
X170279714Y-73484616D01*
X170213574Y-73418476D01*
X170180089Y-73357153D01*
X170177637Y-73321066D01*
X170177673Y-73320606D01*
X170180500Y-73284690D01*
X170180500Y-72875310D01*
X170177643Y-72839007D01*
X170162807Y-72787943D01*
X170132495Y-72683609D01*
X170132494Y-72683605D01*
X170122964Y-72667491D01*
X170120089Y-72662630D01*
X170102906Y-72594909D01*
X170120091Y-72536384D01*
X170132032Y-72516194D01*
X170174504Y-72370000D01*
X169868352Y-72370000D01*
X169805233Y-72352732D01*
X169796395Y-72347506D01*
X169796393Y-72347505D01*
X169796389Y-72347503D01*
X169640997Y-72302357D01*
X169640991Y-72302356D01*
X169604697Y-72299500D01*
X169604690Y-72299500D01*
X169494000Y-72299500D01*
X169426961Y-72279815D01*
X169381206Y-72227011D01*
X169370000Y-72175500D01*
X169370000Y-72120000D01*
X169310597Y-72120000D01*
X169243558Y-72100315D01*
X169222916Y-72083681D01*
X169156319Y-72017084D01*
X169122834Y-71955761D01*
X169120000Y-71929403D01*
X169120000Y-71870000D01*
X169620000Y-71870000D01*
X170174504Y-71870000D01*
X170132031Y-71723804D01*
X170049721Y-71584625D01*
X170049714Y-71584616D01*
X169935383Y-71470285D01*
X169935374Y-71470278D01*
X169796195Y-71387968D01*
X169796190Y-71387966D01*
X169640918Y-71342855D01*
X169640912Y-71342854D01*
X169620000Y-71341209D01*
X169620000Y-71870000D01*
X169120000Y-71870000D01*
X169120000Y-71341210D01*
X169119999Y-71341209D01*
X169099087Y-71342854D01*
X169099081Y-71342855D01*
X168943809Y-71387966D01*
X168943804Y-71387968D01*
X168804625Y-71470278D01*
X168804614Y-71470287D01*
X168794746Y-71480155D01*
X168733422Y-71513638D01*
X168663731Y-71508651D01*
X168619387Y-71480152D01*
X168499557Y-71360322D01*
X168466072Y-71298999D01*
X168468162Y-71238045D01*
X168487643Y-71170993D01*
X168490500Y-71134690D01*
X168490500Y-70725310D01*
X168487643Y-70689007D01*
X168442494Y-70533605D01*
X168430089Y-70512630D01*
X168412906Y-70444909D01*
X168430091Y-70386384D01*
X168442032Y-70366194D01*
X168484504Y-70220000D01*
X168178352Y-70220000D01*
X168115233Y-70202732D01*
X168106395Y-70197506D01*
X168106393Y-70197505D01*
X168106389Y-70197503D01*
X167950997Y-70152357D01*
X167950991Y-70152356D01*
X167914697Y-70149500D01*
X167914690Y-70149500D01*
X167804000Y-70149500D01*
X167736961Y-70129815D01*
X167691206Y-70077011D01*
X167680000Y-70025500D01*
X167680000Y-69970000D01*
X167554000Y-69970000D01*
X167486961Y-69950315D01*
X167441206Y-69897511D01*
X167430000Y-69846000D01*
X167430000Y-69720000D01*
X167930000Y-69720000D01*
X168484504Y-69720000D01*
X168442031Y-69573804D01*
X168359721Y-69434625D01*
X168359714Y-69434616D01*
X168245383Y-69320285D01*
X168245374Y-69320278D01*
X168106195Y-69237968D01*
X168106190Y-69237966D01*
X167950918Y-69192855D01*
X167950912Y-69192854D01*
X167930000Y-69191209D01*
X167930000Y-69720000D01*
X167430000Y-69720000D01*
X167430000Y-69191210D01*
X167429999Y-69191209D01*
X167409087Y-69192854D01*
X167409081Y-69192855D01*
X167253809Y-69237966D01*
X167253804Y-69237968D01*
X167114625Y-69320278D01*
X167114616Y-69320285D01*
X167000285Y-69434616D01*
X167000278Y-69434625D01*
X166936232Y-69542922D01*
X166885163Y-69590606D01*
X166816421Y-69603109D01*
X166751832Y-69576463D01*
X166711902Y-69519128D01*
X166705500Y-69479801D01*
X166705500Y-63631153D01*
X169379500Y-63631153D01*
X169379500Y-63788846D01*
X169410261Y-63943489D01*
X169410264Y-63943501D01*
X169470602Y-64089172D01*
X169470609Y-64089185D01*
X169558210Y-64220288D01*
X169558213Y-64220292D01*
X169669707Y-64331786D01*
X169669711Y-64331789D01*
X169800814Y-64419390D01*
X169800827Y-64419397D01*
X169923442Y-64470185D01*
X169946503Y-64479737D01*
X170101153Y-64510499D01*
X170101156Y-64510500D01*
X170101158Y-64510500D01*
X170258844Y-64510500D01*
X170258845Y-64510499D01*
X170413497Y-64479737D01*
X170559179Y-64419394D01*
X170690289Y-64331789D01*
X170801789Y-64220289D01*
X170889394Y-64089179D01*
X170949737Y-63943497D01*
X170980500Y-63788842D01*
X170980500Y-63631158D01*
X170980500Y-63631155D01*
X170980499Y-63631153D01*
X170949737Y-63476503D01*
X170942649Y-63459390D01*
X170889397Y-63330827D01*
X170889390Y-63330814D01*
X170801398Y-63199125D01*
X170780520Y-63132447D01*
X170780500Y-63130234D01*
X170780500Y-59310097D01*
X170800185Y-59243058D01*
X170816819Y-59222416D01*
X171218735Y-58820500D01*
X171634664Y-58404571D01*
X171695985Y-58371088D01*
X171698152Y-58370637D01*
X171698841Y-58370500D01*
X171698842Y-58370500D01*
X171853497Y-58339737D01*
X171999179Y-58279394D01*
X172130289Y-58191789D01*
X172241789Y-58080289D01*
X172329394Y-57949179D01*
X172332719Y-57941153D01*
X172357960Y-57880213D01*
X172389737Y-57803497D01*
X172420500Y-57648842D01*
X172420500Y-57491158D01*
X172420500Y-57491155D01*
X172420499Y-57491153D01*
X172403896Y-57407685D01*
X172389737Y-57336503D01*
X172382774Y-57319692D01*
X172329397Y-57190827D01*
X172329390Y-57190814D01*
X172241789Y-57059711D01*
X172241786Y-57059707D01*
X172130292Y-56948213D01*
X172130288Y-56948210D01*
X171999185Y-56860609D01*
X171999172Y-56860602D01*
X171853501Y-56800264D01*
X171853489Y-56800261D01*
X171698845Y-56769500D01*
X171698842Y-56769500D01*
X171541158Y-56769500D01*
X171541155Y-56769500D01*
X171386510Y-56800261D01*
X171386498Y-56800264D01*
X171240827Y-56860602D01*
X171240814Y-56860609D01*
X171109711Y-56948210D01*
X171109707Y-56948213D01*
X170998213Y-57059707D01*
X170998210Y-57059711D01*
X170910609Y-57190814D01*
X170910602Y-57190827D01*
X170850264Y-57336498D01*
X170850261Y-57336508D01*
X170819362Y-57491848D01*
X170786977Y-57553759D01*
X170785426Y-57555337D01*
X169814295Y-58526468D01*
X169814288Y-58526475D01*
X169811286Y-58529478D01*
X169811284Y-58529480D01*
X169699480Y-58641284D01*
X169676584Y-58680942D01*
X169670572Y-58691354D01*
X169670572Y-58691355D01*
X169639542Y-58745101D01*
X169620423Y-58778215D01*
X169579499Y-58930943D01*
X169579499Y-58930945D01*
X169579499Y-59099046D01*
X169579500Y-59099059D01*
X169579500Y-63130234D01*
X169559815Y-63197273D01*
X169558602Y-63199125D01*
X169470609Y-63330814D01*
X169470602Y-63330827D01*
X169410264Y-63476498D01*
X169410261Y-63476510D01*
X169379500Y-63631153D01*
X166705500Y-63631153D01*
X166705500Y-63127847D01*
X166725185Y-63060808D01*
X166777989Y-63015053D01*
X166805309Y-63006230D01*
X166821291Y-63003050D01*
X166938497Y-62979737D01*
X167084179Y-62919394D01*
X167215289Y-62831789D01*
X167326789Y-62720289D01*
X167414394Y-62589179D01*
X167474737Y-62443497D01*
X167505500Y-62288842D01*
X167505500Y-62131158D01*
X167505500Y-62131155D01*
X167505499Y-62131153D01*
X167480966Y-62007820D01*
X167474737Y-61976503D01*
X167474735Y-61976498D01*
X167414397Y-61830827D01*
X167414390Y-61830814D01*
X167326398Y-61699125D01*
X167305520Y-61632447D01*
X167305500Y-61630234D01*
X167305500Y-61407941D01*
X167325185Y-61340902D01*
X167341819Y-61320260D01*
X167451786Y-61210292D01*
X167451789Y-61210289D01*
X167539394Y-61079179D01*
X167599737Y-60933497D01*
X167630500Y-60778842D01*
X167630500Y-60621158D01*
X167630500Y-60621155D01*
X167630499Y-60621153D01*
X167624736Y-60592179D01*
X167599737Y-60466503D01*
X167555699Y-60360185D01*
X167539397Y-60320827D01*
X167539390Y-60320814D01*
X167451789Y-60189711D01*
X167451786Y-60189707D01*
X167340292Y-60078213D01*
X167340288Y-60078210D01*
X167209185Y-59990609D01*
X167209172Y-59990602D01*
X167063501Y-59930264D01*
X167063489Y-59930261D01*
X166908845Y-59899500D01*
X166908842Y-59899500D01*
X166829500Y-59899500D01*
X166762461Y-59879815D01*
X166716706Y-59827011D01*
X166705500Y-59775500D01*
X166705500Y-59223632D01*
X166725185Y-59156593D01*
X166777989Y-59110838D01*
X166847147Y-59100894D01*
X166864098Y-59104557D01*
X166874792Y-59107664D01*
X166874793Y-59107664D01*
X166874796Y-59107665D01*
X166910819Y-59110500D01*
X167309180Y-59110499D01*
X167345204Y-59107665D01*
X167499393Y-59062869D01*
X167557369Y-59028581D01*
X167625093Y-59011398D01*
X167683612Y-59028581D01*
X167740805Y-59062404D01*
X167880000Y-59102844D01*
X167880000Y-59102843D01*
X168380000Y-59102843D01*
X168519194Y-59062404D01*
X168657285Y-58980738D01*
X168657294Y-58980731D01*
X168770731Y-58867294D01*
X168770738Y-58867285D01*
X168852406Y-58729191D01*
X168852407Y-58729188D01*
X168897166Y-58575128D01*
X168897167Y-58575122D01*
X168899931Y-58540000D01*
X168380000Y-58540000D01*
X168380000Y-59102843D01*
X167880000Y-59102843D01*
X167880000Y-58550408D01*
X167880004Y-58549404D01*
X167880039Y-58545034D01*
X167880500Y-58539181D01*
X167880499Y-58413999D01*
X167900183Y-58346962D01*
X167952986Y-58301206D01*
X168004499Y-58290000D01*
X168130000Y-58290000D01*
X168130000Y-58164000D01*
X168149685Y-58096961D01*
X168202489Y-58051206D01*
X168254000Y-58040000D01*
X168899931Y-58040000D01*
X168897167Y-58004877D01*
X168897166Y-58004871D01*
X168852407Y-57850811D01*
X168852406Y-57850808D01*
X168777680Y-57724453D01*
X168760497Y-57656729D01*
X168782657Y-57590467D01*
X168837123Y-57546703D01*
X168874688Y-57537714D01*
X168882488Y-57537100D01*
X168882495Y-57537099D01*
X169040193Y-57491283D01*
X169040196Y-57491282D01*
X169181552Y-57407685D01*
X169181561Y-57407678D01*
X169297678Y-57291561D01*
X169297685Y-57291552D01*
X169381282Y-57150196D01*
X169381283Y-57150193D01*
X169427099Y-56992495D01*
X169427100Y-56992488D01*
X169427487Y-56987574D01*
X169450000Y-56928501D01*
X169450000Y-56116988D01*
X169459940Y-56134205D01*
X169515795Y-56190060D01*
X169584204Y-56229556D01*
X169660504Y-56250000D01*
X169739496Y-56250000D01*
X169815796Y-56229556D01*
X169884205Y-56190060D01*
X169940060Y-56134205D01*
X169950000Y-56116988D01*
X169950000Y-56919862D01*
X169991690Y-56911569D01*
X169991692Y-56911569D01*
X170173671Y-56836192D01*
X170173684Y-56836185D01*
X170337462Y-56726751D01*
X170337466Y-56726748D01*
X170476748Y-56587466D01*
X170476751Y-56587462D01*
X170586185Y-56423684D01*
X170586192Y-56423671D01*
X170661569Y-56241693D01*
X170661572Y-56241681D01*
X170692800Y-56084690D01*
X170699999Y-56048494D01*
X170700000Y-56048492D01*
X170700000Y-55650000D01*
X170000000Y-55650000D01*
X170000000Y-55150000D01*
X170700000Y-55150000D01*
X170700000Y-54751508D01*
X170699999Y-54751504D01*
X170661572Y-54558318D01*
X170661569Y-54558306D01*
X170586192Y-54376328D01*
X170586185Y-54376315D01*
X170476751Y-54212537D01*
X170476748Y-54212533D01*
X170337466Y-54073251D01*
X170337462Y-54073248D01*
X170173684Y-53963814D01*
X170173671Y-53963807D01*
X169991691Y-53888429D01*
X169991683Y-53888427D01*
X169950000Y-53880135D01*
X169950000Y-54683011D01*
X169940060Y-54665795D01*
X169884205Y-54609940D01*
X169815796Y-54570444D01*
X169739496Y-54550000D01*
X169660504Y-54550000D01*
X169584204Y-54570444D01*
X169515795Y-54609940D01*
X169459940Y-54665795D01*
X169450000Y-54683011D01*
X169450000Y-53891871D01*
X169394291Y-53858609D01*
X169377177Y-53840125D01*
X169357281Y-53824669D01*
X169353842Y-53814922D01*
X169346822Y-53807340D01*
X169342417Y-53782537D01*
X169334037Y-53758780D01*
X169336413Y-53748722D01*
X169334607Y-53738547D01*
X169344311Y-53715299D01*
X169350105Y-53690783D01*
X169359917Y-53677916D01*
X169361523Y-53674070D01*
X169364326Y-53672135D01*
X169370176Y-53664464D01*
X170077822Y-52956819D01*
X170139145Y-52923334D01*
X170165503Y-52920500D01*
X172938933Y-52920500D01*
X173005972Y-52940185D01*
G37*
%TD.AperFunction*%
%TA.AperFunction,Conductor*%
G36*
X167910847Y-72480965D02*
G01*
X167946697Y-72505932D01*
X168167385Y-72726620D01*
X168200870Y-72787943D01*
X168195886Y-72857635D01*
X168190000Y-72866410D01*
X168190000Y-73469403D01*
X168170315Y-73536442D01*
X168153681Y-73557084D01*
X168087084Y-73623681D01*
X168025761Y-73657166D01*
X167999403Y-73660000D01*
X167836468Y-73660000D01*
X167769429Y-73640315D01*
X167723674Y-73587511D01*
X167717394Y-73570605D01*
X167702869Y-73520607D01*
X167702866Y-73520602D01*
X167702866Y-73520601D01*
X167700196Y-73514429D01*
X167690000Y-73465188D01*
X167690000Y-73334810D01*
X167700200Y-73285559D01*
X167702863Y-73279402D01*
X167702869Y-73279393D01*
X167747340Y-73126322D01*
X167747664Y-73125208D01*
X167747665Y-73125202D01*
X167748782Y-73111009D01*
X167750500Y-73089181D01*
X167750499Y-72690820D01*
X167747665Y-72654796D01*
X167739940Y-72628206D01*
X167740139Y-72558341D01*
X167778080Y-72499670D01*
X167841717Y-72470826D01*
X167910847Y-72480965D01*
G37*
%TD.AperFunction*%
%TA.AperFunction,Conductor*%
G36*
X175343181Y-69639627D02*
G01*
X175376666Y-69700950D01*
X175379500Y-69727308D01*
X175379500Y-70360242D01*
X175359815Y-70427281D01*
X175307011Y-70473036D01*
X175237853Y-70482980D01*
X175174297Y-70453955D01*
X175167819Y-70447923D01*
X175149786Y-70429890D01*
X174977817Y-70304949D01*
X174968504Y-70300204D01*
X174917707Y-70252230D01*
X174900912Y-70184409D01*
X174923449Y-70118274D01*
X174968507Y-70079232D01*
X174977555Y-70074622D01*
X175031716Y-70035270D01*
X175031717Y-70035270D01*
X174399408Y-69402962D01*
X174462993Y-69385925D01*
X174577007Y-69320099D01*
X174670099Y-69227007D01*
X174735925Y-69112993D01*
X174752962Y-69049408D01*
X175343181Y-69639627D01*
G37*
%TD.AperFunction*%
%TA.AperFunction,Conductor*%
G36*
X156024075Y-69112993D02*
G01*
X156089901Y-69227007D01*
X156182993Y-69320099D01*
X156297007Y-69385925D01*
X156360590Y-69402962D01*
X155728282Y-70035269D01*
X155728282Y-70035270D01*
X155782452Y-70074626D01*
X155782451Y-70074626D01*
X155791495Y-70079234D01*
X155842292Y-70127208D01*
X155859087Y-70195029D01*
X155836550Y-70261164D01*
X155791499Y-70300202D01*
X155782182Y-70304949D01*
X155610213Y-70429890D01*
X155610209Y-70429894D01*
X155592181Y-70447923D01*
X155530858Y-70481408D01*
X155461166Y-70476424D01*
X155405233Y-70434552D01*
X155380816Y-70369088D01*
X155380500Y-70360242D01*
X155380500Y-69727308D01*
X155400185Y-69660269D01*
X155416819Y-69639627D01*
X156007037Y-69049408D01*
X156024075Y-69112993D01*
G37*
%TD.AperFunction*%
%TA.AperFunction,Conductor*%
G36*
X155585703Y-67386045D02*
G01*
X155592181Y-67392077D01*
X155610213Y-67410109D01*
X155782179Y-67535048D01*
X155782181Y-67535049D01*
X155782184Y-67535051D01*
X155791493Y-67539794D01*
X155842290Y-67587766D01*
X155859087Y-67655587D01*
X155836552Y-67721722D01*
X155791505Y-67760760D01*
X155782446Y-67765376D01*
X155782440Y-67765380D01*
X155728282Y-67804727D01*
X155728282Y-67804728D01*
X156360591Y-68437037D01*
X156297007Y-68454075D01*
X156182993Y-68519901D01*
X156089901Y-68612993D01*
X156024075Y-68727007D01*
X156007037Y-68790591D01*
X155416819Y-68200373D01*
X155383334Y-68139050D01*
X155380500Y-68112692D01*
X155380500Y-67479758D01*
X155400185Y-67412719D01*
X155452989Y-67366964D01*
X155522147Y-67357020D01*
X155585703Y-67386045D01*
G37*
%TD.AperFunction*%
%TA.AperFunction,Conductor*%
G36*
X175298834Y-67363576D02*
G01*
X175354767Y-67405448D01*
X175379184Y-67470912D01*
X175379500Y-67479758D01*
X175379500Y-68112692D01*
X175359815Y-68179731D01*
X175343181Y-68200373D01*
X174752962Y-68790591D01*
X174735925Y-68727007D01*
X174670099Y-68612993D01*
X174577007Y-68519901D01*
X174462993Y-68454075D01*
X174399409Y-68437037D01*
X175031716Y-67804728D01*
X174977547Y-67765373D01*
X174977547Y-67765372D01*
X174968500Y-67760763D01*
X174917706Y-67712788D01*
X174900912Y-67644966D01*
X174923451Y-67578832D01*
X174968508Y-67539793D01*
X174977816Y-67535051D01*
X175066096Y-67470912D01*
X175149786Y-67410109D01*
X175149788Y-67410106D01*
X175149792Y-67410104D01*
X175167819Y-67392077D01*
X175229142Y-67358592D01*
X175298834Y-67363576D01*
G37*
%TD.AperFunction*%
%TA.AperFunction,Conductor*%
G36*
X164043967Y-58742486D02*
G01*
X164052699Y-58741198D01*
X164076978Y-58752179D01*
X164102540Y-58759685D01*
X164108318Y-58766354D01*
X164116360Y-58769991D01*
X164130848Y-58792355D01*
X164148295Y-58812489D01*
X164150520Y-58822719D01*
X164154350Y-58828630D01*
X164159500Y-58863916D01*
X164159501Y-58989180D01*
X164159583Y-58990234D01*
X164159584Y-58990243D01*
X164159618Y-58990663D01*
X164159585Y-58990818D01*
X164159585Y-58991328D01*
X164159597Y-58991617D01*
X164159585Y-58991617D01*
X164159958Y-59552813D01*
X164160000Y-59552844D01*
X164299194Y-59512405D01*
X164299196Y-59512404D01*
X164356386Y-59478582D01*
X164424109Y-59461398D01*
X164482629Y-59478581D01*
X164540607Y-59512869D01*
X164581268Y-59524682D01*
X164694791Y-59557664D01*
X164694794Y-59557664D01*
X164694796Y-59557665D01*
X164730819Y-59560500D01*
X164930500Y-59560499D01*
X164997539Y-59580183D01*
X165043294Y-59632987D01*
X165054500Y-59684499D01*
X165054500Y-60985500D01*
X165034815Y-61052539D01*
X164982011Y-61098294D01*
X164930500Y-61109500D01*
X164881155Y-61109500D01*
X164726510Y-61140261D01*
X164726507Y-61140262D01*
X164726506Y-61140262D01*
X164726503Y-61140263D01*
X164688019Y-61156203D01*
X164618551Y-61163671D01*
X164556072Y-61132395D01*
X164526101Y-61083720D01*
X164524844Y-61084265D01*
X164521744Y-61077103D01*
X164521744Y-61077102D01*
X164438081Y-60935635D01*
X164438079Y-60935633D01*
X164438076Y-60935629D01*
X164321870Y-60819423D01*
X164321862Y-60819417D01*
X164243681Y-60773181D01*
X164180398Y-60735756D01*
X164180397Y-60735755D01*
X164180396Y-60735755D01*
X164180393Y-60735754D01*
X164022573Y-60689902D01*
X164022567Y-60689901D01*
X163985701Y-60687000D01*
X163985694Y-60687000D01*
X163744500Y-60687000D01*
X163677461Y-60667315D01*
X163631706Y-60614511D01*
X163620500Y-60563000D01*
X163620500Y-59644461D01*
X163640185Y-59577422D01*
X163660000Y-59556108D01*
X163660000Y-58864000D01*
X163679685Y-58796961D01*
X163732489Y-58751206D01*
X163784000Y-58740000D01*
X164035501Y-58740000D01*
X164043967Y-58742486D01*
G37*
%TD.AperFunction*%
%TA.AperFunction,Conductor*%
G36*
X162072539Y-56334685D02*
G01*
X162118294Y-56387489D01*
X162129500Y-56439000D01*
X162129500Y-56955701D01*
X162132401Y-56992567D01*
X162132402Y-56992573D01*
X162178254Y-57150393D01*
X162178255Y-57150396D01*
X162178256Y-57150398D01*
X162199611Y-57186508D01*
X162202231Y-57190937D01*
X162219499Y-57254054D01*
X162219499Y-57279057D01*
X162219499Y-57279059D01*
X162219500Y-57289055D01*
X162219500Y-58632307D01*
X162199815Y-58699346D01*
X162147011Y-58745101D01*
X162077853Y-58755045D01*
X162060906Y-58751384D01*
X161960991Y-58722356D01*
X161924697Y-58719500D01*
X161924690Y-58719500D01*
X161817350Y-58719500D01*
X161750311Y-58699815D01*
X161704556Y-58647011D01*
X161694612Y-58577853D01*
X161714248Y-58526609D01*
X161799390Y-58399185D01*
X161799390Y-58399184D01*
X161799394Y-58399179D01*
X161859737Y-58253497D01*
X161890500Y-58098842D01*
X161890500Y-57941158D01*
X161890500Y-57941155D01*
X161890499Y-57941153D01*
X161863117Y-57803497D01*
X161859737Y-57786503D01*
X161843757Y-57747923D01*
X161823776Y-57699684D01*
X161816307Y-57630215D01*
X161847582Y-57567736D01*
X161854166Y-57561176D01*
X161880000Y-57537295D01*
X161880000Y-56439000D01*
X161899685Y-56371961D01*
X161952489Y-56326206D01*
X162004000Y-56315000D01*
X162005500Y-56315000D01*
X162072539Y-56334685D01*
G37*
%TD.AperFunction*%
%TA.AperFunction,Conductor*%
G36*
X175343181Y-56939627D02*
G01*
X175376666Y-57000950D01*
X175379500Y-57027308D01*
X175379500Y-57660242D01*
X175359815Y-57727281D01*
X175307011Y-57773036D01*
X175237853Y-57782980D01*
X175174297Y-57753955D01*
X175167819Y-57747923D01*
X175149786Y-57729890D01*
X174977817Y-57604949D01*
X174968504Y-57600204D01*
X174917707Y-57552230D01*
X174900912Y-57484409D01*
X174923449Y-57418274D01*
X174968507Y-57379232D01*
X174977555Y-57374622D01*
X175031716Y-57335270D01*
X175031717Y-57335270D01*
X174399408Y-56702962D01*
X174462993Y-56685925D01*
X174577007Y-56620099D01*
X174670099Y-56527007D01*
X174735925Y-56412993D01*
X174752962Y-56349408D01*
X175343181Y-56939627D01*
G37*
%TD.AperFunction*%
%TA.AperFunction,Conductor*%
G36*
X156024075Y-56412993D02*
G01*
X156089901Y-56527007D01*
X156182993Y-56620099D01*
X156297007Y-56685925D01*
X156360590Y-56702962D01*
X155728282Y-57335269D01*
X155728282Y-57335270D01*
X155782452Y-57374626D01*
X155782451Y-57374626D01*
X155791495Y-57379234D01*
X155842292Y-57427208D01*
X155859087Y-57495029D01*
X155836550Y-57561164D01*
X155791499Y-57600202D01*
X155782182Y-57604949D01*
X155610213Y-57729890D01*
X155610209Y-57729894D01*
X155592181Y-57747923D01*
X155530858Y-57781408D01*
X155461166Y-57776424D01*
X155405233Y-57734552D01*
X155380816Y-57669088D01*
X155380500Y-57660242D01*
X155380500Y-57027308D01*
X155400185Y-56960269D01*
X155416819Y-56939627D01*
X156007037Y-56349408D01*
X156024075Y-56412993D01*
G37*
%TD.AperFunction*%
%TA.AperFunction,Conductor*%
G36*
X155585703Y-54686045D02*
G01*
X155592181Y-54692077D01*
X155610213Y-54710109D01*
X155782179Y-54835048D01*
X155782181Y-54835049D01*
X155782184Y-54835051D01*
X155791493Y-54839794D01*
X155842290Y-54887766D01*
X155859087Y-54955587D01*
X155836552Y-55021722D01*
X155791505Y-55060760D01*
X155782446Y-55065376D01*
X155782440Y-55065380D01*
X155728282Y-55104727D01*
X155728282Y-55104728D01*
X156360591Y-55737037D01*
X156297007Y-55754075D01*
X156182993Y-55819901D01*
X156089901Y-55912993D01*
X156024075Y-56027007D01*
X156007037Y-56090591D01*
X155416819Y-55500373D01*
X155383334Y-55439050D01*
X155380500Y-55412692D01*
X155380500Y-54779758D01*
X155400185Y-54712719D01*
X155452989Y-54666964D01*
X155522147Y-54657020D01*
X155585703Y-54686045D01*
G37*
%TD.AperFunction*%
%TA.AperFunction,Conductor*%
G36*
X175298834Y-54663576D02*
G01*
X175354767Y-54705448D01*
X175379184Y-54770912D01*
X175379500Y-54779758D01*
X175379500Y-55412692D01*
X175359815Y-55479731D01*
X175343181Y-55500373D01*
X174752962Y-56090591D01*
X174735925Y-56027007D01*
X174670099Y-55912993D01*
X174577007Y-55819901D01*
X174462993Y-55754075D01*
X174399409Y-55737037D01*
X175031716Y-55104728D01*
X174977547Y-55065373D01*
X174977547Y-55065372D01*
X174968500Y-55060763D01*
X174917706Y-55012788D01*
X174900912Y-54944966D01*
X174923451Y-54878832D01*
X174968508Y-54839793D01*
X174977816Y-54835051D01*
X175092804Y-54751508D01*
X175149786Y-54710109D01*
X175149788Y-54710106D01*
X175149792Y-54710104D01*
X175167819Y-54692077D01*
X175229142Y-54658592D01*
X175298834Y-54663576D01*
G37*
%TD.AperFunction*%
%TA.AperFunction,Conductor*%
G36*
X172862539Y-50290185D02*
G01*
X172908294Y-50342989D01*
X172919500Y-50394500D01*
X172919500Y-51589901D01*
X172899815Y-51656940D01*
X172883189Y-51677574D01*
X172877591Y-51683173D01*
X172816271Y-51716664D01*
X172789902Y-51719500D01*
X170824000Y-51719500D01*
X170756961Y-51699815D01*
X170711206Y-51647011D01*
X170700000Y-51595500D01*
X170700000Y-51470000D01*
X170000000Y-51470000D01*
X170000000Y-50970000D01*
X170700000Y-50970000D01*
X170700000Y-50821508D01*
X170699999Y-50821504D01*
X170661572Y-50628318D01*
X170661570Y-50628310D01*
X170584379Y-50441953D01*
X170576910Y-50372483D01*
X170608185Y-50310004D01*
X170668274Y-50274352D01*
X170698940Y-50270500D01*
X172795500Y-50270500D01*
X172862539Y-50290185D01*
G37*
%TD.AperFunction*%
%TD*%
M02*
