%TF.GenerationSoftware,KiCad,Pcbnew,10.0.0*%
%TF.CreationDate,2026-06-04T21:51:39+05:30*%
%TF.ProjectId,card,63617264-2e6b-4696-9361-645f70636258,rev?*%
%TF.SameCoordinates,Original*%
%TF.FileFunction,Soldermask,Top*%
%TF.FilePolarity,Negative*%
%FSLAX46Y46*%
G04 Gerber Fmt 4.6, Leading zero omitted, Abs format (unit mm)*
G04 Created by KiCad (PCBNEW 10.0.0) date 2026-06-04 21:51:39*
%MOMM*%
%LPD*%
G01*
G04 APERTURE LIST*
G04 Aperture macros list*
%AMRoundRect*
0 Rectangle with rounded corners*
0 $1 Rounding radius*
0 $2 $3 $4 $5 $6 $7 $8 $9 X,Y pos of 4 corners*
0 Add a 4 corners polygon primitive as box body*
4,1,4,$2,$3,$4,$5,$6,$7,$8,$9,$2,$3,0*
0 Add four circle primitives for the rounded corners*
1,1,$1+$1,$2,$3*
1,1,$1+$1,$4,$5*
1,1,$1+$1,$6,$7*
1,1,$1+$1,$8,$9*
0 Add four rect primitives between the rounded corners*
20,1,$1+$1,$2,$3,$4,$5,0*
20,1,$1+$1,$4,$5,$6,$7,0*
20,1,$1+$1,$6,$7,$8,$9,0*
20,1,$1+$1,$8,$9,$2,$3,0*%
G04 Aperture macros list end*
%ADD10RoundRect,0.140000X0.140000X0.170000X-0.140000X0.170000X-0.140000X-0.170000X0.140000X-0.170000X0*%
%ADD11RoundRect,0.135000X-0.185000X0.135000X-0.185000X-0.135000X0.185000X-0.135000X0.185000X0.135000X0*%
%ADD12R,1.700000X1.700000*%
%ADD13C,1.700000*%
%ADD14RoundRect,0.050000X-0.387500X-0.050000X0.387500X-0.050000X0.387500X0.050000X-0.387500X0.050000X0*%
%ADD15RoundRect,0.050000X-0.050000X-0.387500X0.050000X-0.387500X0.050000X0.387500X-0.050000X0.387500X0*%
%ADD16R,3.200000X3.200000*%
%ADD17RoundRect,0.140000X-0.170000X0.140000X-0.170000X-0.140000X0.170000X-0.140000X0.170000X0.140000X0*%
%ADD18RoundRect,0.140000X0.021213X-0.219203X0.219203X-0.021213X-0.021213X0.219203X-0.219203X0.021213X0*%
%ADD19RoundRect,0.150000X0.150000X-0.587500X0.150000X0.587500X-0.150000X0.587500X-0.150000X-0.587500X0*%
%ADD20C,0.650000*%
%ADD21RoundRect,0.150000X0.150000X0.575000X-0.150000X0.575000X-0.150000X-0.575000X0.150000X-0.575000X0*%
%ADD22RoundRect,0.075000X0.075000X0.650000X-0.075000X0.650000X-0.075000X-0.650000X0.075000X-0.650000X0*%
%ADD23O,1.000000X2.100000*%
%ADD24O,1.000000X1.600000*%
%ADD25RoundRect,0.140000X-0.140000X-0.170000X0.140000X-0.170000X0.140000X0.170000X-0.140000X0.170000X0*%
%ADD26RoundRect,0.062500X-0.387500X-0.062500X0.387500X-0.062500X0.387500X0.062500X-0.387500X0.062500X0*%
%ADD27R,0.200000X1.600000*%
%ADD28RoundRect,0.250000X0.450000X0.350000X-0.450000X0.350000X-0.450000X-0.350000X0.450000X-0.350000X0*%
%ADD29RoundRect,0.135000X-0.135000X-0.185000X0.135000X-0.185000X0.135000X0.185000X-0.135000X0.185000X0*%
%ADD30RoundRect,0.135000X0.135000X0.185000X-0.135000X0.185000X-0.135000X-0.185000X0.135000X-0.185000X0*%
%ADD31RoundRect,0.140000X0.170000X-0.140000X0.170000X0.140000X-0.170000X0.140000X-0.170000X-0.140000X0*%
%ADD32RoundRect,0.135000X0.185000X-0.135000X0.185000X0.135000X-0.185000X0.135000X-0.185000X-0.135000X0*%
%ADD33RoundRect,0.200000X0.200000X0.800000X-0.200000X0.800000X-0.200000X-0.800000X0.200000X-0.800000X0*%
G04 APERTURE END LIST*
D10*
%TO.C,C6*%
X160560000Y-80250000D03*
X159600000Y-80250000D03*
%TD*%
D11*
%TO.C,R2*%
X165910000Y-72900000D03*
X165910000Y-73920000D03*
%TD*%
D12*
%TO.C,J3*%
X174270000Y-51140000D03*
D13*
X174270000Y-53680000D03*
X174270000Y-56220000D03*
X174270000Y-58760000D03*
X174270000Y-61300000D03*
X174270000Y-63840000D03*
X174270000Y-66380000D03*
X174270000Y-68920000D03*
X174270000Y-71460000D03*
X174270000Y-74000000D03*
X174270000Y-76540000D03*
X174270000Y-79080000D03*
X174270000Y-81620000D03*
X174270000Y-84160000D03*
X174270000Y-86700000D03*
X174270000Y-89240000D03*
X174270000Y-91780000D03*
X174270000Y-94320000D03*
X174270000Y-96860000D03*
X174270000Y-99400000D03*
%TD*%
D14*
%TO.C,U1*%
X161942500Y-76670000D03*
X161942500Y-77070000D03*
X161942500Y-77470000D03*
X161942500Y-77870000D03*
X161942500Y-78270000D03*
X161942500Y-78670000D03*
X161942500Y-79070000D03*
X161942500Y-79470000D03*
X161942500Y-79870000D03*
X161942500Y-80270000D03*
X161942500Y-80670000D03*
X161942500Y-81070000D03*
X161942500Y-81470000D03*
X161942500Y-81870000D03*
D15*
X162780000Y-82707500D03*
X163180000Y-82707500D03*
X163580000Y-82707500D03*
X163980000Y-82707500D03*
X164380000Y-82707500D03*
X164780000Y-82707500D03*
X165180000Y-82707500D03*
X165580000Y-82707500D03*
X165980000Y-82707500D03*
X166380000Y-82707500D03*
X166780000Y-82707500D03*
X167180000Y-82707500D03*
X167580000Y-82707500D03*
X167980000Y-82707500D03*
D14*
X168817500Y-81870000D03*
X168817500Y-81470000D03*
X168817500Y-81070000D03*
X168817500Y-80670000D03*
X168817500Y-80270000D03*
X168817500Y-79870000D03*
X168817500Y-79470000D03*
X168817500Y-79070000D03*
X168817500Y-78670000D03*
X168817500Y-78270000D03*
X168817500Y-77870000D03*
X168817500Y-77470000D03*
X168817500Y-77070000D03*
X168817500Y-76670000D03*
D15*
X167980000Y-75832500D03*
X167580000Y-75832500D03*
X167180000Y-75832500D03*
X166780000Y-75832500D03*
X166380000Y-75832500D03*
X165980000Y-75832500D03*
X165580000Y-75832500D03*
X165180000Y-75832500D03*
X164780000Y-75832500D03*
X164380000Y-75832500D03*
X163980000Y-75832500D03*
X163580000Y-75832500D03*
X163180000Y-75832500D03*
X162780000Y-75832500D03*
D16*
X165380000Y-79270000D03*
%TD*%
D17*
%TO.C,C8*%
X167180000Y-85270000D03*
X167180000Y-86230000D03*
%TD*%
D18*
%TO.C,C3*%
X170721178Y-74608822D03*
X171400000Y-73930000D03*
%TD*%
D19*
%TO.C,U2*%
X161870000Y-61925000D03*
X163770000Y-61925000D03*
X162820000Y-60050000D03*
%TD*%
D20*
%TO.C,J1*%
X168270000Y-54870000D03*
X162490000Y-54870000D03*
D21*
X168630000Y-56315000D03*
X167830000Y-56315000D03*
D22*
X166630000Y-56315000D03*
X165630000Y-56315000D03*
X165130000Y-56315000D03*
X164130000Y-56315000D03*
D21*
X162930000Y-56315000D03*
X162130000Y-56315000D03*
X162130000Y-56315000D03*
X162930000Y-56315000D03*
D22*
X163630000Y-56315000D03*
X164630000Y-56315000D03*
X166130000Y-56315000D03*
X167130000Y-56315000D03*
D21*
X167830000Y-56315000D03*
X168630000Y-56315000D03*
D23*
X169700000Y-55400000D03*
D24*
X169700000Y-51220000D03*
D23*
X161060000Y-55400000D03*
D24*
X161060000Y-51220000D03*
%TD*%
D25*
%TO.C,C7*%
X170990000Y-80540000D03*
X171950000Y-80540000D03*
%TD*%
D26*
%TO.C,U3*%
X160300000Y-70020000D03*
X160300000Y-70520000D03*
X160300000Y-71020000D03*
X160300000Y-71520000D03*
X163150000Y-71520000D03*
X163150000Y-71020000D03*
X163150000Y-70520000D03*
X163150000Y-70020000D03*
D27*
X161725000Y-70770000D03*
%TD*%
D28*
%TO.C,Y1*%
X165620000Y-86730000D03*
X163420000Y-86730000D03*
X163420000Y-88430000D03*
X165620000Y-88430000D03*
%TD*%
D25*
%TO.C,C4*%
X170500000Y-75780000D03*
X171460000Y-75780000D03*
%TD*%
D29*
%TO.C,R3*%
X167110000Y-58290000D03*
X168130000Y-58290000D03*
%TD*%
D10*
%TO.C,C14*%
X163340000Y-63640000D03*
X162380000Y-63640000D03*
%TD*%
D12*
%TO.C,J2*%
X156490000Y-51140000D03*
D13*
X156490000Y-53680000D03*
X156490000Y-56220000D03*
X156490000Y-58760000D03*
X156490000Y-61300000D03*
X156490000Y-63840000D03*
X156490000Y-66380000D03*
X156490000Y-68920000D03*
X156490000Y-71460000D03*
X156490000Y-74000000D03*
X156490000Y-76540000D03*
X156490000Y-79080000D03*
X156490000Y-81620000D03*
X156490000Y-84160000D03*
X156490000Y-86700000D03*
X156490000Y-89240000D03*
X156490000Y-91780000D03*
X156490000Y-94320000D03*
X156490000Y-96860000D03*
X156490000Y-99400000D03*
%TD*%
D17*
%TO.C,C9*%
X168170000Y-86190000D03*
X168170000Y-87150000D03*
%TD*%
D11*
%TO.C,R1*%
X166930000Y-72890000D03*
X166930000Y-73910000D03*
%TD*%
D10*
%TO.C,C17*%
X163180000Y-69020000D03*
X162220000Y-69020000D03*
%TD*%
D30*
%TO.C,R4*%
X164930000Y-58740000D03*
X163910000Y-58740000D03*
%TD*%
D17*
%TO.C,C2*%
X169160000Y-87230000D03*
X169160000Y-88190000D03*
%TD*%
D31*
%TO.C,C10*%
X167940000Y-74620000D03*
X167940000Y-73660000D03*
%TD*%
D10*
%TO.C,C13*%
X161720000Y-59530000D03*
X160760000Y-59530000D03*
%TD*%
D31*
%TO.C,C1*%
X169600000Y-74980000D03*
X169600000Y-74020000D03*
%TD*%
D17*
%TO.C,C16*%
X161850000Y-87130000D03*
X161850000Y-88090000D03*
%TD*%
D31*
%TO.C,C15*%
X167170000Y-88120000D03*
X167170000Y-87160000D03*
%TD*%
D10*
%TO.C,C5*%
X161110000Y-75760000D03*
X160150000Y-75760000D03*
%TD*%
D31*
%TO.C,C11*%
X169370000Y-73080000D03*
X169370000Y-72120000D03*
%TD*%
%TO.C,C12*%
X167680000Y-70930000D03*
X167680000Y-69970000D03*
%TD*%
D32*
%TO.C,R7*%
X159860000Y-74730000D03*
X159860000Y-73710000D03*
%TD*%
D29*
%TO.C,R6*%
X159070000Y-68860000D03*
X160090000Y-68860000D03*
%TD*%
D12*
%TO.C,J4*%
X162840000Y-99160000D03*
D13*
X165380000Y-99160000D03*
X167920000Y-99160000D03*
%TD*%
D33*
%TO.C,SW1*%
X164270000Y-65870000D03*
X160070000Y-65870000D03*
%TD*%
D29*
%TO.C,R5*%
X165180000Y-85250000D03*
X166200000Y-85250000D03*
%TD*%
M02*
